<mxfile host="app.diagrams.net" modified="2024-01-13T11:43:55.503Z" agent="Mozilla/5.0 (Windows NT 10.0; Win64; x64) AppleWebKit/537.36 (KHTML, like Gecko) Chrome/120.0.0.0 Safari/537.36" etag="UkjiIIyTB4HqpXqXd4vq" version="22.1.18" type="github">
  <diagram id="C5RBs43oDa-KdzZeNtuy" name="Page-1">
    <mxGraphModel dx="1434" dy="1915" grid="1" gridSize="10" guides="1" tooltips="1" connect="1" arrows="1" fold="1" page="1" pageScale="1" pageWidth="827" pageHeight="1169" math="0" shadow="0">
      <root>
        <mxCell id="WIyWlLk6GJQsqaUBKTNV-0" />
        <mxCell id="WIyWlLk6GJQsqaUBKTNV-1" parent="WIyWlLk6GJQsqaUBKTNV-0" />
        <mxCell id="JXKKxXTUuo8ntDCiMpY3-0" value="" style="rounded=0;whiteSpace=wrap;html=1;fillColor=#fff2cc;strokeColor=#d6b656;" parent="WIyWlLk6GJQsqaUBKTNV-1" vertex="1">
          <mxGeometry x="390" y="-1164" width="120" height="260" as="geometry" />
        </mxCell>
        <mxCell id="GBO3RVmkL8M1SUxiBIiZ-50" value="" style="rounded=0;whiteSpace=wrap;html=1;fontSize=16;fontStyle=1;fillColor=#fff2cc;strokeColor=#d6b656;" parent="WIyWlLk6GJQsqaUBKTNV-1" vertex="1">
          <mxGeometry x="1810" y="815" width="670" height="360" as="geometry" />
        </mxCell>
        <mxCell id="GBO3RVmkL8M1SUxiBIiZ-94" value="" style="rounded=0;whiteSpace=wrap;html=1;fontSize=16;fontStyle=1;fillColor=#fff2cc;strokeColor=#d6b656;" parent="WIyWlLk6GJQsqaUBKTNV-1" vertex="1">
          <mxGeometry x="1810" y="-2.5" width="670" height="460" as="geometry" />
        </mxCell>
        <mxCell id="GBO3RVmkL8M1SUxiBIiZ-46" value="" style="rounded=0;whiteSpace=wrap;html=1;fontSize=16;fontStyle=1;fillColor=#fff2cc;strokeColor=#d6b656;" parent="WIyWlLk6GJQsqaUBKTNV-1" vertex="1">
          <mxGeometry y="-1169" width="370" height="769" as="geometry" />
        </mxCell>
        <mxCell id="qNMKc5YfHU3eDxenYZe_-35" style="edgeStyle=orthogonalEdgeStyle;rounded=0;orthogonalLoop=1;jettySize=auto;html=1;exitX=0;exitY=0.75;exitDx=0;exitDy=0;entryX=0;entryY=0.5;entryDx=0;entryDy=0;endSize=8;startSize=8;jumpSize=8;" parent="WIyWlLk6GJQsqaUBKTNV-1" source="WIyWlLk6GJQsqaUBKTNV-3" target="qNMKc5YfHU3eDxenYZe_-31" edge="1">
          <mxGeometry relative="1" as="geometry" />
        </mxCell>
        <mxCell id="ct-ov6YF5Ax_w1VTzETM-17" style="edgeStyle=orthogonalEdgeStyle;rounded=0;orthogonalLoop=1;jettySize=auto;html=1;exitX=0.5;exitY=1;exitDx=0;exitDy=0;endSize=8;startSize=8;jumpSize=8;" parent="WIyWlLk6GJQsqaUBKTNV-1" source="WIyWlLk6GJQsqaUBKTNV-3" target="GBO3RVmkL8M1SUxiBIiZ-78" edge="1">
          <mxGeometry relative="1" as="geometry" />
        </mxCell>
        <mxCell id="WIyWlLk6GJQsqaUBKTNV-3" value="&lt;span data-buffer=&quot;&lt;!--(figma)ZmlnLWtpd2kwAAAAsEMAALWdeZhsSVXgI+7NrOXVW3rfaJodFRF7o1lEJJdbVflebp03s6pfq51kVWa9Sl5WZpk3q/oV4ziICIiIGyIiIjKIiA4iKiIqtoiIiIiIiIiIiIzDMIzjOA7jMM78TkTcJeu9Zuaf6e/rFydOnDgRceLEiRMnIm/9klcbRFHvwqB9tD9Q6oazjUq9G7YLrbbiv3qjHHRL64X6WhCS1Z0waGXynqEO6mVgP6ys1QtVoFzYPl8NAPIG6IaB8FowtIZzNzxXaXZbQbVRkJqL9Ua7snq+G643OtVyt9NcaxXKUn/Jgd1yoy755TjfClZbQbgO6kRYCupBF3RzvXtvJ2idB7mSRbaCZlWQJ8uV1VXSU6VqJai3u8UWrZcKofTtdKZvZxudFuMIpGdnwnYrKNRsCfmrXN6O+OpKvR20CqV2ZYNBVit0zIqGsmtaQalRrwclBpvpTNzDa69cHPf1OtMfWulW6qVWUKO/hSqlrg4U1xcuDSMm4D5gJVV0YXubiQRFD8vdRt0wUiaz2aq0pVO6PukPmru9aAAZfAttM0qIao0NA+rN4bg/HF9oHYyEpt6o3x+0GhSoRtmUCwerKU+gMAClyo1SR3oIqEuF+kYhBPLWWo1OE8BfbRVqQpcrNhrVoFDvNpoIrV1p1EHmNxhOowW0IDImXaxWDNuloFqtNEMBlxl4G7kanTrRCtY61UKr22xUz68ZJis0VS8HZRFQQneyHdwnXTrFxJQEcTo8Xys2RD/PVOo0VjdYZrRSOieiujpcLzSD7malvd51da9x8jYdvLYka6FYbZTOkbtus1JeM3p9PbxqMtIbakG5UgC4cb2ytl7lfym+KYSBHezNDuwi7Fa1II3eslkI1yvdNi2Te8RGoVUpFE3/b2074JEG6JaQB7nbYhK3qh7F8MxaeXQhDCshE9qFc6MjZY+5XD+DqlEmCh+bMJLetCgE+bhao9wxrT4+3O3tDzaHs9324NLMzvht4b2dQiugVNEZNzmaMdcaZj14bTiK+FnCZP0kW25syvhzV5qnfLPQKlSr2AKWQK3bcmJbmEdXg1XBLgb1tW65gEQKpvElybOmOpJZlsxqxXA9YeBGtRzI1K20WV3B/Y2K9PJksxWUg1W0rNxtthqlIBR9PcU0BFUpPx3rczesuD6eSVC1TrVdaRrkVbVCvcOqrNSbRtpXrwf3FaxCXlNaDzZaBry2STWHvq7BsC0oSiM9u6FZ7UjzNxZarcZmPMybbC6Wxc1hp1ajL92znTqTaRjcYnTyEWEzCErr3WKnyEyCuNVMOeYLk9VoFYwpemRxNBj3ayxc6Q5q0m2vMxNrYj4x8K2aMdq6XGidC4S15wYp+unLamSxFbGJZHOlRrWR5PJGx02dhRBzYiCzfqlRbrA+yC/ZKnF2WbQNDQU8ETZW213Dg9zKeqGF7rqcMdZBK7CL9FRwXwk52ZGfXjezfSYstDuJHbnKtAJwdbWDqBphpS1NXNPsDcdOe5fCBksApEKjyhWmhdakq2B0gpLUyAMDBigoNFUMDjg/wUHklD5XqVkx5zGiZysACxssJrGZi5U99tVwuzcaWOmzMbaCdskIfrUi49Toq2mtbfXWD3Z2Btuux7kK1qfFtlhgAVGoyq1GM83q1Qa2kJlkmyhWO9JBr1gonZtH+bJ+S8bkLzTQqArKAVp1mphhUl1tbBqALrRtH0I0ototFZqimbk0x4Jqlcw2kRem5cH2ZNqbDSdj6sSbAS0zv8gVWDPcyrkg1TavOujJ7tKeDvfIxXXg3V0P3Mzr+sHe1mDaGQ9nEXxbBRmqalbuC6ohgKbXbJhC6ZUm42g2TWd4kZkHr6TcDEnXCrI/evTDid0PS2ztALlVOJa7tkbeZQz1QjibTi4OCqPhhTEVEmaKXYOJBdCYVwd6lrjU20cj4/EwXKMaOrGXnl3QIhcZhG+zwb2dSpU9GEMHMud0SkyY9T7yiA/lw4AmqIXs1rKYbh7dO8gvZfJ3kl/O5O8ifyKTv5v8Sib/VPInM/l7yJ8qVVqlbOun7WjPToYimRpORQusKgYbgYxAxwP3ipPJaNAbN/YHsYLkOnW7UhEj1WQnBNZhp4htNrB3n1nARl+N8Ncn0+HzJ+NZb0R1Zxkzc4suGyl4Zzvs4asV08O09sZgOhuy9ATXaFKUqVpstNuNGpBXmxxEg9LBNJpMkQ/bQgHbR4EqtRohK63SAtbB+UCWHqpHzsPFM001CwwFW1hCxcnnsPQkeZJSpQq0UBOLKlUWmWIcZ6ClZP5MdnmDxT6Z1obTqXQgWUVm1km1AbBAWEZ2tLaosFfuRbvWnngldmFQKlVwbWyOXQ+5Zn0NlDrbDCTV4YYkXrMsbrAfXNqfTGfH15CPy4NJZ/NzC0XFCBwe076OEcmS9aq9o8nBbG067FsmObusMhJPO+jZVeandZq92WwwHVMEVaVpVgg22thqbebzYDZpDaLh82GdiMh0x0gm6YdOIE+qtacH422nfl65EoqzIzwVfjW7KYAOZ0ejQThwY2fqWmHD2cc2fj6JLqFdVlc4cuBq1EuysfjtoNZkgzXOfC5mgzBng0SSl+03gDreLTAcve2LdhqTMa1joO9HuqYHmo0S39TAltroNc1dJl0rUq+IkomJAfZNhdLkgA5NXb2Fh6uH2N3k+IVOW3auXIZV3rA6exDNhjtHZB+WS7NQwsHcCOzJw7f5YtDetI4BUoJPaGfRGFyQHD3Cyv1Bt93AyhgBzSFQOia5Umviw5OTEmisNJqTaCiTy34CynVcFYqIvWNPO4Zscyq2mb2GU1ChCVq51BZnReSmD+qY2/ExaEjGLFmatZO8FE8dpsD6XXJiJq87LTNxRTZkUr9UbRiPNYfb3o1db/L5ThN/Nuias0O31am3K+a0tMAqK1fEuzEKsFiha9NepuWrOEew/A13VVil9a5UZWsir2sNTuq4psCehW2BT611ccGAc7YAZ0LI8jZnPPcFqPCSjWPM4dyMcKmMO0m6TNm54Hxc7QTZjYY9Ya0A23Gsm7k8meRZceRP2SZixTlts5wJN6T2mfa0N7ZTakd4Cxsux4R2lx2CrVdkAZliJTPFpopeJRhA6tnDzWqrkZwU/Awq3ilyGZzdE/IZTLIpLDQ74brFOWaLKSbmtZSiLKvlFJFwOiHHaotznFZSTMzpZIqynBBTjEg4nbYdZRIhipmdmUPG/K6aw1qWV8/hEq7XmJYc1jG9NouLeV6XRVqW12dRCccbMG+VUlfKyN2I70hEpVDH6pkleRPHhAbeZIq5OehFrGA746cJepQ6xUqJAiWs44zGpc9kPTFN1iOnhiyxpCgndHOYvK07h1uwVj3JL4bNlt0SltZQT7bcBLHsSBPECQuZBcJatqtjZR7Z3hTzcfIYcp0jEuhT4fZ0MhqVh1NrSei0W2NfYQNAwsZA27qYoZlYg0EfIzYbUB7c12QvtDa1BAdxqkxOr3XYhbQXERyiMeBFpUcTPCMDeqXJCNdD56ZqWekL/ONt8Y/f45+c9U6ofImcPuIfrwUK6hTxIP/4u/yTM5zC2WSfCtsCq+cqve+sNARerTebDi8pvbB3++3k9d7td5B4e7ffSeLv3SHI3N4dgszv3SHIhWZvikWujPsD6nkXDoZ99UCG6Yry7HGBwsPe6GBAHX1gjg63Km8VKdV7ewOl/Z3e3nB0BL2OZK8G8GAyi7anw/0ZOV9oN3rTYY8qB3uD6XB7dXjhYIpo2Z3dEVmhdswngCayYGKbwKaZ+arhfm8bpZ6rS6gBh0GMmMlrYhjuVHkFBqsyuTLALAcMKcEDA+NPoc5mfrO1S739CGVOq7D+zPFSk3TjjNcMOOpJ130Q3SQnLjrxUAHzoBjsGuBChn8zlnu2W7jw/Isnj/cEYPoTGiEzOQlVBZ02S02Hgz1YDbc3B8MLu7M5IsJzMqSEpILvP9yeI0n5cLgwG8XqoDczE/W3uslJkiJVurNpSNxovFIzFLwvoyI1AyXNu9jmAoEecYkXG61ynXSpsNqS8uVy3Ri1E/VOTYa2guMu8b2T7LsimlNlm54Wj570DAdfSa8qFMwh4uqSTa/hFCXptaHNX9faMPGT62WBk94QbppY9o2lcFPSm5hkwd9cKpnA4i2h9c4esU6Aj/RW5wc9stGqS/9uE6GQPop9UuT36HLbnJUfs1otyDgeW1triZvwuBCdJX08pxJp/wmrONGkT1y36Vet23a/um3zX3OvTZ/UtOnXykmL9MnV1aLkv67RNOlTWm2Tfn3T1r+9ea4ucrqjihkivZNU+nlXq12V/N2kkn9qodjaIL2nUNyQ/NNIpd9P37B8nrFBh0ifWaxuyvx8A6nQPYtU6L6xcG5dxvHs0llzgvym0qpZUM8pNU2+UOq0hK6IyyD5EkZS0vKq5R8QBJT+rJLeSbpGehfpOs1KexVS4X923Y6H1takP9X1xlnRGzxh4+fUKzgkpI2zzac9nbR5tvl04XPv2eYzbidtnW3efjdpWD1bk3ptYshC32F3lHnZECeJdJNU+nFf7VxN8OfrVePe3V/vnGuTfjMbifTrW0hD0m/dQOCkDzTDtuC7pIJ/butcS/K9VnNd0q1Wpyjzvh3iSJP227Yfg3bdnHF2mCaZvwsbhNRIdzds+XDDjvt5G+eMvlzcaLVbpCPSO0n3whALrtSYVPIT0rtI90nvJv020qeSTknvIY1In0Y6IxU5HZA+g/QwDLH9Sj1IKvwukQq/I1Lh93xS4fevSIXft5MKv39NKvy+g1T4/RtS4fcCHYZ3CsPv1KUN08MXCiAsv0sA4fkiAYTpdwsgXF8sgLB9iQDC96UCCOPvEUA4vwzAdPV7BRDOLxdAOH+fAML5FQII5+8XQDj/gADC+QcFEM4/JIBw/mEBhPMrAUyff0QA4fwqAYTzjwognF8tgHD+MQGE82sEEM4/LoBwfq0AwvknBBDOrwO4Szj/pADC+fUCCOefEkA4v0EA4fxvBRDObxRAOP+0AML5TQII558RQDi/GeBu4fyzAgjntwggnH9OAOH88wII538ngHB+qwDC+RcEEM5vE0A4/6IAwvntAE8Vzr8kgHD+ZQGE868IIJzfIYBw/lUBhPM7BRDOvyaAcH6XAML51wUQzr8BcI9w/k0BhPO7BRDOvyWAcH5IAOH82wII5/cIIJx/RwDh/F4BhPPvCiCc3wfwNOH8ewII5/cLIJx/XwDh/AEBhPMfCCCcPyiAcP5DAYTzhwQQzn8kgHD+MMDThfMfCyCcPyKAcP4TAYTzRwUQzn8qgHD+mADC+c8EEM4fF0A4/7kAwvkTAMZE/YUAwvmTAgjnvxRAOH9KAOH8VwII508LIJz/WgDh/BkBhPPfCCCcP6uPx5dw0WZs1+pupWNXzRPftNbb3xdnSXs708meuHezCf96xdFkS2m9dTQbRMrXNrClPJ/ry13Jj8Wzw4/r92Y9Q7uo/I1hfzBRnhfTRHd1piMhavai2SCcHEy3YeFFU7w7HBRxB6fbdQnC0CAoztgl8VwL/ecR71B6aSYdx6eMdnv9yYMRoLeL20K0YBcfE6+1P5j1hiOg3IDxRuKI4L0eEk0YENUCXpgN9kwY1BYtHg63OOfSjWXOkCIX26y7hFfeif+/TW7jnU0RBvDy1lR4jmmZ3AnTGeXdYCbpKqW3RRDqucqbiDc7E2ffPxxGwy0Ep1WOxF0qnVb5CK8/Ujt6Ad7jaGcy3VO7anFoZuylWi0ZqL2Lqz6WroNa7o1BcoCpSJFgrrIY3Eu8X6Z2UV1NPnt/co06YTG7k4NRvyT9q/XGIOjPDdMJJyEq082VSKoAnNwxsjWUbkpfodWpfRnpqinCNqvTg73J84YlWmgS2EbGi/rMoVGkl2l1DUHoC8MxpyVpeXPYnzEwde0cdt16sovqum1pCWdZvTmnrhdHuMZclVFQ5eUvDo7UWOkdsNXhOK7E7AqmPLwwoHc+JxVy1n1+vspJxvnJeW4pyMF8aMfp+b1Lw6jdu0DDWsC6SA1dj1eXiYXbxq/d3u3JkWIwjaDQSc40VCnLkL1I4MbhYEpIdtDuMb/qXZ72RyZOa8J2W8w6F0kjeh+xiej8hdHR/m7E7qEX+sllUMTeoRe3OGJe/LaDiSzeN2l9lWWzQQcgocdLOwwmkc4rtV7e6Y1GW0TkVimI1Fif2EURpzR2sTi5BJfXar1CDuj1vj45S4K7nICn7oSYV6ccftBP5Ht6NLkgFwGGpD0pxWNv7OxEgxnWRy3rM3vDOPqX1Lt6jxz8beuv0/qaPkezw0G/ajrxBl9fW7aIVM4n7TCdtPSctLxUWizhOWmxmOakld+hL1nhLFwui0U3UnjMSWDJ4TMSWP5/kMCJ46Nd6dvBVU3/Ge3J9UwflJfbInLaj1SfA7e1se507u/GdBwa8kQZE8YsgrRSlHaaKAS2JIb9YbTBsQ8SggG27jmWzqLKF504lbeE3bMnUaT8oFmULCQpOw/gC5CMPie5QrQNK3KLmMnJdFDNXERiFXeG02iWyEXaokPZ/MKaTJ7yFrcne3s9hlC0O04aithSdgUxaMYgE2i0gPYvZ97rHzp7vHC57VksJ8rBVjUl3oK8NPKKmcvO6LQFI3Do7rmKWB1kZtC13pRJcpLOdssGdIxWSU3J1AezByeQu/EgnD2k/3wiS/yTjOpyuyBbNzc3yETLxEfqAa3Do72tycixj0yGdtnRLRwziYSBR5hGNoqQvg9WEQ2bDVMXs0UrjVfgeWgCHPbB4V4SCkBWa4OxbG9IyLU1yXLWB9FglTlfE7eDcRyNTTBG4yoMd3Ya49FRC6kf9kaG2i9bPa/s7R3MZHRm97F8vXm+ZJz18goRK6fSp5eMH82aDqF5h9baFQSgjmDQk6yoL1bXwJU+Tqmr3xrsQHLRlsbMWUimEEJvUSQro+8JRsjfSV1WzozBTQ72K338WeWbGQJ+NyvGSprMQxqfQDYLhkT2PVotxNnQcH+fJuyZZeXFK3i+udBxf7jiuMGHKd9wjaII/xeKBiIQYVf6/zfKkAGUH44IV+GA5voPV97eHex9hd6EmB5cFWicDswEhv4Dem6SUrrmVJwfb2EmmY2EAi837a0Rtzdjo3DijJgtjalrgyqJ11DrjQ/YAY/CwYh1OWApq9wwKk6mfefAXIEgHx1sSQhziz1IGndjWEj7Nq+gH0FB58oCCkRNZ5KnkzJGA9sxfYg+hxguWUQyy/AfEI/FcnnLOzjQ56zqRqYQEeFEH9rxr/dwwAmrioibvWQ5R5z+2O2cS58fDXFMp0ey5tuT0I0FMkFwQtcLWNv9yXgwdkto8WC8M5LbYrn0y7JcGkaduMhIZtl2uxTXr/Xw/2PDtx1jLVe9f7A1Gka7MJOGpbvtSXvQ26um3ZNGvOON+BXONmLIY80NZzLs1BwJq8ZO+CA9xcA4YrFiONdzXZg3NFfmu3Hn/xNn9obeKMzMSFzFsrbvi5R3yrj510lP0C3j5htvAIvvT9kbD+RMkEv9/TxJ4u8vRPvTQa8PxWK0O3kQWXNSKQ6QYF/MM+RLlscGmxKu8LJpxGVO2Mout3LJASePHHCqLWcIs6lWxjtymjNd3VC6f2CNPu16KOhsIgXlweFwO37wEN+jSIDMPMrQJUKWJojrGRxXKxKCJ4/dl4qt+NjAzuIql0qbXXMo1scawemRjPo0Yo7c7shYkFqlz1QOd4Zs7yg9tSzPz7CGG4gfr7Dp/IS2MFBLye254jYtvnrTAiclnuTiCzif+x/GEVPmXDYhzjtETL9gHycCLboOFHGtL2DpxdFiKbDh0htaSUYtF9TcZtlLZbnYc0+c9GUM7BiSmgQ/K+Vu/ADvcvICOorzIwrqeVsJ2nD5PKJMUSVRE9HFeo/jrJGhoVL5emGD2Lu5plDcLbbsC0IdbpqAvydplzsRQ+C7S0ZzhZ8LOCNLGALOTKdYLSji95wQqLC1Zi4wCBI3Ydtt3tXduBuEZ2uGHKqxDBj4E9HBzg73V1iMoRz7TNdYlNt48TPxNWbEGZUfHV4QO2NOY8w/2UrZrJt/ZBWRaxzMxCMVw085Jo7pwPMTv4T8IhSrE8IUoXlqhd26GIFewqcpbEWT0cFs4Dw7jNx2dlR/r9UJ1+WNNdek8iqr3XoQuIvBQnWzcD4E0FVzTpHXN7EpuId9kEOk8rDhyar3xwd7IfaCiYgUvryzEYQbIosNZRngxl44wCpOXQ4nmX4xj0v7YiynY/V0tZzh5Bb6CcvN5VYiWyo8HOpkytVhTq2xn6BG5uhLV7VlQZvxZu43sYwQPIgtYtrMO/YlhZWbc9vxoWQXNj5xKGBbRCA3Z1al5cUbCddsrcY5wXjuRbgfrK7ap2s5LhMaLYHy7q3SAnaQPcfwy+yUti1r52MHwm2P8eYqBMw0YxXNofeRYFyViBmNrQd5TybbFrnLYAwvywWBgzCaLzPMEO4Lyt3N9YAVvV6plruN1a4t5l6vGz/KZ4Ss9vOuRCp6hel20guOaAixML6AFAlJsQNkst5wjBveMoaerG83nSoHP+oeTIf0UPeH0f6od2QWw4o44CZrdJ/+N0cHRFFca/smgySphnNOCIMKF+1Am6asNRj1ONvu2gq5fYO0FfYGNnxGFTfVgLhXZZwl6yvlagej2VBaH0xXh4NRf8NOBRO0zYJC9iiDzt6SczXOAOVgUutJbE2p5LWPex8kBpvEc1bZt0YYKBfb4XxioRekTnfugn8xaSAY9/fl/IcYBg6UjZRu4J7ux5O/xV257ckrPOUnlQGwFaOm1GI0GXK7oqkGiaUVyYdAUo6rXCmXq+atFbbT6DJ3WjHKvtmJXzzZqrWh7RzNRCCFyyu97CpMqFEDTBhajFiCarGxaS0QC6rgRMPW3LI/Oklr2WXoJZuXufNGVYF0YTx2+yoWjwjD7MhS3+QWq/C2i1VzXWleS3jJg0Cfu7pujM5JJinK1wr3JUXsm/elRYuWZVK6VOLGNWh1uS6rdGSxLCfm4IQYCMRo3wSsmBw31Ws0lJ3yk6tA3dVCrWIeyZ0yWXede9pkNuPGz7BQg7QvV1WDNprUlSdprGAwVzNp7NQp4hqLaBbK7n3jtRZRs0/SrrM50yu3+V3fkMrmUviGUqPWRL0N/sbLha08PRN5v5b5TktRhFFvayDxH71vKeWg8TrO9ylRbdCTKLUEc0SrQzHhKmfXjkrWjHaryIvXjn9FDpyKjaHXclsg7IC92cRBfow1jbzBU7nZJOzt2Sz7rzFZDaOuYk1mnPxR2wX2whi9OryEvWATc95/bXI4cH7oZNQ/Z+wR0QiM9WpiiL0M7fqQYPj0qEIMniqRuXKQDlVMp22+dMz7x70cjER4pk8m5nYRAze21WhvJ21qRJkzpxLnutgxwbfc5rB/YcA+weLEknnEcUxdmgz6Q+JsMoDcbIidnPX29ivR5On3cDMKaxyLKYTCmUEJ8aBfkGC2v42bHmdyUhCvT78cyG/9mCK1uV5pB8VGoSXrWJtXZrIuPHazi464UG2uyy2yPOgSlQbS5kca7hdY7sDuqOuoIEgVosHYofg1pflJSpzzQowFWhGiHGw9uIuuUrHDRkeq5wjs4HVkMuod6G8d4RCQG7NheC8xZ1QRlKQ2nP7U/d1eNFALyjOARd6zz14dv0V6nvIzWUvwtJkM4QQqR2pRTx/bmcpLalHPGEZNe96U2AA6+VbN2YyD7770GNp3e6NUm0zf3+SpF2SRTsXUmz39Y26H/C3jFhQkkCGxhV/W6n9bv4MtZFHd4UDbg8EwCic7M7c1hlJEN96muUGYjDv7fSbdde0Xwa0OR6OY5ifIW780xvwUmMahPWBKKptEXPYl24M20lBf1lwtm2x5brC/FXtEwD+nkckV3KEXeNwiZ4pS3+pfNNfKx/yjh7zJ8zg/hgcsJ9RgOjA2x+z4wunP2bgOa5PJeDTkGmZ0FLfwSbyZXSKBrH83XiT3AIFwh84M2xS8IS5IRmzQPxOjnSeeFLw5KTAH8LTgZ+MCccZT9FtidKY/nAtsNyj/NR0ZZB+kkBBOUh+0Ajc4SxiX/GGmRDosuA9lcLZTgv2jDFZ6JLgPZ05tzR4WJlI/pPVv6yv2sJiQ0sv3oB4h687GGNGJv6bbcbZp9wvO/Th7DYlzReo1vv5iPNfGnUwn+6NaPR9uBju/gv4VUFIhGxb69mzBBvytinyHRSdWOKNrH9Pq1S6eNa+oP6AP4tgP3LONvJErPWx652GKPxuHlxCTmIKPxXkzzX8mJxPbi3NmIX8ciZXuZFB/HtMNEk91hft6e/FYmq/05ZSLCLU82InUlz39MjzbDBpRRuqfPP29nhugDPjntfq2NGsNhEwFG6OTm+AldPSvJ4dmnRPqsAVmAN8/3zQWiAsW2acj9c+efjnxEQKJhemgeLDFZIkj/otJRCqUsBYj1l/ScygiXZ/Q+p+NQTbHubdoNYkztov7cYWqbJ0qr37b20u3kV/21L+Ya1U5OrKXXx/DtnIF0927MO3t74r1xqVYVjccQ1nCswk2ftG5rG48jrOk52YsqwKX9NmfLX21evQV0LZCOynZYBHIDY56knrMZUhL3BF8ia1I3aAeG8O2aEOymSujm9Tj5jGWbBNfIb4To2NpzhZ/i0iozibFFfXXxLAt+lbDTpTg1Vo9Kc7YsgecprQdVr1Gq39vJM+BfdgbE3fZ25uMqxLMwX+ToMW/mSvFW7k0O+hxakwpXsCCSkjKQ1bhQMbB5pel+s4sld0RRV5ZkhdmSTAwcmEP+ruy6BCvhyV2/2A6oehF2aL6gX2La98B76vvvkKh0wE1VS++QilXScYPUTP1kmxxSd7pHqqXZnHJFnZJfY9mZ8YixcxH6qctZWIHPgBFj/HYC8xb1Hs88WbINzkfI0/DSKs/jtFV5EP+Tzg/Xqoy9RLM+St2QtM71pxzjD49jzLOxzs99TeezFIHR7FqwkZxPxbVH+jZ5ALRgH5j3Giv4i4iqYgJ1H+YFHDjNlfyIZ3cD6vf8NVfaTEWwu0hX300VR1BRepVWr/INF4c9odpsz9qcG170S2oZ6lXM9RovddvtattyhjsG72B3K1WODLLFYz6VE69JPOAZcGBVpGfSdj8ojFPixay6G9I374sOdAWPIuaSTh8OcnYwm+MMDUcu1cktahvIkCYPIw5mWRs4XP66CC2jSkfcxV/KpO1BIU93Gn6dpWkFlUWsBI1bDCRsmvmEJZoVXDGIr7dU7+Z2cUbdiwM69rLkLbqGuaDo1IS3bkum7ck65HxMdz7lGV1SzZvSeoWZSyaerR6ZCZrCe61GBaEeqy6LcnYwpbNm5+bPl49Ks3Z4nAHxyP1R56YZm35/baCRQnFV2URluabB8bzidQntf5aB9uSbiqYkgtn3nkMZQl3pN21wWRvIHdp/6z1XVmEpblgW46RQnX3PMrS7cp1P0sWtZzsVwc7WMhU6oj4B3WWoCWCPkbxQylFcTKbTfauwOWHj9NcidErU6K0ZCi74z7KzppF537kOE17gltAaUryKhMWwBVmmUbYe0aN+M1K+1E5exa2jgW1X+htTcQBYXzrxtkA95MOZ3uboF/v0DLEBPlTDmnGlGDf4LBMLl48ii5L5k0OSVNWaRn2zzicbSpBv9mhpakE+bMOaZpKsG9x2NDMr0VjSrNC+Tlvl93KegOJTGbqNnXrlfBWNZqR/FxRjIwqKsy5y9jC55m8jAtjTx8uZvOWZGRQzV5ftg1I9rJ5S0KDoErMBKbHLFK1qi4Z5NkD+/PPdXVk8ra0rD6sTXY96bZjSAN/bIuw2saRSQs+YguIWODanVV/YrPWGyH/UZtvsrOx5YfD50uts+pv59Cm/Qoxlogufc4WZTtui8rq37ui3eGo76quTSfym6W/syWuW2YKwf6HOaxVAtCft2jDxvDnEn4H4XzB4uO9myqqqr6PIxTIFp7pNBrcL1N/iUn/fos2v0etq9+xOddnN1O09F5vbzhm0DixOfW7sl/HmffN1TC9QEc4cMxUU/0Zl9PhGN1e6+2xlnpTWWAf91Agd5Uqh2DjsH+vLEh7qxlKfD8peHlaUKSdC6mdw/R9n05ZGbfgU1r9WAbXphZXtK/JoMrpbe2Pa+J3jM9Q3adem6Fq4hYMpoeD0Fxl0Olf4UBBkM64IYa+pd6RQcnPalfUr6Z9JXYmV7Of1eqdmsUS32y2KVJt9euZptpEvyYHMsu/kaWs9cjwv7FJv6nJxCWZEbxbgjTchZg8uyxTO+rJfd1DmQZC8y41RMlmBfOWVYzMH6VdraSsI/Xzvv5MWmSmAgmZAJ56h6/+h7bXG8arfqmnP+jyEiHE7bF3IC/z9F/EspEjPzzUD3jqH1JcwDEczH9NMVVGak7ruExcSSZ4U5utl334v6VY6lvcP6W4ElrHZJmusq96+n+lZeJ7JZcEr/LU/84UMUz1Gk/9N6+XxHUjbLj+L94e6oF/KJ5ghN+mX+BzQj/29aGT6r9og+2gL85YLKv/zryYE8gVnm+9XRMgetjiDRYnPVAv99RHvDGL4NijsrdpblS3wXNluH2xyiZ3gCOpXumr7/JGOK8o7uFw8KChfZ/PWE3nnE+Kq6sZq/OmSwhMhpbsRj/OFWt/MGmiQlssNfUbRLhkde/tG3bv9dW/i+vSTERMT5bcp3PqH7wHTZxX3rRxPkeIAyyG+sEMumQ/ZrHIxFhk2UogPNiaTQfxty7e46kfduWl3jYHoAIMI2aJjnClY0sq4/2DWXK7+DJf/YQrkG2euzQW4uscZn1yiBUzavWQp/4t1mjT4ENs/0WRO6P+aUQkCwQxuG5w6W3JTHVI/s6xqw1mvb6I4uW+erHDBYciQ/VSX7/EYZp4FuwuR7XB+MAa/B/y9fd4Zp5bkwdjqxypj3mEBAwae3awN54r+RVbQgWrVZH6hMdhyCAt+absVAb9q0QJ3RrGZMlLKuZ2Z2gu/GUi/utl5U1W1XB7uM8JLyb6Ry+SknB/gL2e1ieiLSvqu33z8ApT/AGt/qclaQvGVPugVv8rgyPAxNarXuz3hxKL2KMVhFPpY8b/I3F8OaS1JpMZ2c+7bDxkWvoC17CmVtWUyBW5WWF/76kvxkWOodm6/sFT/znG2yrN3kGEufxHjzqEs1kX5aFotEzhl60IOGoH44O9VdY9eqVe5av/aU0rBTKiuODVvvpOwlTsaajsCQNYZ+TZPfPVjzHLFa6n05wtLsrCsXtUMJapEut95jKkJS4NTDSWuTLrsGGfWlx9OdaSBxG2sILZmprHqZiZm+Yxlqy6N2Q81SEJJDeTuJwtrs3EdKELF7HrEDwim7ckjS0W0tx3cp6oHn8cZ0nvY4GgSFm/EH/xCZdjLfl5Dv59oujmwzK0p56innwMZQmfa4UQEnAAF7F36K+bR1k6LA2RKTMJkTgkz1RPmcdYsq2RURCJHBNr1PrrM3lLsW2fHYsOEBRXt6dZW97fQc1Q8OgioR8zh0xVdBnSEmPRTNuTVeZAK/aQJGsJDu1Yikjd6kVcH+oHJaTI2vuS1i/TSM7opmgBZa/QkXFI0h/p369+ku1ADjnhHktrF9Ewqa93dIQ5ImIMW+pN2rbYFuFE4caaADD8BUfIRDFP2+biBZmqb2Gb2k5x9B4mv8SFH7eQxt2cDsbx4lrhXsdySYzyCz31Lt1zLzZe5KnfiTc8G6IVdNXMwIbb7vLqvXpMXaJkZM26/6JWv2sCsKNjz9Q+p9X74gLxO8SoxQT08vfislS6FZEiIxGCv9Pq/ZdTFNLHYF/Q6vcNAcphbjcfUH9qZNHDRZlygSNydPdPcpQqjHFHZQJkc/2k9bxL8KRJ5CbzcVb9ZcpAroCEw8Mw+JS+ODgifHbhApJ9l68+rQ8nOJKB7DLN3SnxVeT9N1p6Kvsi8Zjd4mBnMsXhJDonA3xA/0d3VVDFH4jYqPR/0jOmW6JtInn1Wl/9ZyaEju42uEhgndJRXJAJdpHQIzAd+W7ciWiWngBeStxqa9A3DN7jq1d4BBJ3awMMsEG9KodDh1IwzzLLdM9p0ns99SNeNNzbH3FQi5+ENnvjwUiG+1qvt81ITMhrvV2ryvJ4R0691ZNgWwuLo96ZU7+QIaq6a/23eYdCAsY0/+YcsaQYU8LqHOwxMvGi99X7PfVLSZkcTotHIXs5JR/y8HHiEsFRGKm35PQ7s1j2vvdp9WsJqjUgNoAuG2V8TY5LiLhEumKujfCjc+rXE3ybWR7XMRV0/FMJNtye7EP5tpz+a7Yadt4jVOQSbp/6nGdu8kNzK88JSL3I30KrmIiNuC7d6ku3/od3rAT0Z3NccnBfw4q0ViK4xFbSl1JE/p3+FEMRk59DwVfUC32xwpOdnZA5O4hENh/Jqf/gsYVSL15cgv6Up37PoWNvSNCf9RDz3pC9WAgtF/WunPp9+pG51aX5D3joDFs4nuNbPfUHjJyjHC7TjtxDPZRTf+pZzUR/jBIznoc0DtG2WJ2WDS+n5u+9OfyfqcVat2BF/YXXn2wT6SagneX9npz6S3hzL4PYs08amHFPf8a6MQXYHlpnpjrcssL5rFHGwmw2HW4REorUB3Pqb80ozAyaoXw0p/4TvvEe/lTyCYlv51YrRrlPRnyH+u8IBAXiaiqiIaZREfm3PxBN/G7P77F/7ZOlUO/RUq86ke+XKI/jgpGiXxOs9BYhqGV5Iar4r1nohPLkQLcba/JOQfDdGOnV7Aeo/E7dQTlHJtlugs2bzyCvNlqb9v3EgskXC6VzDrFoEOap2RJOKC6vcZStn+0tIG3CKkN8F8J+WkfGyKWI7A83cedWE2orjBy4MFPFYvPDqGGr2fyCbbfsdpW5Q4SH1DEWHIjlkQGW19hiQC/z1k6UNv0Fwvs8recLA0qOYHXRqED68i9eN2Wn+CmPD8DjWGlAEUx8OcfZq376c5ihEbuV2ANL8UFP+RtzGPXoWiWUhyfIWx1/6qXlg7RrLflKc/riykuRlXrZvp3y40dj8cutnH13ldbKW4R7pxW/6ZYPIGew9nnU4jwyfhq1NI9O3lAtb1TCSrEqymUfpJULbXl7sxK/YDuZvCc7lXyEV5oynegeH/PpeRrT+mVEZ1Ii248r87rqMrIrs7u62GiVQUiDiQivcUhXM8Ff6/CmxQR7ncPaBhL09eaza/V2Vz7FE7TalUDau8GKstToyEPNzCzdWKukTwZvkneBceZmKUkEeYsUJblHmEd8yQO/W002fhb4SJMz3WhXGnVp/rb0Bd6jYm2U3THZOlO9/3BG77MkAeUof6LeYFmQbFnJChBqUA8orwRktz8qZnh/FN5zZQEFwpR1OsPr2VNvzwk/tzjbwpUTM3af83F220pZfhyWD0sXQCTsh316lb5wvYy1+EiQZ9h+8jK2jiaAIGUZgcTweQWzgzZdA5BlWH0aVpeVBxSmbPZdgfTMklYINBiHRJ6dmedoqli13wR3zLLbddrY55LGMuUBhWljgiQEErcU02Hpxz3j0tgXmJ+BguMoVrnOjJl59WfENjmgskF+3lO5Q2IKJvMFT+X3DiK2Rcl90VMLlnU7Iff0TODqYHyBaDxW0xJsxBw83OIZjh6mPS2tJSzZAiY4BGXpXESnZm241SJIvXI2YpAEGURq9rFe234NTTu6bMRBx6/55+TvCC1DF4IQdjBR581aRoUzb1Fagx3l5cfIyJp3ut8f7NBX1sHzJ3tbw8Fqz/7kvG7F629nq9eTil9CpNmn5PnSlelULjW/Kmt+tfxkpVUps0N0Q/MV+i7doPOV+nrQqmAvKtWqtRK2wJ9rIX1UwxYXD8Etxn9BGVjmGybDJjdfsywiWLaiHNtBEp5Bor2RrUF1n608Gx7K7ZuZcNUrUjc/k6l7ga8WsmJY3J/K4yyOIYZXhHOrlrJ9WZ7ri0V7vsQ3LIyFkuOSzbxa299w2BwqPVe5LR2Qnz2ZDy0Z4ZLo+EdHCBIzXi8FXfklEIj52s1jHUVrWZTiypvsitZDd16SX9Q57It87VUy6Hkm8JhJn17sKzlIIrevQNwWSuVlX1gr+osvKN/qlv5q62YFcvrEQbBfxnSf2FTmF1mkWobdDcoojH2c7xXabF7rQRndgUQ+KRp27Z+gkGI8kQ5bm7TUyeLdY+H58K7y3XdRWZideqnQDgDtu1v3atez1VKzNPeTDQtvcLhGjQzKRWnrVu/8TZOT6SBmlcRsrWgWCyXZEGlEhYH4VG0zren8ltmynTh8g+yGQRWHwpQ67xooT1dFUs5rzTbGjR1HmclUDuLouYd3bAC6PkMj8UgB3RCz9aSTrKF9h3KjydYZQmGG8Qpf+cNtwzNnuUfqB3ydj0zTg37D4ChlGbXt8xjWwCKX/jsglzBGbGlctE722NiYEi0riH1+7gJCXdU+3wzCUqtivmWmSk2ZNO0+8eWVQjGE/tnCRiGhycmBnzR/NjQyXjAe672CWmyeb68b5NKaGNLl0KBPhJsV45SunGvIo22gk61OKJhTxYL5WN1pjjzy0VuzEM9UxPMnfBZkYr6YPfsaOy4sozVxIfsOibGbBYJS8jHeh30WymTtOyRysoZPVq3XxnpUCZ4IY+XlRoBoHty2DjiR23uj1/nMELsKfo1IP34vKG/nB/UDIi1TcrliWkHljPdoVorq1NOMTlx8Np1u1X5Tzrd9GNtThndiBGjYvBHDEMlBDQuaVyeu0AW2Tgk7JGdsDq4M8E2+Wu7Po96MXs2jRKIYirf4KtefPDhmW8R1SxrLo4MRshiMt49S7IKIBzFPZw0brMyrRXnePY1M/xs7VcrRuaWyPevND0zPd0D6pKXUjFXljTIgDuXEFYtHJwKMMZ7xlu7tNIyB8deDAsVAufBK0lDxF6lV1Xx6TrfMFxzxBebJPFusbDE+RbbYSQsLXbMfkoZEBfclcPo7X6GM45defih7n2a2qPxW1MgWROqXfT3/07KIicUFlU8R7UHsjCACziecA8PFWxymLbRBc0XN3pOg5u6iUdukIHMV7bPdtNO4Jc7eZWHLPOFkNEAqiD+Gu0S9hT2JZKwTGQdFfjHp24Y7JrSNU8lcM/D3sDmXJmNiLzDpjQqmF7Jz9hyEEDjxOwLZ7dOfZBcMifJuSbshThJLE3GmuDakagNfNsFkR8mVMDu0oblP5VIa6b0dUGaUoblYPHbzLj+tlatnyg2blvwwNcbYdwRLEk4ZXTG6vXx5lPxE2iD7O9fQxJW2pwT/aGzF9neV618pV8v6JOtn2rMEbsVtqVMzI+NY4kYkp+dxG2Le1Gtz6oyZMCfMd3vqKti55lu0PrOxrLjH3GdhIsed6agyrg8e5IgE6pp51uptvrp2HmVWN7N3nWksvDjcb09ExMj3+gRVPCrsmRPAsroBEdo5j6imb0yyqY683dc3HeuqlUKmrzcfI6jEqn44SDw3CVvfkihVSL/lPqppnhYQ6nEbMYHkzDP99NePeBxulZS5qN8eYKTOBefjnyph2M/V8Sc499cJ11Srxgbp+4qN+7q4aMBeM7ybxGcnbJfWJWZALncuXXsmZCX7c6TyGrU2WNfWO7EW63TaPnP1vAPzIy3zoJ0J92qMjj5ai0dT2b870Wie75Y7YptiF8wSi+2QynrP5gf9DhpY6cPXS1DFowTp7xCLPWc801xkG3q3z2kwJrWEFWR5RkyDw8YMLH4xYH+0NxHeKTeGaLrdMZA3G85QKVqaxR92swW5B+W+HF3J79r4LLZnIIzaSITyxYS+Im9z13uR/BZ6aYf1hjZlceJ1HaLlcvV1gkvLC0PUTPYl8isIPjPxJ00LG9byGgGcQmPcgwrPPzCjAivHWbQodIFLQXEYgDAdOyi/yryxxpMXHt7SgRmbjgctHkncNc5k2a7krji+/BXGtzBPuenkdlxAsRSXNuiOXGnh62z3xoe9SG6NBu7pJFvGPreGI9dtFo9n8uWBLDQTBbaV1qwW5mryt0/Y5rZtNPfJSttyw7Q62e6Z8WwpL4MO2fRYpfZzXv3jHC2ndfPMpYVBpPoip2UC8hc500PDEXzfrF+4hsdsgnmEAxd3xZmYTK/NxLO08J8PWVASqzefQQFy7erdyYxA/8xlvYgDmINjG5BUtrOZn9ico/pKDJhna4AqsYmajF1ZzlUrYrD3OU/OKn35qUo+aTNM7WzBVLStmx924giv4hSii+3J/t4E12ybyLpoJP3B1mVsNDgUbh5nOKF6U3dHFuMl1IdvTCgC5ZyE4piUuHK6YCt4eculDhVcaWkYNZEDvRB9STKhqBQYnxmVYIDsCAR1dK5nhiGPaM1GHMnKYVbxc7DiCKgfSotYvC08ETeisrTjBB6pj3CsbifGP3HUsILpRYhqBQRMzF2KRjrGYZaebRGrsaPBGk7Y8E1jH8cVHQ8eTDLeZdNSlmnxgeIJBMP0DaN1S1kZ1wcPHhsC89hPOvcJCX3Ex/uZyFnug4XrYiVFx6JGzJHkTCv6eLNx98I5PvQuivlk0DnzA1T1WSy32L2SWWDYs2h+HbqV6/TS/DpCptjlzRkljGsguiiGqc289vHkvmJ9yYdxnZYZ4hZmDqxQNaYlbrN7xJWIBO64OigawygNRiPitBXBLCQYTrcGszg/p00zVOXLV7UJkJszlyoQy7cgwYBardK2GW++KvuceSGCZPYNFwQmjysvMKfymJ29KlZWzGAok0P0VX6jx2qMTMdiietRL5rFSme5q0+iVJejQ9hw+fo5TmdZ9jnUHvuV8Pe35vUwXgoVToTyvUMvMvSJvfPjodmf4jJdlzctPbpCR8OkR46p60SkPs+RZa6TxgwT903NPDd/MbdVkaVlyTpYoFIir0j9na8XKSMOZD+5QSAMRcDkIHB2HjaVts17G3IyScNFclwQ73vQLxHqQAOosj7Aq9sa9GZMKes/kHiYCW2pIrcySU532JlpVDrk3RbRMn1GnItofsyUnnrOKSSQK/GT57LEZQO1vn5edkWze76f1bxHPwfqA75KF4N6QC9NtmjokHFi7Jb7A3bsQd3yPIEtwDyYzYybaV+vWBHHG1ikPuTLZ0md6W/YSebWxtenaGpKb1fUaTNnMc26NQSshDNz+OYVthyqPyAnAEcSsy+LZDGpV++TS5UmUl/w9TXbmVn6Ip7/4dx8/L2vrmPZb06JXyG76+Ujw6v43yGzjRJpdUPGJMWmLVKf8vWNMybYmaJP++omyYaJFD/jq5uTSSmYrSNkom7ZmWwfRI1xG2JXV6tH7Cbz/w++ujUZXphudAXDtSw9/qivH3k4vMK29jFf35bIihHIA4NgNBCv1lKxypM50L3xZHwk89+JUcb1AMLUYTA4fUSWL9toyKQTl+rt7957MJgepeHSeae93ib+wb0hV7Lmz3vpY/UwAxFbr7ieddqiJQ4u+1gc1v9WzPNLWBIptX2Okpny9NYIxTTBMmcmUHwrRNwsxozYObUbXbduqkjdXfAssavbyxJszwx8a7BnjbW9p0HVcKrBm6w/AxKpLKocDRXl/JDHkZM7nkViSOhpi4WAlPsh2DbUDGxv31RejEB15HN5+PO19JII05J2gQqikRDRuFQAYsl+Zc7s1eFsso+XDovE25jWJ3scCez4vTmzMIxKorpE9aQGsQlXw3ZonnaccnkRcQyWOKTF6aTX36ZTXL/NUW/Py/1fMLYz+jpVL8iJt+jaUS/OYWTjhdzMou2NnHphTi3UYIwslPdYoRK9yTblsZ4NYN41OK1Q7/K0UeY4/49EmIfCWzp0ReX/J1892miQerHWCwIVexHGxe4/t8nlUm/kzNxib3ubLqicWookdBjiLNqS5Tjflq4+W52I8yV2fxoz6OeoFfOiim7n1UkDOo0l9mGyq8mx9LRtuNk7GiFqEGeiuUUjt6b/7OurMoNPlsSXfXX1Dpw27IGPYVxjuFdQNFYZ+8tR42AWiSjG2yNMNKEZ2dTQhWsNoTxaZgt6QF2HphBOwgCO2AtHnXFfzMv2RfWynL7BoFqDDOrGrVgvIvXSnL5pOti2ti4cfNvBAI1zMeVFdbNppzhFDXfxpzmAr9JhO/RbTFlA5IRwuMjtbZ56xL4cAo7G2wXmERME2a3JJwC4AhyY44l8Z/eROKazI3lGWLF3eVW6xAgetT0a7m/Jj38Sa9waXODfSH0mpx9D75CksyCRnf6X59Rjgyvg7RnFSf2Y4Tlektwde6JaFpdQZ1TX4iL1ipzOyTc1C/JKO9M0R8ALjJA5iT8oBcvycGentHsgUZSVlBUmQWvr6S0kXxWrU8zqYPc3zmxFOOUs7FQ4b3MVBsl6QfcQ2sK2cI8K5refqEl7F4UQFE0sbhHUE41CvdeHrLDp9u4RTeil/ctxy1ciXmNAMmUn9q+MX5HxxSuAe36GEI8Qltbuy6pljE4OXCnltC/ZorQnZLktgZqmhfo8h/z+lbALrfhJqVE+5bm/x1bukpj9S8V/w1gnpGVZdx6xJuB1G7/Q07jQ8HllDp+vZ7dtoTZIdUIubYNCHWZqtdooyI6pw7b8ZTQgr1CtmD8Yb6/1AOTDeq0gdH/tOV8zl5IL2WvzRfOMxlyXk1uSO6j4pn05br81sOfitB9LX7kfSfO2wXy2wYW5BhezDS7FDRbG9saKO6CHueFeUd4O8+xynEO4nOhFEmnPGX/V4p+r8oNL+1NsMAvXol7PTrHn7qXVG3Nss+7BpsU8xJ3NDjY4FHtsUW/i8l0altFbDNfr8nVIxzcJU6tr5QlZcvfq/hqvzWpmQf7Qon2wZC++zH2w+9Pg5YooCVAuuLdTqMok5usN7qYlR2aB22j5W+NG5ItJpsvlbUyytNYK0LuWKSC/nM1nCU/Yv2y1YqboJK2QnLKTV1mV3pymVt3+OdYz9Nd886xbbTTOmev1q+qB+3ro1RV60eq014XymlQiaPYgySTieV1OyXt+hy5MLxzItmoi34mm1+KZMQFhZtleUEKTrgZocNAMPlJvyKXvuFbjeaM2ITYcYI4e1NS9aFV0ReCEi8wmjqRhIxcEug/CKPeroaKT8xr/GvyRuGrIvT02gNpDMYt6bA0i/tfc24+EXphsSDtc+WiGbDbjt2Y6nhIElOLfyvdXZNuH+WGGZm4A5hkvcyV/di4k0h2IzpjHHCYOby9XOefPvwj0zLu79Imdv2ZWaE64yMMZocmbD1qaLLmFcF3+hrXL2fXqMksoTcN8JXDZQt3YFpyw3/JL8isuHxuGk+lLvVMlxspWPetdanJxtCPv45S/Gch3ZBWa2mogCEYybEjfPHvv3xttsMPg5jtFwCPScjEvL/FVNb7mLLTalZIxM1r+RrZdiV69sEHiF9wneXPr8qd68ut38u/C+l38u7h+N/8urcuf51lev4d/T6zL6VkEtZLcsZ5cbXDtKtAplj3LOwQ8LTRn1gV7FYaX5Oq5K9przJObazvy73W1oN4hvb4qf6/shrLgbiy3+femsoz45tXKWsfwuAWoVGi6ATyixvGI9FZsBskjxXLeFtT491EyC8YCPzqsMaMAj5FePRZRC5/H3cs/jy+vSu0nFIpF6eYT3WOHr2pJy1/dkgF8jbPHT5I/gkv6tSUMAOmTMQYkXxcWzJ/Se8q5ovTz67F0JLeHRkB3yGDuFMRdMri73Z9le2rR/FW2e4plmZmnhU1jop5uuvCMTZM8s1kpte2AvyFsdFrmg3bPqtRkPN9IPENG+OxqoWj+PPo3VepN80d4n1PstNtGLgX7igWoKP13V+SsjHY8eWVgK8NA1LiAfQRebXTaltcaF1MYTTOT6zVopFvy19CrZfsF7LPVYM2+FjonZrwlP/VQz43VrW4vu+4uNO2Nk23qtmKhzhIEKhF0a1YDpp2mReZlt1Ar9VVhELhBrroJXkNT5UPNls86AR0LVcKg0DJ/xPBs9oHPqVTdH8U669Tqia4+jvM1R2rH6fHlirwfbpg+PLGcfr75q2JBPVlqsh0Afp2dgKc4cd4uKdok/bwDN0d6cSdbiLT6VDQ++1Xwp7UamyRPJ4kZPwNYeJtePbMtj6wAnt3Gmyga3Sok06lL60HpHHeIwJ58FbgUGI32q/ZZUo5Od1xP8jGcqbMQ48T2iXgXk9lfiufZtrkcU5wISy2uLy12xXyAUaDTYbNST/p1hl6TXE2CEhtlvEa0ybZ6bbsVBNIq8HXMd7Fh8dfLCEhvEPlZ1I3SQdKbJLVt3mx6EgvrFpoQcsBHCFvSWyV1rB4pUsOBACwWuHMVunPVhsxWtVZo3dsxNWr2xRoQelYz42kY6nKlYImbCXSvVSzbvZP2shboqjkT9ujUEj3GTcljy6w8h3tCUGuuY1ulxa9eDUyA+WuwX3ZhP4nlE7TMHwz92ko9pBu21tfHq+0u0WfzpIrMPWFsz74BG8Pk2CdYz8LScKMRZ7+RmiLub5LxkT4n9rtbomlocfcOMmGcuZNMO87cRaYTZ+4msxFnnkrGqKpk7iFzn2RMH88nlv9+2UPs1H1zusN8i6xft7TJfqtMY9B1snqADXjNGJNu7dgvjzzdj/ol+b2q+byf+bKmOQBaj2eAbyCew7vxHLJFAXh8huTTmzuCl+OeRIFqE043Q6JAx0/Ufknc5Kb7mZHy3JfbVfrldjK6TJxRvLR5Yh8zWCiJ9bjCB9/JeaUr/uyJgJy1kMr8xKCd/klsbQDBSAkIr4B5TX68lB4H8nPHgYhy9/AUf+vYgWA4dnCe4JshLEynPcdoRefnWhDvyvh58vH/5GSD+jH7ADr2Y7yKmVLflsTPsHKX8cKFmwm79+NYHpoW34frNkdmfq+WzuqHmNXLygMKmVqvFyMZpuP3Afit9wiwZH7+FpPHmrCbLZePj11WI9OBD9OBgCCK8SttZE8P4jwVJFL/sSyNwUEUmfTj2SL6YIb/CYY/cr999JLSthSphUp9g01a7ANea8iRMGgbs6c72AVSr1ntrJmN0A/Ph9ak5rDa7W6hKb5EPrR61cRZH+D49xCPTBC1OX1DoISReeJrsjqY+4QZ08E+HVDAxm028PhLt5ahFUGOgNFop9JXZ5SeDfb28VAl1HWGOKXL1a33LyFpOvBJIpWlh4kcwc1GEGRuxqxgCVp4rMpMTK1hgzVbyjdRrYpEIiQq9fAhuFx8IKj0Gxx7LSxXGvJLYLqa/paFDOdj9MdmMzTv1cr7PyMLAACFlwt0VcUVhvfMPffmnfAKCY/ABQWCaAIYBCFnBgUDCkgiLEVL1Ig8iiEgJLhAGwNJECQiWDCgIsjDSCtU1IKERPEFgjwM0gXFtipFEiAKBRWWFOn+51zmprarZS3yf/f8e++Zc+Z1jhCSfBS79OyJ4fEjHpqcP3L0kJsnDskfPHzMqKGT+2bM7jeNWlIrEonUjlLIcQSRJEf4B08dVzRlfEEhBUTkk0QURbEQ/mekGdVKIkGmOnUiR/qz8yaOD/b6X/EtgQniMSRKk9gZibcXFI6fXpCXHxxZkD8rOCivYGbeDArQ/y+zSHAHsgOoJLgLcf6RwxpXlzRuWda4suTb5xcEG5dtDp7esLRx5TvBb1csPb3hbUosJRoYFJ1EajnRYtndNE13jZ9YlJ83neg68Z8Vov+9gjOP6AlO7umXoowmUVlFWrQsp+UXfHMl7XBKD95WGsGN9PRTIIo4IridI/ZwxFeZvjK+3iQiKhBPgTh+FFfr+MhhYyCnFs+sKych2Bk6u6kj4Izgp87Oa8eaOjJQrKIPk/BxU439mzq+kOOwU1bW1HFCjp+d9vubOv6QE5Dz6GhMUycQ+A1RkEQEO22TmjoRoZxI7pt311edqJATxe2kdmvqRIecADs7pjV1YkLtRLMz8KmmTmwoJ4adI581deI8J0qIX4yrfLKwro+v1aHSY7su+q6f0O+zIa2LL51e7UsI3O6Qf3WAYiUPA082rkQRFEn0i59xIv5JXhkJ8TSXSupLqeSjMppWVE7ZTjk1jCinkkqeEpswDaiUHuxa5v0fVUaLT7Tk0lyOJ7AoEWKOoLmCSgWVCSoXNE/QU4LmC1ogaD23uUfQp8LZJ2g/R0iqlCIguAOY8FEUc3XqeUuCsx42q2IB0ddx3tJoi98p1IE6UlfB9fgXrvjwhxe1oG7/9WoPwXONf/Aj53uew38d/OHphtaJKgW1p3jRBhfbURe6nm4wdXymToSIomiiNCrnGoHYjbwaT665UVekVSsfYO3CYkXUXadXpypfcm4HXVS33i2qi9G5hc1d39qF51R1Q+ea7Q0fGPUdvO23BpJzxyoTUZHWQiHl4G0H3FCNQhdFoaYVQFbSDwoRvElok5Jb2EWjRlZSL22KpldnarQCNc0C0A8TgY4hBT01NdB1FIWiFRJFdSmGfIC1C09xgURd3eDXvvTqOL7QmhOJczriwnFO7Gbag/qykl4xcHJNOffIRIxWSEnOzeDb5RrJua34wim+q1bKtAIoqlvAFzI4JUeFUuK5Tjk3fcQ1RZNzl7poBcoRxw2gHybC61g8hydyx7gGuo6iULRCJbyHJue+jRSSgIq0/pohgzsRgpNrtiuZleR6UN0gOdNYwauwjlvdqxiCeATEwX4P0qvnc983wspQ9xc+6gE7XlusRJ9KEm2cm3TWllFaxslhYXh/zyu1EpYFWCSWJjt698yflfwxNTMMx9d/oSQsC7BIJP15kVpe0FvLU103hyHzywTtAKbUb1dvrZyqEm7orW66v9rdt3evK3tHXu82XOqunI+DPVXH8kcUinw1cp9RpEoAivEJ9EylIdl8zLYwIMgBLC84qFa3PcPtPK7mt26jSyZnKjl4YSzfy3nXyfzygMp99laFIi1LdxhFqgSgGIkXVqxwp9QPQLebawuPutdpCcsCLNrGqy9izp/UrQ+uV/K7J66EofmYm5WEZQEWif5vD3W3nq9VMu3NXG3h+PoXlYRlARaJ7mMT+BncqWTM4UHaAjdfKxdVpoVheN8oJRFsAcFe3x6pGa1Nlywcm52hTZcswCJRW/i5+ueGXlpeOXQxDOcO3qAdQOKmCJ1y3zp14rNjauv5y+64ZkfQ10/cxpyLynlt50L19C2kUSTjxpZGkSoBKEbix9S/GJIvfUTaAoIcALJeffFajSozJuVolJVlO+7QaMgZ1yxZo2UUQU+gSOXJ6FUl0a1XpHru20wtN08fqi28trOHlrAswKJ6Xgd40Flb3vLGwELeN4txX0NdC7BI3PVOBxVz+JpMebYqS1v49ZIptRKWBVhedN432byUt8wIw703Z9SYIAuwSFwqPqU27BymnbNVXTUApW+6v7/RddNSYGRpPCUEjHrnbwoZUEf2eMoARh0BUJMBQAkEoCQyoF5rcBxe6QYmTpjAqzLdqMkFPD8oBlsBLxQyuVDnhRVtNCDvm54aAVCTAUAJBKAkMqC0yk/iVw8P4AnB+8xbK0eG4Y7YuUrCsgCLxOIPEvUjNa207LfgljBMbeHTEpYFWCQaLkVhaWi59XxKGJYXPKckLAuwSDTm9HOP7u/rTT0Ls0521RKWBVgk9u2tUHWd2+Hp7zSArQW3DZ198oRyAH/8ZItCADYRZECdnn+91sDLZ6pcBEBNBgAlEICSyIB6rcHhZ5lt4LF3O6r39wijJhfwQPVuM2l2DdtqWoM6R9a+YWB4390mAGoyACiBAJREBpQEduHLG3K0/MOQV8LgvzsNgzM1DLD4/e+wj1fIDOUcuMAHNQN3AeNsdPTf17voNPaxGgSw1iIDynPpVQXY2P4+aA3UZABQAgEoiQyo1xpOCAebNEBFV6o7H2pm1OQCeke+nomA7y+PrkEG1MEIArA/IwBqMgAogQCURAaUBNXzNo5VMutklnaWJn9k4OPgWTVjUi+jywtaaD6cznJXTygE4BhDBtRh1wDvAC4CoHxNOwCU4B+mJDKgXmsRc/poh2e2AWzc6BmUwzUPXBQXvaQQgOWNDKhzT/xGAxhmBEBNBgAlEICSyIB6yy/jxtCqsxAnf++tOguwSKjoJD2wTwct+aQMw769sVrCsgCLxAPV3tIyq87C4602KQnLAiwST9/yIPdpmZIb278QhnXTXCXrOg/gnSQExkInLfDd1EqkW4BFAvk4200h3hoGmHwL1gJQPb9+Yf1dOdRPy/dWHVUWXj7TTUlYFmCR6PTGm/A0H7zXhAHvKBKWBVgkcLJgD5M4vyw89u6qWgnLAiwS2zp8zB3gQ+7o/iRtAeexhGUBFonVbRP0okp+vhdHXRMG2SOiVsKyAMucbt9fzjAjKn8qviMMH/6QqiQsC7Aw6vfwkuBDDT22wDO4lgf7HsxpD2B50YsqC/BmsywMWHcmyAIs/hR9/SV1cdQgnDdfG/ipONqcy9BH3WjtAOadruOt6mv1+Yg1ChlQ3l/TDXQf+6yLAKjJAKAEAlASGVCvNZxGzvgBDxh4b1Vb1SXQyajJBVTk1ysEJG7aZVqDmiUE6B3ZaAKgJgOAEghASWRAaYlDYsakJep3/+BjBpuABRy//AyXhAEWzqvuZvzl+AE6DGZqwLIAy5xX+tCIY0pObTEuDLtnvqtwTIUBFgneg13eEV3JBwXOMuWcOzgCm4LCOxRGfEp9O37JGow3nRS9rYNfOTnPHOZ34g/cNs7dfMTv4LcerwaJdum5bvYzfEQ25iRrCxMndNUSlgVYJLCL/3woWTs4dwBY9S+fiTCKlzR+urhQZQ6ms1XzeDN91ajDbyUG+JHz+qsyajIAKIEAlEQG1Gtt8/RI7Vz7xSwDc5cN4pu7pKAmF1AyuUYhoCK/yrQGdTL5IwDQsfy0CYCaDABKIAAlkQH1RhjLxAysBf5swQJfEgZY9CGvvV3DLqiyHfypwN8f2kLzMW20hGUBlhfd+Y1zyuwNFq4be0CZIAuwSOCz6bsntJZdAkJb4DNOSVgWYJHAwJuzHN9WFlJ7faIkLAuw8OrVx+wH5oPQAiYOv3H1CQMsEvNb32v2A3lkbba3ZwDMVgHLAiwvGu+VvDFUhoHP6BoTZAEW0b8A(/figma)--&gt;&quot;&gt;&lt;/span&gt;&lt;span style=&quot;&quot;&gt;&lt;span&gt;OK저축은행 앱&lt;br&gt;메인 화면&lt;/span&gt;&lt;/span&gt;" style="rounded=1;whiteSpace=wrap;html=1;fontSize=12;glass=0;strokeWidth=1;shadow=0;fillColor=#FF8000;strokeColor=#d79b00;fontStyle=1" parent="WIyWlLk6GJQsqaUBKTNV-1" vertex="1">
          <mxGeometry x="1850" y="915" width="120" height="40" as="geometry" />
        </mxCell>
        <mxCell id="GBO3RVmkL8M1SUxiBIiZ-37" style="edgeStyle=none;curved=0;rounded=0;orthogonalLoop=1;jettySize=auto;html=1;entryX=1;entryY=0.5;entryDx=0;entryDy=0;fontSize=12;startSize=8;endSize=8;fontStyle=1" parent="WIyWlLk6GJQsqaUBKTNV-1" source="WIyWlLk6GJQsqaUBKTNV-6" target="WIyWlLk6GJQsqaUBKTNV-3" edge="1">
          <mxGeometry relative="1" as="geometry">
            <Array as="points">
              <mxPoint x="2060" y="935" />
            </Array>
          </mxGeometry>
        </mxCell>
        <mxCell id="ct-ov6YF5Ax_w1VTzETM-6" style="edgeStyle=orthogonalEdgeStyle;rounded=0;orthogonalLoop=1;jettySize=auto;html=1;exitX=0.5;exitY=1;exitDx=0;exitDy=0;entryX=0.5;entryY=0;entryDx=0;entryDy=0;endSize=8;startSize=8;jumpSize=8;" parent="WIyWlLk6GJQsqaUBKTNV-1" source="WIyWlLk6GJQsqaUBKTNV-6" target="GBO3RVmkL8M1SUxiBIiZ-10" edge="1">
          <mxGeometry relative="1" as="geometry" />
        </mxCell>
        <mxCell id="WIyWlLk6GJQsqaUBKTNV-6" value="서비스 시작하기" style="rhombus;whiteSpace=wrap;html=1;shadow=0;fontFamily=Helvetica;fontSize=12;align=center;strokeWidth=1;spacing=6;spacingTop=-4;fillColor=#b1ddf0;strokeColor=#10739e;fontStyle=1" parent="WIyWlLk6GJQsqaUBKTNV-1" vertex="1">
          <mxGeometry x="2010" y="975" width="100" height="80" as="geometry" />
        </mxCell>
        <mxCell id="GBO3RVmkL8M1SUxiBIiZ-75" style="edgeStyle=none;curved=0;rounded=1;orthogonalLoop=1;jettySize=auto;html=1;entryX=0.5;entryY=0;entryDx=0;entryDy=0;fontSize=12;startSize=8;endSize=8;strokeColor=none;" parent="WIyWlLk6GJQsqaUBKTNV-1" source="GBO3RVmkL8M1SUxiBIiZ-109" target="GBO3RVmkL8M1SUxiBIiZ-51" edge="1">
          <mxGeometry relative="1" as="geometry">
            <mxPoint x="557.8947368421052" y="230" as="sourcePoint" />
            <Array as="points">
              <mxPoint x="380" y="-840" />
            </Array>
          </mxGeometry>
        </mxCell>
        <mxCell id="ct-ov6YF5Ax_w1VTzETM-10" style="edgeStyle=orthogonalEdgeStyle;rounded=0;orthogonalLoop=1;jettySize=auto;html=1;exitX=1;exitY=0.5;exitDx=0;exitDy=0;entryX=0;entryY=0.5;entryDx=0;entryDy=0;endSize=8;startSize=8;jumpSize=8;" parent="WIyWlLk6GJQsqaUBKTNV-1" source="GBO3RVmkL8M1SUxiBIiZ-10" edge="1">
          <mxGeometry relative="1" as="geometry">
            <mxPoint x="2165" y="1125" as="targetPoint" />
          </mxGeometry>
        </mxCell>
        <mxCell id="ct-ov6YF5Ax_w1VTzETM-20" style="edgeStyle=orthogonalEdgeStyle;rounded=0;orthogonalLoop=1;jettySize=auto;html=1;exitX=1;exitY=0;exitDx=0;exitDy=0;entryX=0;entryY=0.5;entryDx=0;entryDy=0;endSize=8;startSize=8;jumpSize=8;" parent="WIyWlLk6GJQsqaUBKTNV-1" source="GBO3RVmkL8M1SUxiBIiZ-10" target="ct-ov6YF5Ax_w1VTzETM-1" edge="1">
          <mxGeometry relative="1" as="geometry" />
        </mxCell>
        <mxCell id="GBO3RVmkL8M1SUxiBIiZ-10" value="&lt;font style=&quot;font-size: 12px;&quot;&gt;회원 여부&lt;/font&gt;" style="rhombus;whiteSpace=wrap;html=1;fontSize=16;fillColor=#b1ddf0;strokeColor=#10739e;fontStyle=1" parent="WIyWlLk6GJQsqaUBKTNV-1" vertex="1">
          <mxGeometry x="2020" y="1085" width="80" height="80" as="geometry" />
        </mxCell>
        <mxCell id="GBO3RVmkL8M1SUxiBIiZ-16" style="edgeStyle=none;curved=1;rounded=0;orthogonalLoop=1;jettySize=auto;html=1;entryX=0.5;entryY=0;entryDx=0;entryDy=0;fontSize=12;startSize=8;endSize=8;fontStyle=1" parent="WIyWlLk6GJQsqaUBKTNV-1" source="WIyWlLk6GJQsqaUBKTNV-6" target="WIyWlLk6GJQsqaUBKTNV-6" edge="1">
          <mxGeometry relative="1" as="geometry" />
        </mxCell>
        <mxCell id="GBO3RVmkL8M1SUxiBIiZ-38" style="edgeStyle=none;curved=1;rounded=0;orthogonalLoop=1;jettySize=auto;html=1;entryX=1;entryY=0.25;entryDx=0;entryDy=0;fontSize=12;startSize=8;endSize=8;fontStyle=1" parent="WIyWlLk6GJQsqaUBKTNV-1" source="GBO3RVmkL8M1SUxiBIiZ-23" target="WIyWlLk6GJQsqaUBKTNV-3" edge="1">
          <mxGeometry relative="1" as="geometry" />
        </mxCell>
        <mxCell id="ct-ov6YF5Ax_w1VTzETM-24" style="edgeStyle=orthogonalEdgeStyle;rounded=0;orthogonalLoop=1;jettySize=auto;html=1;exitX=1;exitY=0.5;exitDx=0;exitDy=0;entryX=0.5;entryY=0;entryDx=0;entryDy=0;endSize=8;startSize=8;jumpSize=8;" parent="WIyWlLk6GJQsqaUBKTNV-1" source="GBO3RVmkL8M1SUxiBIiZ-23" edge="1">
          <mxGeometry relative="1" as="geometry">
            <Array as="points">
              <mxPoint x="2310" y="925" />
              <mxPoint x="2310" y="1065" />
              <mxPoint x="2225" y="1065" />
            </Array>
            <mxPoint x="2225" y="1105" as="targetPoint" />
          </mxGeometry>
        </mxCell>
        <mxCell id="GBO3RVmkL8M1SUxiBIiZ-23" value="&lt;font style=&quot;font-size: 12px;&quot;&gt;&lt;span&gt;본인 인증&lt;br&gt;여부&lt;br&gt;&lt;/span&gt;&lt;/font&gt;" style="rhombus;whiteSpace=wrap;html=1;fontSize=16;fillColor=#b1ddf0;strokeColor=#10739e;fontStyle=1" parent="WIyWlLk6GJQsqaUBKTNV-1" vertex="1">
          <mxGeometry x="2180" y="885" width="80" height="80" as="geometry" />
        </mxCell>
        <mxCell id="GBO3RVmkL8M1SUxiBIiZ-39" value="&lt;font style=&quot;font-size: 10px;&quot;&gt;Y&lt;/font&gt;" style="text;strokeColor=none;fillColor=none;html=1;align=center;verticalAlign=middle;whiteSpace=wrap;rounded=0;fontSize=16;fontStyle=1" parent="WIyWlLk6GJQsqaUBKTNV-1" vertex="1">
          <mxGeometry x="2074" y="1125" width="60" height="30" as="geometry" />
        </mxCell>
        <mxCell id="GBO3RVmkL8M1SUxiBIiZ-40" value="&lt;font style=&quot;font-size: 10px;&quot;&gt;Y&lt;/font&gt;" style="text;strokeColor=none;fillColor=none;html=1;align=center;verticalAlign=middle;whiteSpace=wrap;rounded=0;fontSize=16;fontStyle=1" parent="WIyWlLk6GJQsqaUBKTNV-1" vertex="1">
          <mxGeometry x="2380" y="1060" width="60" height="30" as="geometry" />
        </mxCell>
        <mxCell id="GBO3RVmkL8M1SUxiBIiZ-41" value="&lt;font style=&quot;font-size: 10px;&quot;&gt;Y&lt;/font&gt;" style="text;strokeColor=none;fillColor=none;html=1;align=center;verticalAlign=middle;whiteSpace=wrap;rounded=0;fontSize=16;fontStyle=1" parent="WIyWlLk6GJQsqaUBKTNV-1" vertex="1">
          <mxGeometry x="2020" y="1040" width="60" height="30" as="geometry" />
        </mxCell>
        <mxCell id="GBO3RVmkL8M1SUxiBIiZ-42" value="&lt;font style=&quot;font-size: 10px;&quot;&gt;N&lt;/font&gt;" style="text;strokeColor=none;fillColor=none;html=1;align=center;verticalAlign=middle;whiteSpace=wrap;rounded=0;fontSize=16;fontColor=#FF0000;fontStyle=1" parent="WIyWlLk6GJQsqaUBKTNV-1" vertex="1">
          <mxGeometry x="2080" y="1075" width="60" height="30" as="geometry" />
        </mxCell>
        <mxCell id="GBO3RVmkL8M1SUxiBIiZ-44" value="&lt;font style=&quot;font-size: 10px;&quot;&gt;N&lt;/font&gt;" style="text;strokeColor=none;fillColor=none;html=1;align=center;verticalAlign=middle;whiteSpace=wrap;rounded=0;fontSize=16;fontColor=#FF0000;fontStyle=1" parent="WIyWlLk6GJQsqaUBKTNV-1" vertex="1">
          <mxGeometry x="2140" y="895" width="60" height="30" as="geometry" />
        </mxCell>
        <mxCell id="GBO3RVmkL8M1SUxiBIiZ-47" value="&lt;b&gt;서비스 가입 프로세스&lt;/b&gt;" style="rounded=0;whiteSpace=wrap;html=1;fontSize=16;" parent="WIyWlLk6GJQsqaUBKTNV-1" vertex="1">
          <mxGeometry x="1810" y="815" width="160" height="40" as="geometry" />
        </mxCell>
        <mxCell id="GBO3RVmkL8M1SUxiBIiZ-51" value="&lt;font style=&quot;font-size: 16px;&quot;&gt;시작&lt;/font&gt;" style="rounded=1;whiteSpace=wrap;html=1;fontSize=12;glass=0;strokeWidth=1;shadow=0;fillColor=#FF8000;strokeColor=#d79b00;fontStyle=1" parent="WIyWlLk6GJQsqaUBKTNV-1" vertex="1">
          <mxGeometry x="70" y="-1105" width="120" height="40" as="geometry" />
        </mxCell>
        <mxCell id="NaQv06OIT9rLutypHk87-36" style="edgeStyle=orthogonalEdgeStyle;rounded=0;orthogonalLoop=1;jettySize=auto;html=1;exitX=0;exitY=0.5;exitDx=0;exitDy=0;entryX=0;entryY=0.5;entryDx=0;entryDy=0;endSize=8;startSize=8;jumpSize=8;" edge="1" parent="WIyWlLk6GJQsqaUBKTNV-1" source="GBO3RVmkL8M1SUxiBIiZ-53" target="ct-ov6YF5Ax_w1VTzETM-30">
          <mxGeometry relative="1" as="geometry">
            <Array as="points">
              <mxPoint x="50" y="-780" />
              <mxPoint x="50" y="-433" />
            </Array>
          </mxGeometry>
        </mxCell>
        <mxCell id="GBO3RVmkL8M1SUxiBIiZ-53" value="&lt;span data-buffer=&quot;&lt;!--(figma)ZmlnLWtpd2kwAAAAsEMAALWdeZhsSVXgI+7NrOXVW3rfaJodFRF7o1lEJJdbVflebp03s6pfq51kVWa9Sl5WZpk3q/oV4ziICIiIGyIiIjKIiA4iKiIqtoiIiIiIiIiIiIzDMIzjOA7jMM78TkTcJeu9Zuaf6e/rFydOnDgRceLEiRMnIm/9klcbRFHvwqB9tD9Q6oazjUq9G7YLrbbiv3qjHHRL64X6WhCS1Z0waGXynqEO6mVgP6ys1QtVoFzYPl8NAPIG6IaB8FowtIZzNzxXaXZbQbVRkJqL9Ua7snq+G643OtVyt9NcaxXKUn/Jgd1yoy755TjfClZbQbgO6kRYCupBF3RzvXtvJ2idB7mSRbaCZlWQJ8uV1VXSU6VqJai3u8UWrZcKofTtdKZvZxudFuMIpGdnwnYrKNRsCfmrXN6O+OpKvR20CqV2ZYNBVit0zIqGsmtaQalRrwclBpvpTNzDa69cHPf1OtMfWulW6qVWUKO/hSqlrg4U1xcuDSMm4D5gJVV0YXubiQRFD8vdRt0wUiaz2aq0pVO6PukPmru9aAAZfAttM0qIao0NA+rN4bg/HF9oHYyEpt6o3x+0GhSoRtmUCwerKU+gMAClyo1SR3oIqEuF+kYhBPLWWo1OE8BfbRVqQpcrNhrVoFDvNpoIrV1p1EHmNxhOowW0IDImXaxWDNuloFqtNEMBlxl4G7kanTrRCtY61UKr22xUz68ZJis0VS8HZRFQQneyHdwnXTrFxJQEcTo8Xys2RD/PVOo0VjdYZrRSOieiujpcLzSD7malvd51da9x8jYdvLYka6FYbZTOkbtus1JeM3p9PbxqMtIbakG5UgC4cb2ytl7lfym+KYSBHezNDuwi7Fa1II3eslkI1yvdNi2Te8RGoVUpFE3/b2074JEG6JaQB7nbYhK3qh7F8MxaeXQhDCshE9qFc6MjZY+5XD+DqlEmCh+bMJLetCgE+bhao9wxrT4+3O3tDzaHs9324NLMzvht4b2dQiugVNEZNzmaMdcaZj14bTiK+FnCZP0kW25syvhzV5qnfLPQKlSr2AKWQK3bcmJbmEdXg1XBLgb1tW65gEQKpvElybOmOpJZlsxqxXA9YeBGtRzI1K20WV3B/Y2K9PJksxWUg1W0rNxtthqlIBR9PcU0BFUpPx3rczesuD6eSVC1TrVdaRrkVbVCvcOqrNSbRtpXrwf3FaxCXlNaDzZaBry2STWHvq7BsC0oSiM9u6FZ7UjzNxZarcZmPMybbC6Wxc1hp1ajL92znTqTaRjcYnTyEWEzCErr3WKnyEyCuNVMOeYLk9VoFYwpemRxNBj3ayxc6Q5q0m2vMxNrYj4x8K2aMdq6XGidC4S15wYp+unLamSxFbGJZHOlRrWR5PJGx02dhRBzYiCzfqlRbrA+yC/ZKnF2WbQNDQU8ETZW213Dg9zKeqGF7rqcMdZBK7CL9FRwXwk52ZGfXjezfSYstDuJHbnKtAJwdbWDqBphpS1NXNPsDcdOe5fCBksApEKjyhWmhdakq2B0gpLUyAMDBigoNFUMDjg/wUHklD5XqVkx5zGiZysACxssJrGZi5U99tVwuzcaWOmzMbaCdskIfrUi49Toq2mtbfXWD3Z2Btuux7kK1qfFtlhgAVGoyq1GM83q1Qa2kJlkmyhWO9JBr1gonZtH+bJ+S8bkLzTQqArKAVp1mphhUl1tbBqALrRtH0I0ototFZqimbk0x4Jqlcw2kRem5cH2ZNqbDSdj6sSbAS0zv8gVWDPcyrkg1TavOujJ7tKeDvfIxXXg3V0P3Mzr+sHe1mDaGQ9nEXxbBRmqalbuC6ohgKbXbJhC6ZUm42g2TWd4kZkHr6TcDEnXCrI/evTDid0PS2ztALlVOJa7tkbeZQz1QjibTi4OCqPhhTEVEmaKXYOJBdCYVwd6lrjU20cj4/EwXKMaOrGXnl3QIhcZhG+zwb2dSpU9GEMHMud0SkyY9T7yiA/lw4AmqIXs1rKYbh7dO8gvZfJ3kl/O5O8ifyKTv5v8Sib/VPInM/l7yJ8qVVqlbOun7WjPToYimRpORQusKgYbgYxAxwP3ipPJaNAbN/YHsYLkOnW7UhEj1WQnBNZhp4htNrB3n1nARl+N8Ncn0+HzJ+NZb0R1Zxkzc4suGyl4Zzvs4asV08O09sZgOhuy9ATXaFKUqVpstNuNGpBXmxxEg9LBNJpMkQ/bQgHbR4EqtRohK63SAtbB+UCWHqpHzsPFM001CwwFW1hCxcnnsPQkeZJSpQq0UBOLKlUWmWIcZ6ClZP5MdnmDxT6Z1obTqXQgWUVm1km1AbBAWEZ2tLaosFfuRbvWnngldmFQKlVwbWyOXQ+5Zn0NlDrbDCTV4YYkXrMsbrAfXNqfTGfH15CPy4NJZ/NzC0XFCBwe076OEcmS9aq9o8nBbG067FsmObusMhJPO+jZVeandZq92WwwHVMEVaVpVgg22thqbebzYDZpDaLh82GdiMh0x0gm6YdOIE+qtacH422nfl65EoqzIzwVfjW7KYAOZ0ejQThwY2fqWmHD2cc2fj6JLqFdVlc4cuBq1EuysfjtoNZkgzXOfC5mgzBng0SSl+03gDreLTAcve2LdhqTMa1joO9HuqYHmo0S39TAltroNc1dJl0rUq+IkomJAfZNhdLkgA5NXb2Fh6uH2N3k+IVOW3auXIZV3rA6exDNhjtHZB+WS7NQwsHcCOzJw7f5YtDetI4BUoJPaGfRGFyQHD3Cyv1Bt93AyhgBzSFQOia5Umviw5OTEmisNJqTaCiTy34CynVcFYqIvWNPO4Zscyq2mb2GU1ChCVq51BZnReSmD+qY2/ExaEjGLFmatZO8FE8dpsD6XXJiJq87LTNxRTZkUr9UbRiPNYfb3o1db/L5ThN/Nuias0O31am3K+a0tMAqK1fEuzEKsFiha9NepuWrOEew/A13VVil9a5UZWsir2sNTuq4psCehW2BT611ccGAc7YAZ0LI8jZnPPcFqPCSjWPM4dyMcKmMO0m6TNm54Hxc7QTZjYY9Ya0A23Gsm7k8meRZceRP2SZixTlts5wJN6T2mfa0N7ZTakd4Cxsux4R2lx2CrVdkAZliJTPFpopeJRhA6tnDzWqrkZwU/Awq3ilyGZzdE/IZTLIpLDQ74brFOWaLKSbmtZSiLKvlFJFwOiHHaotznFZSTMzpZIqynBBTjEg4nbYdZRIhipmdmUPG/K6aw1qWV8/hEq7XmJYc1jG9NouLeV6XRVqW12dRCccbMG+VUlfKyN2I70hEpVDH6pkleRPHhAbeZIq5OehFrGA746cJepQ6xUqJAiWs44zGpc9kPTFN1iOnhiyxpCgndHOYvK07h1uwVj3JL4bNlt0SltZQT7bcBLHsSBPECQuZBcJatqtjZR7Z3hTzcfIYcp0jEuhT4fZ0MhqVh1NrSei0W2NfYQNAwsZA27qYoZlYg0EfIzYbUB7c12QvtDa1BAdxqkxOr3XYhbQXERyiMeBFpUcTPCMDeqXJCNdD56ZqWekL/ONt8Y/f45+c9U6ofImcPuIfrwUK6hTxIP/4u/yTM5zC2WSfCtsCq+cqve+sNARerTebDi8pvbB3++3k9d7td5B4e7ffSeLv3SHI3N4dgszv3SHIhWZvikWujPsD6nkXDoZ99UCG6Yry7HGBwsPe6GBAHX1gjg63Km8VKdV7ewOl/Z3e3nB0BL2OZK8G8GAyi7anw/0ZOV9oN3rTYY8qB3uD6XB7dXjhYIpo2Z3dEVmhdswngCayYGKbwKaZ+arhfm8bpZ6rS6gBh0GMmMlrYhjuVHkFBqsyuTLALAcMKcEDA+NPoc5mfrO1S739CGVOq7D+zPFSk3TjjNcMOOpJ130Q3SQnLjrxUAHzoBjsGuBChn8zlnu2W7jw/Isnj/cEYPoTGiEzOQlVBZ02S02Hgz1YDbc3B8MLu7M5IsJzMqSEpILvP9yeI0n5cLgwG8XqoDczE/W3uslJkiJVurNpSNxovFIzFLwvoyI1AyXNu9jmAoEecYkXG61ynXSpsNqS8uVy3Ri1E/VOTYa2guMu8b2T7LsimlNlm54Wj570DAdfSa8qFMwh4uqSTa/hFCXptaHNX9faMPGT62WBk94QbppY9o2lcFPSm5hkwd9cKpnA4i2h9c4esU6Aj/RW5wc9stGqS/9uE6GQPop9UuT36HLbnJUfs1otyDgeW1triZvwuBCdJX08pxJp/wmrONGkT1y36Vet23a/um3zX3OvTZ/UtOnXykmL9MnV1aLkv67RNOlTWm2Tfn3T1r+9ea4ucrqjihkivZNU+nlXq12V/N2kkn9qodjaIL2nUNyQ/NNIpd9P37B8nrFBh0ifWaxuyvx8A6nQPYtU6L6xcG5dxvHs0llzgvym0qpZUM8pNU2+UOq0hK6IyyD5EkZS0vKq5R8QBJT+rJLeSbpGehfpOs1KexVS4X923Y6H1takP9X1xlnRGzxh4+fUKzgkpI2zzac9nbR5tvl04XPv2eYzbidtnW3efjdpWD1bk3ptYshC32F3lHnZECeJdJNU+nFf7VxN8OfrVePe3V/vnGuTfjMbifTrW0hD0m/dQOCkDzTDtuC7pIJ/butcS/K9VnNd0q1Wpyjzvh3iSJP227Yfg3bdnHF2mCaZvwsbhNRIdzds+XDDjvt5G+eMvlzcaLVbpCPSO0n3whALrtSYVPIT0rtI90nvJv020qeSTknvIY1In0Y6IxU5HZA+g/QwDLH9Sj1IKvwukQq/I1Lh93xS4fevSIXft5MKv39NKvy+g1T4/RtS4fcCHYZ3CsPv1KUN08MXCiAsv0sA4fkiAYTpdwsgXF8sgLB9iQDC96UCCOPvEUA4vwzAdPV7BRDOLxdAOH+fAML5FQII5+8XQDj/gADC+QcFEM4/JIBw/mEBhPMrAUyff0QA4fwqAYTzjwognF8tgHD+MQGE82sEEM4/LoBwfq0AwvknBBDOrwO4Szj/pADC+fUCCOefEkA4v0EA4fxvBRDObxRAOP+0AML5TQII558RQDi/GeBu4fyzAgjntwggnH9OAOH88wII538ngHB+qwDC+RcEEM5vE0A4/6IAwvntAE8Vzr8kgHD+ZQGE868IIJzfIYBw/lUBhPM7BRDOvyaAcH6XAML51wUQzr8BcI9w/k0BhPO7BRDOvyWAcH5IAOH82wII5/cIIJx/RwDh/F4BhPPvCiCc3wfwNOH8ewII5/cLIJx/XwDh/AEBhPMfCCCcPyiAcP5DAYTzhwQQzn8kgHD+MMDThfMfCyCcPyKAcP4TAYTzRwUQzn8qgHD+mADC+c8EEM4fF0A4/7kAwvkTAMZE/YUAwvmTAgjnvxRAOH9KAOH8VwII508LIJz/WgDh/BkBhPPfCCCcP6uPx5dw0WZs1+pupWNXzRPftNbb3xdnSXs708meuHezCf96xdFkS2m9dTQbRMrXNrClPJ/ry13Jj8Wzw4/r92Y9Q7uo/I1hfzBRnhfTRHd1piMhavai2SCcHEy3YeFFU7w7HBRxB6fbdQnC0CAoztgl8VwL/ecR71B6aSYdx6eMdnv9yYMRoLeL20K0YBcfE6+1P5j1hiOg3IDxRuKI4L0eEk0YENUCXpgN9kwY1BYtHg63OOfSjWXOkCIX26y7hFfeif+/TW7jnU0RBvDy1lR4jmmZ3AnTGeXdYCbpKqW3RRDqucqbiDc7E2ffPxxGwy0Ep1WOxF0qnVb5CK8/Ujt6Ad7jaGcy3VO7anFoZuylWi0ZqL2Lqz6WroNa7o1BcoCpSJFgrrIY3Eu8X6Z2UV1NPnt/co06YTG7k4NRvyT9q/XGIOjPDdMJJyEq082VSKoAnNwxsjWUbkpfodWpfRnpqinCNqvTg73J84YlWmgS2EbGi/rMoVGkl2l1DUHoC8MxpyVpeXPYnzEwde0cdt16sovqum1pCWdZvTmnrhdHuMZclVFQ5eUvDo7UWOkdsNXhOK7E7AqmPLwwoHc+JxVy1n1+vspJxvnJeW4pyMF8aMfp+b1Lw6jdu0DDWsC6SA1dj1eXiYXbxq/d3u3JkWIwjaDQSc40VCnLkL1I4MbhYEpIdtDuMb/qXZ72RyZOa8J2W8w6F0kjeh+xiej8hdHR/m7E7qEX+sllUMTeoRe3OGJe/LaDiSzeN2l9lWWzQQcgocdLOwwmkc4rtV7e6Y1GW0TkVimI1Fif2EURpzR2sTi5BJfXar1CDuj1vj45S4K7nICn7oSYV6ccftBP5Ht6NLkgFwGGpD0pxWNv7OxEgxnWRy3rM3vDOPqX1Lt6jxz8beuv0/qaPkezw0G/ajrxBl9fW7aIVM4n7TCdtPSctLxUWizhOWmxmOakld+hL1nhLFwui0U3UnjMSWDJ4TMSWP5/kMCJ46Nd6dvBVU3/Ge3J9UwflJfbInLaj1SfA7e1se507u/GdBwa8kQZE8YsgrRSlHaaKAS2JIb9YbTBsQ8SggG27jmWzqLKF504lbeE3bMnUaT8oFmULCQpOw/gC5CMPie5QrQNK3KLmMnJdFDNXERiFXeG02iWyEXaokPZ/MKaTJ7yFrcne3s9hlC0O04aithSdgUxaMYgE2i0gPYvZ97rHzp7vHC57VksJ8rBVjUl3oK8NPKKmcvO6LQFI3Do7rmKWB1kZtC13pRJcpLOdssGdIxWSU3J1AezByeQu/EgnD2k/3wiS/yTjOpyuyBbNzc3yETLxEfqAa3Do72tycixj0yGdtnRLRwziYSBR5hGNoqQvg9WEQ2bDVMXs0UrjVfgeWgCHPbB4V4SCkBWa4OxbG9IyLU1yXLWB9FglTlfE7eDcRyNTTBG4yoMd3Ya49FRC6kf9kaG2i9bPa/s7R3MZHRm97F8vXm+ZJz18goRK6fSp5eMH82aDqF5h9baFQSgjmDQk6yoL1bXwJU+Tqmr3xrsQHLRlsbMWUimEEJvUSQro+8JRsjfSV1WzozBTQ72K338WeWbGQJ+NyvGSprMQxqfQDYLhkT2PVotxNnQcH+fJuyZZeXFK3i+udBxf7jiuMGHKd9wjaII/xeKBiIQYVf6/zfKkAGUH44IV+GA5voPV97eHex9hd6EmB5cFWicDswEhv4Dem6SUrrmVJwfb2EmmY2EAi837a0Rtzdjo3DijJgtjalrgyqJ11DrjQ/YAY/CwYh1OWApq9wwKk6mfefAXIEgHx1sSQhziz1IGndjWEj7Nq+gH0FB58oCCkRNZ5KnkzJGA9sxfYg+hxguWUQyy/AfEI/FcnnLOzjQ56zqRqYQEeFEH9rxr/dwwAmrioibvWQ5R5z+2O2cS58fDXFMp0ey5tuT0I0FMkFwQtcLWNv9yXgwdkto8WC8M5LbYrn0y7JcGkaduMhIZtl2uxTXr/Xw/2PDtx1jLVe9f7A1Gka7MJOGpbvtSXvQ26um3ZNGvOON+BXONmLIY80NZzLs1BwJq8ZO+CA9xcA4YrFiONdzXZg3NFfmu3Hn/xNn9obeKMzMSFzFsrbvi5R3yrj510lP0C3j5htvAIvvT9kbD+RMkEv9/TxJ4u8vRPvTQa8PxWK0O3kQWXNSKQ6QYF/MM+RLlscGmxKu8LJpxGVO2Mout3LJASePHHCqLWcIs6lWxjtymjNd3VC6f2CNPu16KOhsIgXlweFwO37wEN+jSIDMPMrQJUKWJojrGRxXKxKCJ4/dl4qt+NjAzuIql0qbXXMo1scawemRjPo0Yo7c7shYkFqlz1QOd4Zs7yg9tSzPz7CGG4gfr7Dp/IS2MFBLye254jYtvnrTAiclnuTiCzif+x/GEVPmXDYhzjtETL9gHycCLboOFHGtL2DpxdFiKbDh0htaSUYtF9TcZtlLZbnYc0+c9GUM7BiSmgQ/K+Vu/ADvcvICOorzIwrqeVsJ2nD5PKJMUSVRE9HFeo/jrJGhoVL5emGD2Lu5plDcLbbsC0IdbpqAvydplzsRQ+C7S0ZzhZ8LOCNLGALOTKdYLSji95wQqLC1Zi4wCBI3Ydtt3tXduBuEZ2uGHKqxDBj4E9HBzg73V1iMoRz7TNdYlNt48TPxNWbEGZUfHV4QO2NOY8w/2UrZrJt/ZBWRaxzMxCMVw085Jo7pwPMTv4T8IhSrE8IUoXlqhd26GIFewqcpbEWT0cFs4Dw7jNx2dlR/r9UJ1+WNNdek8iqr3XoQuIvBQnWzcD4E0FVzTpHXN7EpuId9kEOk8rDhyar3xwd7IfaCiYgUvryzEYQbIosNZRngxl44wCpOXQ4nmX4xj0v7YiynY/V0tZzh5Bb6CcvN5VYiWyo8HOpkytVhTq2xn6BG5uhLV7VlQZvxZu43sYwQPIgtYtrMO/YlhZWbc9vxoWQXNj5xKGBbRCA3Z1al5cUbCddsrcY5wXjuRbgfrK7ap2s5LhMaLYHy7q3SAnaQPcfwy+yUti1r52MHwm2P8eYqBMw0YxXNofeRYFyViBmNrQd5TybbFrnLYAwvywWBgzCaLzPMEO4Lyt3N9YAVvV6plruN1a4t5l6vGz/KZ4Ss9vOuRCp6hel20guOaAixML6AFAlJsQNkst5wjBveMoaerG83nSoHP+oeTIf0UPeH0f6od2QWw4o44CZrdJ/+N0cHRFFca/smgySphnNOCIMKF+1Am6asNRj1ONvu2gq5fYO0FfYGNnxGFTfVgLhXZZwl6yvlagej2VBaH0xXh4NRf8NOBRO0zYJC9iiDzt6SczXOAOVgUutJbE2p5LWPex8kBpvEc1bZt0YYKBfb4XxioRekTnfugn8xaSAY9/fl/IcYBg6UjZRu4J7ux5O/xV257ckrPOUnlQGwFaOm1GI0GXK7oqkGiaUVyYdAUo6rXCmXq+atFbbT6DJ3WjHKvtmJXzzZqrWh7RzNRCCFyyu97CpMqFEDTBhajFiCarGxaS0QC6rgRMPW3LI/Oklr2WXoJZuXufNGVYF0YTx2+yoWjwjD7MhS3+QWq/C2i1VzXWleS3jJg0Cfu7pujM5JJinK1wr3JUXsm/elRYuWZVK6VOLGNWh1uS6rdGSxLCfm4IQYCMRo3wSsmBw31Ws0lJ3yk6tA3dVCrWIeyZ0yWXede9pkNuPGz7BQg7QvV1WDNprUlSdprGAwVzNp7NQp4hqLaBbK7n3jtRZRs0/SrrM50yu3+V3fkMrmUviGUqPWRL0N/sbLha08PRN5v5b5TktRhFFvayDxH71vKeWg8TrO9ylRbdCTKLUEc0SrQzHhKmfXjkrWjHaryIvXjn9FDpyKjaHXclsg7IC92cRBfow1jbzBU7nZJOzt2Sz7rzFZDaOuYk1mnPxR2wX2whi9OryEvWATc95/bXI4cH7oZNQ/Z+wR0QiM9WpiiL0M7fqQYPj0qEIMniqRuXKQDlVMp22+dMz7x70cjER4pk8m5nYRAze21WhvJ21qRJkzpxLnutgxwbfc5rB/YcA+weLEknnEcUxdmgz6Q+JsMoDcbIidnPX29ivR5On3cDMKaxyLKYTCmUEJ8aBfkGC2v42bHmdyUhCvT78cyG/9mCK1uV5pB8VGoSXrWJtXZrIuPHazi464UG2uyy2yPOgSlQbS5kca7hdY7sDuqOuoIEgVosHYofg1pflJSpzzQowFWhGiHGw9uIuuUrHDRkeq5wjs4HVkMuod6G8d4RCQG7NheC8xZ1QRlKQ2nP7U/d1eNFALyjOARd6zz14dv0V6nvIzWUvwtJkM4QQqR2pRTx/bmcpLalHPGEZNe96U2AA6+VbN2YyD7770GNp3e6NUm0zf3+SpF2SRTsXUmz39Y26H/C3jFhQkkCGxhV/W6n9bv4MtZFHd4UDbg8EwCic7M7c1hlJEN96muUGYjDv7fSbdde0Xwa0OR6OY5ifIW780xvwUmMahPWBKKptEXPYl24M20lBf1lwtm2x5brC/FXtEwD+nkckV3KEXeNwiZ4pS3+pfNNfKx/yjh7zJ8zg/hgcsJ9RgOjA2x+z4wunP2bgOa5PJeDTkGmZ0FLfwSbyZXSKBrH83XiT3AIFwh84M2xS8IS5IRmzQPxOjnSeeFLw5KTAH8LTgZ+MCccZT9FtidKY/nAtsNyj/NR0ZZB+kkBBOUh+0Ajc4SxiX/GGmRDosuA9lcLZTgv2jDFZ6JLgPZ05tzR4WJlI/pPVv6yv2sJiQ0sv3oB4h687GGNGJv6bbcbZp9wvO/Th7DYlzReo1vv5iPNfGnUwn+6NaPR9uBju/gv4VUFIhGxb69mzBBvytinyHRSdWOKNrH9Pq1S6eNa+oP6AP4tgP3LONvJErPWx652GKPxuHlxCTmIKPxXkzzX8mJxPbi3NmIX8ciZXuZFB/HtMNEk91hft6e/FYmq/05ZSLCLU82InUlz39MjzbDBpRRuqfPP29nhugDPjntfq2NGsNhEwFG6OTm+AldPSvJ4dmnRPqsAVmAN8/3zQWiAsW2acj9c+efjnxEQKJhemgeLDFZIkj/otJRCqUsBYj1l/ScygiXZ/Q+p+NQTbHubdoNYkztov7cYWqbJ0qr37b20u3kV/21L+Ya1U5OrKXXx/DtnIF0927MO3t74r1xqVYVjccQ1nCswk2ftG5rG48jrOk52YsqwKX9NmfLX21evQV0LZCOynZYBHIDY56knrMZUhL3BF8ia1I3aAeG8O2aEOymSujm9Tj5jGWbBNfIb4To2NpzhZ/i0iozibFFfXXxLAt+lbDTpTg1Vo9Kc7YsgecprQdVr1Gq39vJM+BfdgbE3fZ25uMqxLMwX+ToMW/mSvFW7k0O+hxakwpXsCCSkjKQ1bhQMbB5pel+s4sld0RRV5ZkhdmSTAwcmEP+ruy6BCvhyV2/2A6oehF2aL6gX2La98B76vvvkKh0wE1VS++QilXScYPUTP1kmxxSd7pHqqXZnHJFnZJfY9mZ8YixcxH6qctZWIHPgBFj/HYC8xb1Hs88WbINzkfI0/DSKs/jtFV5EP+Tzg/Xqoy9RLM+St2QtM71pxzjD49jzLOxzs99TeezFIHR7FqwkZxPxbVH+jZ5ALRgH5j3Giv4i4iqYgJ1H+YFHDjNlfyIZ3cD6vf8NVfaTEWwu0hX300VR1BRepVWr/INF4c9odpsz9qcG170S2oZ6lXM9RovddvtattyhjsG72B3K1WODLLFYz6VE69JPOAZcGBVpGfSdj8ojFPixay6G9I374sOdAWPIuaSTh8OcnYwm+MMDUcu1cktahvIkCYPIw5mWRs4XP66CC2jSkfcxV/KpO1BIU93Gn6dpWkFlUWsBI1bDCRsmvmEJZoVXDGIr7dU7+Z2cUbdiwM69rLkLbqGuaDo1IS3bkum7ck65HxMdz7lGV1SzZvSeoWZSyaerR6ZCZrCe61GBaEeqy6LcnYwpbNm5+bPl49Ks3Z4nAHxyP1R56YZm35/baCRQnFV2URluabB8bzidQntf5aB9uSbiqYkgtn3nkMZQl3pN21wWRvIHdp/6z1XVmEpblgW46RQnX3PMrS7cp1P0sWtZzsVwc7WMhU6oj4B3WWoCWCPkbxQylFcTKbTfauwOWHj9NcidErU6K0ZCi74z7KzppF537kOE17gltAaUryKhMWwBVmmUbYe0aN+M1K+1E5exa2jgW1X+htTcQBYXzrxtkA95MOZ3uboF/v0DLEBPlTDmnGlGDf4LBMLl48ii5L5k0OSVNWaRn2zzicbSpBv9mhpakE+bMOaZpKsG9x2NDMr0VjSrNC+Tlvl93KegOJTGbqNnXrlfBWNZqR/FxRjIwqKsy5y9jC55m8jAtjTx8uZvOWZGRQzV5ftg1I9rJ5S0KDoErMBKbHLFK1qi4Z5NkD+/PPdXVk8ra0rD6sTXY96bZjSAN/bIuw2saRSQs+YguIWODanVV/YrPWGyH/UZtvsrOx5YfD50uts+pv59Cm/Qoxlogufc4WZTtui8rq37ui3eGo76quTSfym6W/syWuW2YKwf6HOaxVAtCft2jDxvDnEn4H4XzB4uO9myqqqr6PIxTIFp7pNBrcL1N/iUn/fos2v0etq9+xOddnN1O09F5vbzhm0DixOfW7sl/HmffN1TC9QEc4cMxUU/0Zl9PhGN1e6+2xlnpTWWAf91Agd5Uqh2DjsH+vLEh7qxlKfD8peHlaUKSdC6mdw/R9n05ZGbfgU1r9WAbXphZXtK/JoMrpbe2Pa+J3jM9Q3adem6Fq4hYMpoeD0Fxl0Olf4UBBkM64IYa+pd6RQcnPalfUr6Z9JXYmV7Of1eqdmsUS32y2KVJt9euZptpEvyYHMsu/kaWs9cjwv7FJv6nJxCWZEbxbgjTchZg8uyxTO+rJfd1DmQZC8y41RMlmBfOWVYzMH6VdraSsI/Xzvv5MWmSmAgmZAJ56h6/+h7bXG8arfqmnP+jyEiHE7bF3IC/z9F/EspEjPzzUD3jqH1JcwDEczH9NMVVGak7ruExcSSZ4U5utl334v6VY6lvcP6W4ElrHZJmusq96+n+lZeJ7JZcEr/LU/84UMUz1Gk/9N6+XxHUjbLj+L94e6oF/KJ5ghN+mX+BzQj/29aGT6r9og+2gL85YLKv/zryYE8gVnm+9XRMgetjiDRYnPVAv99RHvDGL4NijsrdpblS3wXNluH2xyiZ3gCOpXumr7/JGOK8o7uFw8KChfZ/PWE3nnE+Kq6sZq/OmSwhMhpbsRj/OFWt/MGmiQlssNfUbRLhkde/tG3bv9dW/i+vSTERMT5bcp3PqH7wHTZxX3rRxPkeIAyyG+sEMumQ/ZrHIxFhk2UogPNiaTQfxty7e46kfduWl3jYHoAIMI2aJjnClY0sq4/2DWXK7+DJf/YQrkG2euzQW4uscZn1yiBUzavWQp/4t1mjT4ENs/0WRO6P+aUQkCwQxuG5w6W3JTHVI/s6xqw1mvb6I4uW+erHDBYciQ/VSX7/EYZp4FuwuR7XB+MAa/B/y9fd4Zp5bkwdjqxypj3mEBAwae3awN54r+RVbQgWrVZH6hMdhyCAt+absVAb9q0QJ3RrGZMlLKuZ2Z2gu/GUi/utl5U1W1XB7uM8JLyb6Ry+SknB/gL2e1ieiLSvqu33z8ApT/AGt/qclaQvGVPugVv8rgyPAxNarXuz3hxKL2KMVhFPpY8b/I3F8OaS1JpMZ2c+7bDxkWvoC17CmVtWUyBW5WWF/76kvxkWOodm6/sFT/znG2yrN3kGEufxHjzqEs1kX5aFotEzhl60IOGoH44O9VdY9eqVe5av/aU0rBTKiuODVvvpOwlTsaajsCQNYZ+TZPfPVjzHLFa6n05wtLsrCsXtUMJapEut95jKkJS4NTDSWuTLrsGGfWlx9OdaSBxG2sILZmprHqZiZm+Yxlqy6N2Q81SEJJDeTuJwtrs3EdKELF7HrEDwim7ckjS0W0tx3cp6oHn8cZ0nvY4GgSFm/EH/xCZdjLfl5Dv59oujmwzK0p56innwMZQmfa4UQEnAAF7F36K+bR1k6LA2RKTMJkTgkz1RPmcdYsq2RURCJHBNr1PrrM3lLsW2fHYsOEBRXt6dZW97fQc1Q8OgioR8zh0xVdBnSEmPRTNuTVeZAK/aQJGsJDu1Yikjd6kVcH+oHJaTI2vuS1i/TSM7opmgBZa/QkXFI0h/p369+ku1ADjnhHktrF9Ewqa93dIQ5ImIMW+pN2rbYFuFE4caaADD8BUfIRDFP2+biBZmqb2Gb2k5x9B4mv8SFH7eQxt2cDsbx4lrhXsdySYzyCz31Lt1zLzZe5KnfiTc8G6IVdNXMwIbb7vLqvXpMXaJkZM26/6JWv2sCsKNjz9Q+p9X74gLxO8SoxQT08vfislS6FZEiIxGCv9Pq/ZdTFNLHYF/Q6vcNAcphbjcfUH9qZNHDRZlygSNydPdPcpQqjHFHZQJkc/2k9bxL8KRJ5CbzcVb9ZcpAroCEw8Mw+JS+ODgifHbhApJ9l68+rQ8nOJKB7DLN3SnxVeT9N1p6Kvsi8Zjd4mBnMsXhJDonA3xA/0d3VVDFH4jYqPR/0jOmW6JtInn1Wl/9ZyaEju42uEhgndJRXJAJdpHQIzAd+W7ciWiWngBeStxqa9A3DN7jq1d4BBJ3awMMsEG9KodDh1IwzzLLdM9p0ns99SNeNNzbH3FQi5+ENnvjwUiG+1qvt81ITMhrvV2ryvJ4R0691ZNgWwuLo96ZU7+QIaq6a/23eYdCAsY0/+YcsaQYU8LqHOwxMvGi99X7PfVLSZkcTotHIXs5JR/y8HHiEsFRGKm35PQ7s1j2vvdp9WsJqjUgNoAuG2V8TY5LiLhEumKujfCjc+rXE3ybWR7XMRV0/FMJNtye7EP5tpz+a7Yadt4jVOQSbp/6nGdu8kNzK88JSL3I30KrmIiNuC7d6ku3/od3rAT0Z3NccnBfw4q0ViK4xFbSl1JE/p3+FEMRk59DwVfUC32xwpOdnZA5O4hENh/Jqf/gsYVSL15cgv6Up37PoWNvSNCf9RDz3pC9WAgtF/WunPp9+pG51aX5D3joDFs4nuNbPfUHjJyjHC7TjtxDPZRTf+pZzUR/jBIznoc0DtG2WJ2WDS+n5u+9OfyfqcVat2BF/YXXn2wT6SagneX9npz6S3hzL4PYs08amHFPf8a6MQXYHlpnpjrcssL5rFHGwmw2HW4REorUB3Pqb80ozAyaoXw0p/4TvvEe/lTyCYlv51YrRrlPRnyH+u8IBAXiaiqiIaZREfm3PxBN/G7P77F/7ZOlUO/RUq86ke+XKI/jgpGiXxOs9BYhqGV5Iar4r1nohPLkQLcba/JOQfDdGOnV7Aeo/E7dQTlHJtlugs2bzyCvNlqb9v3EgskXC6VzDrFoEOap2RJOKC6vcZStn+0tIG3CKkN8F8J+WkfGyKWI7A83cedWE2orjBy4MFPFYvPDqGGr2fyCbbfsdpW5Q4SH1DEWHIjlkQGW19hiQC/z1k6UNv0Fwvs8recLA0qOYHXRqED68i9eN2Wn+CmPD8DjWGlAEUx8OcfZq376c5ihEbuV2ANL8UFP+RtzGPXoWiWUhyfIWx1/6qXlg7RrLflKc/riykuRlXrZvp3y40dj8cutnH13ldbKW4R7pxW/6ZYPIGew9nnU4jwyfhq1NI9O3lAtb1TCSrEqymUfpJULbXl7sxK/YDuZvCc7lXyEV5oynegeH/PpeRrT+mVEZ1Ii248r87rqMrIrs7u62GiVQUiDiQivcUhXM8Ff6/CmxQR7ncPaBhL09eaza/V2Vz7FE7TalUDau8GKstToyEPNzCzdWKukTwZvkneBceZmKUkEeYsUJblHmEd8yQO/W002fhb4SJMz3WhXGnVp/rb0Bd6jYm2U3THZOlO9/3BG77MkAeUof6LeYFmQbFnJChBqUA8orwRktz8qZnh/FN5zZQEFwpR1OsPr2VNvzwk/tzjbwpUTM3af83F220pZfhyWD0sXQCTsh316lb5wvYy1+EiQZ9h+8jK2jiaAIGUZgcTweQWzgzZdA5BlWH0aVpeVBxSmbPZdgfTMklYINBiHRJ6dmedoqli13wR3zLLbddrY55LGMuUBhWljgiQEErcU02Hpxz3j0tgXmJ+BguMoVrnOjJl59WfENjmgskF+3lO5Q2IKJvMFT+X3DiK2Rcl90VMLlnU7Iff0TODqYHyBaDxW0xJsxBw83OIZjh6mPS2tJSzZAiY4BGXpXESnZm241SJIvXI2YpAEGURq9rFe234NTTu6bMRBx6/55+TvCC1DF4IQdjBR581aRoUzb1Fagx3l5cfIyJp3ut8f7NBX1sHzJ3tbw8Fqz/7kvG7F629nq9eTil9CpNmn5PnSlelULjW/Kmt+tfxkpVUps0N0Q/MV+i7doPOV+nrQqmAvKtWqtRK2wJ9rIX1UwxYXD8Etxn9BGVjmGybDJjdfsywiWLaiHNtBEp5Bor2RrUF1n608Gx7K7ZuZcNUrUjc/k6l7ga8WsmJY3J/K4yyOIYZXhHOrlrJ9WZ7ri0V7vsQ3LIyFkuOSzbxa299w2BwqPVe5LR2Qnz2ZDy0Z4ZLo+EdHCBIzXi8FXfklEIj52s1jHUVrWZTiypvsitZDd16SX9Q57It87VUy6Hkm8JhJn17sKzlIIrevQNwWSuVlX1gr+osvKN/qlv5q62YFcvrEQbBfxnSf2FTmF1mkWobdDcoojH2c7xXabF7rQRndgUQ+KRp27Z+gkGI8kQ5bm7TUyeLdY+H58K7y3XdRWZideqnQDgDtu1v3atez1VKzNPeTDQtvcLhGjQzKRWnrVu/8TZOT6SBmlcRsrWgWCyXZEGlEhYH4VG0zren8ltmynTh8g+yGQRWHwpQ67xooT1dFUs5rzTbGjR1HmclUDuLouYd3bAC6PkMj8UgB3RCz9aSTrKF9h3KjydYZQmGG8Qpf+cNtwzNnuUfqB3ydj0zTg37D4ChlGbXt8xjWwCKX/jsglzBGbGlctE722NiYEi0riH1+7gJCXdU+3wzCUqtivmWmSk2ZNO0+8eWVQjGE/tnCRiGhycmBnzR/NjQyXjAe672CWmyeb68b5NKaGNLl0KBPhJsV45SunGvIo22gk61OKJhTxYL5WN1pjjzy0VuzEM9UxPMnfBZkYr6YPfsaOy4sozVxIfsOibGbBYJS8jHeh30WymTtOyRysoZPVq3XxnpUCZ4IY+XlRoBoHty2DjiR23uj1/nMELsKfo1IP34vKG/nB/UDIi1TcrliWkHljPdoVorq1NOMTlx8Np1u1X5Tzrd9GNtThndiBGjYvBHDEMlBDQuaVyeu0AW2Tgk7JGdsDq4M8E2+Wu7Po96MXs2jRKIYirf4KtefPDhmW8R1SxrLo4MRshiMt49S7IKIBzFPZw0brMyrRXnePY1M/xs7VcrRuaWyPevND0zPd0D6pKXUjFXljTIgDuXEFYtHJwKMMZ7xlu7tNIyB8deDAsVAufBK0lDxF6lV1Xx6TrfMFxzxBebJPFusbDE+RbbYSQsLXbMfkoZEBfclcPo7X6GM45defih7n2a2qPxW1MgWROqXfT3/07KIicUFlU8R7UHsjCACziecA8PFWxymLbRBc0XN3pOg5u6iUdukIHMV7bPdtNO4Jc7eZWHLPOFkNEAqiD+Gu0S9hT2JZKwTGQdFfjHp24Y7JrSNU8lcM/D3sDmXJmNiLzDpjQqmF7Jz9hyEEDjxOwLZ7dOfZBcMifJuSbshThJLE3GmuDakagNfNsFkR8mVMDu0oblP5VIa6b0dUGaUoblYPHbzLj+tlatnyg2blvwwNcbYdwRLEk4ZXTG6vXx5lPxE2iD7O9fQxJW2pwT/aGzF9neV618pV8v6JOtn2rMEbsVtqVMzI+NY4kYkp+dxG2Le1Gtz6oyZMCfMd3vqKti55lu0PrOxrLjH3GdhIsed6agyrg8e5IgE6pp51uptvrp2HmVWN7N3nWksvDjcb09ExMj3+gRVPCrsmRPAsroBEdo5j6imb0yyqY683dc3HeuqlUKmrzcfI6jEqn44SDw3CVvfkihVSL/lPqppnhYQ6nEbMYHkzDP99NePeBxulZS5qN8eYKTOBefjnyph2M/V8Sc499cJ11Srxgbp+4qN+7q4aMBeM7ybxGcnbJfWJWZALncuXXsmZCX7c6TyGrU2WNfWO7EW63TaPnP1vAPzIy3zoJ0J92qMjj5ai0dT2b870Wie75Y7YptiF8wSi+2QynrP5gf9DhpY6cPXS1DFowTp7xCLPWc801xkG3q3z2kwJrWEFWR5RkyDw8YMLH4xYH+0NxHeKTeGaLrdMZA3G85QKVqaxR92swW5B+W+HF3J79r4LLZnIIzaSITyxYS+Im9z13uR/BZ6aYf1hjZlceJ1HaLlcvV1gkvLC0PUTPYl8isIPjPxJ00LG9byGgGcQmPcgwrPPzCjAivHWbQodIFLQXEYgDAdOyi/yryxxpMXHt7SgRmbjgctHkncNc5k2a7krji+/BXGtzBPuenkdlxAsRSXNuiOXGnh62z3xoe9SG6NBu7pJFvGPreGI9dtFo9n8uWBLDQTBbaV1qwW5mryt0/Y5rZtNPfJSttyw7Q62e6Z8WwpL4MO2fRYpfZzXv3jHC2ndfPMpYVBpPoip2UC8hc500PDEXzfrF+4hsdsgnmEAxd3xZmYTK/NxLO08J8PWVASqzefQQFy7erdyYxA/8xlvYgDmINjG5BUtrOZn9ico/pKDJhna4AqsYmajF1ZzlUrYrD3OU/OKn35qUo+aTNM7WzBVLStmx924giv4hSii+3J/t4E12ybyLpoJP3B1mVsNDgUbh5nOKF6U3dHFuMl1IdvTCgC5ZyE4piUuHK6YCt4eculDhVcaWkYNZEDvRB9STKhqBQYnxmVYIDsCAR1dK5nhiGPaM1GHMnKYVbxc7DiCKgfSotYvC08ETeisrTjBB6pj3CsbifGP3HUsILpRYhqBQRMzF2KRjrGYZaebRGrsaPBGk7Y8E1jH8cVHQ8eTDLeZdNSlmnxgeIJBMP0DaN1S1kZ1wcPHhsC89hPOvcJCX3Ex/uZyFnug4XrYiVFx6JGzJHkTCv6eLNx98I5PvQuivlk0DnzA1T1WSy32L2SWWDYs2h+HbqV6/TS/DpCptjlzRkljGsguiiGqc289vHkvmJ9yYdxnZYZ4hZmDqxQNaYlbrN7xJWIBO64OigawygNRiPitBXBLCQYTrcGszg/p00zVOXLV7UJkJszlyoQy7cgwYBardK2GW++KvuceSGCZPYNFwQmjysvMKfymJ29KlZWzGAok0P0VX6jx2qMTMdiietRL5rFSme5q0+iVJejQ9hw+fo5TmdZ9jnUHvuV8Pe35vUwXgoVToTyvUMvMvSJvfPjodmf4jJdlzctPbpCR8OkR46p60SkPs+RZa6TxgwT903NPDd/MbdVkaVlyTpYoFIir0j9na8XKSMOZD+5QSAMRcDkIHB2HjaVts17G3IyScNFclwQ73vQLxHqQAOosj7Aq9sa9GZMKes/kHiYCW2pIrcySU532JlpVDrk3RbRMn1GnItofsyUnnrOKSSQK/GT57LEZQO1vn5edkWze76f1bxHPwfqA75KF4N6QC9NtmjokHFi7Jb7A3bsQd3yPIEtwDyYzYybaV+vWBHHG1ikPuTLZ0md6W/YSebWxtenaGpKb1fUaTNnMc26NQSshDNz+OYVthyqPyAnAEcSsy+LZDGpV++TS5UmUl/w9TXbmVn6Ip7/4dx8/L2vrmPZb06JXyG76+Ujw6v43yGzjRJpdUPGJMWmLVKf8vWNMybYmaJP++omyYaJFD/jq5uTSSmYrSNkom7ZmWwfRI1xG2JXV6tH7Cbz/w++ujUZXphudAXDtSw9/qivH3k4vMK29jFf35bIihHIA4NgNBCv1lKxypM50L3xZHwk89+JUcb1AMLUYTA4fUSWL9toyKQTl+rt7957MJgepeHSeae93ib+wb0hV7Lmz3vpY/UwAxFbr7ieddqiJQ4u+1gc1v9WzPNLWBIptX2Okpny9NYIxTTBMmcmUHwrRNwsxozYObUbXbduqkjdXfAssavbyxJszwx8a7BnjbW9p0HVcKrBm6w/AxKpLKocDRXl/JDHkZM7nkViSOhpi4WAlPsh2DbUDGxv31RejEB15HN5+PO19JII05J2gQqikRDRuFQAYsl+Zc7s1eFsso+XDovE25jWJ3scCez4vTmzMIxKorpE9aQGsQlXw3ZonnaccnkRcQyWOKTF6aTX36ZTXL/NUW/Py/1fMLYz+jpVL8iJt+jaUS/OYWTjhdzMou2NnHphTi3UYIwslPdYoRK9yTblsZ4NYN41OK1Q7/K0UeY4/49EmIfCWzp0ReX/J1892miQerHWCwIVexHGxe4/t8nlUm/kzNxib3ubLqicWookdBjiLNqS5Tjflq4+W52I8yV2fxoz6OeoFfOiim7n1UkDOo0l9mGyq8mx9LRtuNk7GiFqEGeiuUUjt6b/7OurMoNPlsSXfXX1Dpw27IGPYVxjuFdQNFYZ+8tR42AWiSjG2yNMNKEZ2dTQhWsNoTxaZgt6QF2HphBOwgCO2AtHnXFfzMv2RfWynL7BoFqDDOrGrVgvIvXSnL5pOti2ti4cfNvBAI1zMeVFdbNppzhFDXfxpzmAr9JhO/RbTFlA5IRwuMjtbZ56xL4cAo7G2wXmERME2a3JJwC4AhyY44l8Z/eROKazI3lGWLF3eVW6xAgetT0a7m/Jj38Sa9waXODfSH0mpx9D75CksyCRnf6X59Rjgyvg7RnFSf2Y4Tlektwde6JaFpdQZ1TX4iL1ipzOyTc1C/JKO9M0R8ALjJA5iT8oBcvycGentHsgUZSVlBUmQWvr6S0kXxWrU8zqYPc3zmxFOOUs7FQ4b3MVBsl6QfcQ2sK2cI8K5refqEl7F4UQFE0sbhHUE41CvdeHrLDp9u4RTeil/ctxy1ciXmNAMmUn9q+MX5HxxSuAe36GEI8Qltbuy6pljE4OXCnltC/ZorQnZLktgZqmhfo8h/z+lbALrfhJqVE+5bm/x1bukpj9S8V/w1gnpGVZdx6xJuB1G7/Q07jQ8HllDp+vZ7dtoTZIdUIubYNCHWZqtdooyI6pw7b8ZTQgr1CtmD8Yb6/1AOTDeq0gdH/tOV8zl5IL2WvzRfOMxlyXk1uSO6j4pn05br81sOfitB9LX7kfSfO2wXy2wYW5BhezDS7FDRbG9saKO6CHueFeUd4O8+xynEO4nOhFEmnPGX/V4p+r8oNL+1NsMAvXol7PTrHn7qXVG3Nss+7BpsU8xJ3NDjY4FHtsUW/i8l0altFbDNfr8nVIxzcJU6tr5QlZcvfq/hqvzWpmQf7Qon2wZC++zH2w+9Pg5YooCVAuuLdTqMok5usN7qYlR2aB22j5W+NG5ItJpsvlbUyytNYK0LuWKSC/nM1nCU/Yv2y1YqboJK2QnLKTV1mV3pymVt3+OdYz9Nd886xbbTTOmev1q+qB+3ro1RV60eq014XymlQiaPYgySTieV1OyXt+hy5MLxzItmoi34mm1+KZMQFhZtleUEKTrgZocNAMPlJvyKXvuFbjeaM2ITYcYI4e1NS9aFV0ReCEi8wmjqRhIxcEug/CKPeroaKT8xr/GvyRuGrIvT02gNpDMYt6bA0i/tfc24+EXphsSDtc+WiGbDbjt2Y6nhIElOLfyvdXZNuH+WGGZm4A5hkvcyV/di4k0h2IzpjHHCYOby9XOefPvwj0zLu79Imdv2ZWaE64yMMZocmbD1qaLLmFcF3+hrXL2fXqMksoTcN8JXDZQt3YFpyw3/JL8isuHxuGk+lLvVMlxspWPetdanJxtCPv45S/Gch3ZBWa2mogCEYybEjfPHvv3xttsMPg5jtFwCPScjEvL/FVNb7mLLTalZIxM1r+RrZdiV69sEHiF9wneXPr8qd68ut38u/C+l38u7h+N/8urcuf51lev4d/T6zL6VkEtZLcsZ5cbXDtKtAplj3LOwQ8LTRn1gV7FYaX5Oq5K9przJObazvy73W1oN4hvb4qf6/shrLgbiy3+femsoz45tXKWsfwuAWoVGi6ATyixvGI9FZsBskjxXLeFtT491EyC8YCPzqsMaMAj5FePRZRC5/H3cs/jy+vSu0nFIpF6eYT3WOHr2pJy1/dkgF8jbPHT5I/gkv6tSUMAOmTMQYkXxcWzJ/Se8q5ovTz67F0JLeHRkB3yGDuFMRdMri73Z9le2rR/FW2e4plmZmnhU1jop5uuvCMTZM8s1kpte2AvyFsdFrmg3bPqtRkPN9IPENG+OxqoWj+PPo3VepN80d4n1PstNtGLgX7igWoKP13V+SsjHY8eWVgK8NA1LiAfQRebXTaltcaF1MYTTOT6zVopFvy19CrZfsF7LPVYM2+FjonZrwlP/VQz43VrW4vu+4uNO2Nk23qtmKhzhIEKhF0a1YDpp2mReZlt1Ar9VVhELhBrroJXkNT5UPNls86AR0LVcKg0DJ/xPBs9oHPqVTdH8U669Tqia4+jvM1R2rH6fHlirwfbpg+PLGcfr75q2JBPVlqsh0Afp2dgKc4cd4uKdok/bwDN0d6cSdbiLT6VDQ++1Xwp7UamyRPJ4kZPwNYeJtePbMtj6wAnt3Gmyga3Sok06lL60HpHHeIwJ58FbgUGI32q/ZZUo5Od1xP8jGcqbMQ48T2iXgXk9lfiufZtrkcU5wISy2uLy12xXyAUaDTYbNST/p1hl6TXE2CEhtlvEa0ybZ6bbsVBNIq8HXMd7Fh8dfLCEhvEPlZ1I3SQdKbJLVt3mx6EgvrFpoQcsBHCFvSWyV1rB4pUsOBACwWuHMVunPVhsxWtVZo3dsxNWr2xRoQelYz42kY6nKlYImbCXSvVSzbvZP2shboqjkT9ujUEj3GTcljy6w8h3tCUGuuY1ulxa9eDUyA+WuwX3ZhP4nlE7TMHwz92ko9pBu21tfHq+0u0WfzpIrMPWFsz74BG8Pk2CdYz8LScKMRZ7+RmiLub5LxkT4n9rtbomlocfcOMmGcuZNMO87cRaYTZ+4msxFnnkrGqKpk7iFzn2RMH88nlv9+2UPs1H1zusN8i6xft7TJfqtMY9B1snqADXjNGJNu7dgvjzzdj/ol+b2q+byf+bKmOQBaj2eAbyCew7vxHLJFAXh8huTTmzuCl+OeRIFqE043Q6JAx0/Ufknc5Kb7mZHy3JfbVfrldjK6TJxRvLR5Yh8zWCiJ9bjCB9/JeaUr/uyJgJy1kMr8xKCd/klsbQDBSAkIr4B5TX68lB4H8nPHgYhy9/AUf+vYgWA4dnCe4JshLEynPcdoRefnWhDvyvh58vH/5GSD+jH7ADr2Y7yKmVLflsTPsHKX8cKFmwm79+NYHpoW34frNkdmfq+WzuqHmNXLygMKmVqvFyMZpuP3Afit9wiwZH7+FpPHmrCbLZePj11WI9OBD9OBgCCK8SttZE8P4jwVJFL/sSyNwUEUmfTj2SL6YIb/CYY/cr999JLSthSphUp9g01a7ANea8iRMGgbs6c72AVSr1ntrJmN0A/Ph9ak5rDa7W6hKb5EPrR61cRZH+D49xCPTBC1OX1DoISReeJrsjqY+4QZ08E+HVDAxm028PhLt5ahFUGOgNFop9JXZ5SeDfb28VAl1HWGOKXL1a33LyFpOvBJIpWlh4kcwc1GEGRuxqxgCVp4rMpMTK1hgzVbyjdRrYpEIiQq9fAhuFx8IKj0Gxx7LSxXGvJLYLqa/paFDOdj9MdmMzTv1cr7Pz4HAACFlQt0FsUVx+/Mt9+XB3lYQiCGh4HyCAQkobwUdgYMGiURhKS1UnmEGlEaIkIgJUKQ5qEGDkFeEWo0oghWRJSTNtWEAm0JD2MhjceKFAq1gk1yFIuQQtHe/2yYL6enrTnZvb/d//3f2Zm5u58QknwU0bq1pjEs6t6583OnZqXdNi8td1LGDzPvnj9mZOHYhRRD3UjEUk/qTY4jiCQ5wj/psR8vWZCTl08BEbqSiMIoAoH/TLiJ6iWRIFOe+pIj/fdlz8tJSPl/+THAaFEAozTGfjDek5efsygvOzdhal7usoTU7Lyl2YspQN9eZq3gB7gvFZUEP0Kkv2X1r1vf3pnQVrGrtaq2rbw2oW3LJiaKLSZKSBB9RWIp0To52IxI03PmLcnNXkQ0RPwvo1NGtJw9yX4hiqn2m5K4mQ/JUurf7uOKexw+zQnh001+CoTxP0/rRpaPoCawUKTCPyQhZAlllXRWRIciueDDTmdFBlZwIOFj5dW4zoqvw+Owcm5GZ8XpUPys9KnqrPg7FIwz40xnJdAxToCVrf/orIR0eBxZRi3xnZVQTwkT4j8WUa7MPzHK1625+FxDu2/ow2OPp3UvutZS7YsO3OOQvzpAEbxbkjeUK1EIhRJFiqiV3G7RYVRMX4SWmGNhSgldqCml5N6llDu7lHYtLuXrGLZyB4gnhVgl6GeCigWVCCoVVCboKUFPC3pG0Hauf1TQMeE0CnqfMyRVShEQPBg6Joy63NhNr6fY28+0VTntHxjp9VY8rntTH7qFBgqux1e448OJ3wpBg/7r3STBG8wXvJ48v1V8dnDiPcboRJWCelGUuBk3e9IAGkrDTB2fqRMiwiicqJQrBEI+4mbenJqk6/MztYwpnhCEP1zZoCQkC5BIjJ51u25I76HlzIq5QTj2kl9LSBYgkbg/qk097pYr5445AzRgZsUduqxlmomv/vx3rgO4dD2rDgm3vl1VDweiM/jBCgMXrg1WSEA0DgBKIAEl4UD0Ruvx0RTlvLVop4H1bcvVC58PMtF4AesOfjUeCfX5MXVwIDpfN8fxBGPqvmwappGAaBwAlEACSsKBSKJ1Wq3b1O9jJbt8+F0FcP712lsG1uSeVxNGnVZ993TVkbJFyRU6ViemHFbOtaK/qx899K6665d7FfsVrIiSTy4fHqCGV//A0YlYzqvKwpS5yVr+PiE5CPyYns0CkukD3trG99aoSauHarm36s0gzKzopx0AT1TVHF6qVugaPIV7OfF5JRvfy3BfWVivnCfnj1fP5TUpFNkY52hEWDnDq0riXOFGQ7Ih/VdBQJIDyPqrXxd+9ql6o9dJHitWn+5/SMmdh7ro3jNeUc7sd46oBeffVSjyTXO7ibBKAIqR2LplC6/KWC3XVkZpC76kQVpCsgDJm+25wizvISwsfiTFe2QLkEgMSgnVv7jYVctPto8Lwu40oSUkC5BIrDs4ivuD341ImR6ES9c3KgnJAiQSx69kqv4fL1MmyYJMeqpeQrIAicS2O0drPpSsz9+gLDzWtfh2yVfaAh+cTZskpprhvn6xyZVHls7SFjandnF5hhmuBUjYpmZe0F1Knvrn10HgQVxe6+YgQCJx8v0r3ACuliX7J2sLI0J5dyFZgERiwflrbkzxfiWvFk3WFiaMekFJSBYgkTjdv0wNeXC4ln96eU8QRs96R0lIFiCRKGv5jgbJZZ8NDIJJgmQBEp3nZbl0faQe+T3eHDyDhd9+lagkJAuQSKjw+/ECjpeLH5mmLTz67IJ6CckCJC97bWWekiGrNgUBXyaTZAESibBdz6v2zFTtHDh61sDVonC981CSiY+74doBlLWc4Df7rPrjvdsUHIhOdfxwA/x9c5GAaBwAlEACSsKB6I2W/bdk7eSMm23gNy/GqwGBviYaLwCfJSTE7m4woyGatxAwIrTVJCAaBwAlkICScCDyTx6J6bV9eH3eUPKLHXfxinXA5tTVSkKyAMnrVv6meU1q4ZPtPb0mtQDJq12wT2u5MW6StuD/wa1a/qQuX1n49Pg2bxALSCbxdPcHeBYRWuaM09y2HfDynZeVhGQBEp1wSDyXt1592dSo5Pq2uiDgrsQJhwFIJEr2DzH9IwVNCEL5xDmK35MhQYCErhmj/zI1UssDR7OD0JB+RXGzjAkCJBJvpmW7d58tVPKB20a65ROrlfP6xekKgE8o4vq2XvqJbrvNfPX4MxWKd/Yk313OGTP4c/qEulGDRMG+W1T0sBHKPKCFgn0v1psHtNBz+J9diWQLSCaRMeYZ98hSpeXNTndtYW0lrz8kC5BIrMndoY69NEDzj+8FAx/8NEwv2RBnYnumTzuAy4mnFBImRxzkdtthovPaoXQDjz7bxr9Bp0w0DgBKIAEl4UD0RlPhPbSDKQO4/9TeqmgTjRdQHf+5WZOCfWfMaIjOlLnHDeCXGQmIxgFACSSgJByIXocU6e9r0xgWag6P1qYxLEAi+jc=(/figma)--&gt;&quot;&gt;&lt;/span&gt;&lt;span style=&quot;font-size: 16px;&quot;&gt;당첨 포인트&lt;br&gt;확인하기&lt;/span&gt;" style="rhombus;whiteSpace=wrap;html=1;shadow=0;fontFamily=Helvetica;fontSize=12;align=center;strokeWidth=1;spacing=6;spacingTop=-4;fillColor=#b1ddf0;strokeColor=#10739e;fontStyle=1" parent="WIyWlLk6GJQsqaUBKTNV-1" vertex="1">
          <mxGeometry x="80" y="-820" width="100" height="80" as="geometry" />
        </mxCell>
        <mxCell id="GBO3RVmkL8M1SUxiBIiZ-55" style="edgeStyle=none;curved=1;rounded=0;orthogonalLoop=1;jettySize=auto;html=1;exitX=0.5;exitY=1;exitDx=0;exitDy=0;fontSize=12;startSize=8;endSize=8;fontStyle=1;entryX=0.5;entryY=0;entryDx=0;entryDy=0;" parent="WIyWlLk6GJQsqaUBKTNV-1" target="NaQv06OIT9rLutypHk87-10" edge="1" source="NaQv06OIT9rLutypHk87-4">
          <mxGeometry relative="1" as="geometry">
            <mxPoint x="180" y="-895" as="sourcePoint" />
            <mxPoint x="220" y="-895" as="targetPoint" />
          </mxGeometry>
        </mxCell>
        <mxCell id="GBO3RVmkL8M1SUxiBIiZ-57" value="" style="endArrow=classic;html=1;rounded=0;fontSize=12;startSize=8;endSize=8;curved=1;fontStyle=1;entryX=0.5;entryY=0;entryDx=0;entryDy=0;exitX=0.5;exitY=1;exitDx=0;exitDy=0;" parent="WIyWlLk6GJQsqaUBKTNV-1" edge="1" target="NaQv06OIT9rLutypHk87-2" source="GBO3RVmkL8M1SUxiBIiZ-51">
          <mxGeometry width="50" height="50" relative="1" as="geometry">
            <mxPoint x="129.5" y="-1035" as="sourcePoint" />
            <mxPoint x="130" y="-985" as="targetPoint" />
            <Array as="points" />
          </mxGeometry>
        </mxCell>
        <mxCell id="GBO3RVmkL8M1SUxiBIiZ-58" value="" style="endArrow=classic;html=1;rounded=0;fontSize=12;startSize=8;endSize=8;curved=1;fontStyle=1;entryX=0.5;entryY=0;entryDx=0;entryDy=0;exitX=0.5;exitY=1;exitDx=0;exitDy=0;" parent="WIyWlLk6GJQsqaUBKTNV-1" edge="1" target="GBO3RVmkL8M1SUxiBIiZ-60" source="GBO3RVmkL8M1SUxiBIiZ-53">
          <mxGeometry width="50" height="50" relative="1" as="geometry">
            <mxPoint x="40" y="-795" as="sourcePoint" />
            <mxPoint x="360" y="-990.1599999999999" as="targetPoint" />
          </mxGeometry>
        </mxCell>
        <mxCell id="GBO3RVmkL8M1SUxiBIiZ-59" value="" style="edgeStyle=none;curved=0;rounded=0;orthogonalLoop=1;jettySize=auto;html=1;fontSize=12;startSize=8;endSize=8;fontStyle=1;entryX=0.5;entryY=0;entryDx=0;entryDy=0;exitX=0.5;exitY=1;exitDx=0;exitDy=0;" parent="WIyWlLk6GJQsqaUBKTNV-1" source="GBO3RVmkL8M1SUxiBIiZ-60" edge="1" target="GBO3RVmkL8M1SUxiBIiZ-74">
          <mxGeometry relative="1" as="geometry">
            <mxPoint x="575" y="-905" as="targetPoint" />
            <Array as="points" />
          </mxGeometry>
        </mxCell>
        <mxCell id="GBO3RVmkL8M1SUxiBIiZ-60" value="&lt;span data-buffer=&quot;&lt;!--(figma)ZmlnLWtpd2kwAAAAsEMAALWdeZhsSVXgI+7NrOXVW3rfaJodFRF7o1lEJJdbVflebp03s6pfq51kVWa9Sl5WZpk3q/oV4ziICIiIGyIiIjKIiA4iKiIqtoiIiIiIiIiIiIzDMIzjOA7jMM78TkTcJeu9Zuaf6e/rFydOnDgRceLEiRMnIm/9klcbRFHvwqB9tD9Q6oazjUq9G7YLrbbiv3qjHHRL64X6WhCS1Z0waGXynqEO6mVgP6ys1QtVoFzYPl8NAPIG6IaB8FowtIZzNzxXaXZbQbVRkJqL9Ua7snq+G643OtVyt9NcaxXKUn/Jgd1yoy755TjfClZbQbgO6kRYCupBF3RzvXtvJ2idB7mSRbaCZlWQJ8uV1VXSU6VqJai3u8UWrZcKofTtdKZvZxudFuMIpGdnwnYrKNRsCfmrXN6O+OpKvR20CqV2ZYNBVit0zIqGsmtaQalRrwclBpvpTNzDa69cHPf1OtMfWulW6qVWUKO/hSqlrg4U1xcuDSMm4D5gJVV0YXubiQRFD8vdRt0wUiaz2aq0pVO6PukPmru9aAAZfAttM0qIao0NA+rN4bg/HF9oHYyEpt6o3x+0GhSoRtmUCwerKU+gMAClyo1SR3oIqEuF+kYhBPLWWo1OE8BfbRVqQpcrNhrVoFDvNpoIrV1p1EHmNxhOowW0IDImXaxWDNuloFqtNEMBlxl4G7kanTrRCtY61UKr22xUz68ZJis0VS8HZRFQQneyHdwnXTrFxJQEcTo8Xys2RD/PVOo0VjdYZrRSOieiujpcLzSD7malvd51da9x8jYdvLYka6FYbZTOkbtus1JeM3p9PbxqMtIbakG5UgC4cb2ytl7lfym+KYSBHezNDuwi7Fa1II3eslkI1yvdNi2Te8RGoVUpFE3/b2074JEG6JaQB7nbYhK3qh7F8MxaeXQhDCshE9qFc6MjZY+5XD+DqlEmCh+bMJLetCgE+bhao9wxrT4+3O3tDzaHs9324NLMzvht4b2dQiugVNEZNzmaMdcaZj14bTiK+FnCZP0kW25syvhzV5qnfLPQKlSr2AKWQK3bcmJbmEdXg1XBLgb1tW65gEQKpvElybOmOpJZlsxqxXA9YeBGtRzI1K20WV3B/Y2K9PJksxWUg1W0rNxtthqlIBR9PcU0BFUpPx3rczesuD6eSVC1TrVdaRrkVbVCvcOqrNSbRtpXrwf3FaxCXlNaDzZaBry2STWHvq7BsC0oSiM9u6FZ7UjzNxZarcZmPMybbC6Wxc1hp1ajL92znTqTaRjcYnTyEWEzCErr3WKnyEyCuNVMOeYLk9VoFYwpemRxNBj3ayxc6Q5q0m2vMxNrYj4x8K2aMdq6XGidC4S15wYp+unLamSxFbGJZHOlRrWR5PJGx02dhRBzYiCzfqlRbrA+yC/ZKnF2WbQNDQU8ETZW213Dg9zKeqGF7rqcMdZBK7CL9FRwXwk52ZGfXjezfSYstDuJHbnKtAJwdbWDqBphpS1NXNPsDcdOe5fCBksApEKjyhWmhdakq2B0gpLUyAMDBigoNFUMDjg/wUHklD5XqVkx5zGiZysACxssJrGZi5U99tVwuzcaWOmzMbaCdskIfrUi49Toq2mtbfXWD3Z2Btuux7kK1qfFtlhgAVGoyq1GM83q1Qa2kJlkmyhWO9JBr1gonZtH+bJ+S8bkLzTQqArKAVp1mphhUl1tbBqALrRtH0I0ototFZqimbk0x4Jqlcw2kRem5cH2ZNqbDSdj6sSbAS0zv8gVWDPcyrkg1TavOujJ7tKeDvfIxXXg3V0P3Mzr+sHe1mDaGQ9nEXxbBRmqalbuC6ohgKbXbJhC6ZUm42g2TWd4kZkHr6TcDEnXCrI/evTDid0PS2ztALlVOJa7tkbeZQz1QjibTi4OCqPhhTEVEmaKXYOJBdCYVwd6lrjU20cj4/EwXKMaOrGXnl3QIhcZhG+zwb2dSpU9GEMHMud0SkyY9T7yiA/lw4AmqIXs1rKYbh7dO8gvZfJ3kl/O5O8ifyKTv5v8Sib/VPInM/l7yJ8qVVqlbOun7WjPToYimRpORQusKgYbgYxAxwP3ipPJaNAbN/YHsYLkOnW7UhEj1WQnBNZhp4htNrB3n1nARl+N8Ncn0+HzJ+NZb0R1Zxkzc4suGyl4Zzvs4asV08O09sZgOhuy9ATXaFKUqVpstNuNGpBXmxxEg9LBNJpMkQ/bQgHbR4EqtRohK63SAtbB+UCWHqpHzsPFM001CwwFW1hCxcnnsPQkeZJSpQq0UBOLKlUWmWIcZ6ClZP5MdnmDxT6Z1obTqXQgWUVm1km1AbBAWEZ2tLaosFfuRbvWnngldmFQKlVwbWyOXQ+5Zn0NlDrbDCTV4YYkXrMsbrAfXNqfTGfH15CPy4NJZ/NzC0XFCBwe076OEcmS9aq9o8nBbG067FsmObusMhJPO+jZVeandZq92WwwHVMEVaVpVgg22thqbebzYDZpDaLh82GdiMh0x0gm6YdOIE+qtacH422nfl65EoqzIzwVfjW7KYAOZ0ejQThwY2fqWmHD2cc2fj6JLqFdVlc4cuBq1EuysfjtoNZkgzXOfC5mgzBng0SSl+03gDreLTAcve2LdhqTMa1joO9HuqYHmo0S39TAltroNc1dJl0rUq+IkomJAfZNhdLkgA5NXb2Fh6uH2N3k+IVOW3auXIZV3rA6exDNhjtHZB+WS7NQwsHcCOzJw7f5YtDetI4BUoJPaGfRGFyQHD3Cyv1Bt93AyhgBzSFQOia5Umviw5OTEmisNJqTaCiTy34CynVcFYqIvWNPO4Zscyq2mb2GU1ChCVq51BZnReSmD+qY2/ExaEjGLFmatZO8FE8dpsD6XXJiJq87LTNxRTZkUr9UbRiPNYfb3o1db/L5ThN/Nuias0O31am3K+a0tMAqK1fEuzEKsFiha9NepuWrOEew/A13VVil9a5UZWsir2sNTuq4psCehW2BT611ccGAc7YAZ0LI8jZnPPcFqPCSjWPM4dyMcKmMO0m6TNm54Hxc7QTZjYY9Ya0A23Gsm7k8meRZceRP2SZixTlts5wJN6T2mfa0N7ZTakd4Cxsux4R2lx2CrVdkAZliJTPFpopeJRhA6tnDzWqrkZwU/Awq3ilyGZzdE/IZTLIpLDQ74brFOWaLKSbmtZSiLKvlFJFwOiHHaotznFZSTMzpZIqynBBTjEg4nbYdZRIhipmdmUPG/K6aw1qWV8/hEq7XmJYc1jG9NouLeV6XRVqW12dRCccbMG+VUlfKyN2I70hEpVDH6pkleRPHhAbeZIq5OehFrGA746cJepQ6xUqJAiWs44zGpc9kPTFN1iOnhiyxpCgndHOYvK07h1uwVj3JL4bNlt0SltZQT7bcBLHsSBPECQuZBcJatqtjZR7Z3hTzcfIYcp0jEuhT4fZ0MhqVh1NrSei0W2NfYQNAwsZA27qYoZlYg0EfIzYbUB7c12QvtDa1BAdxqkxOr3XYhbQXERyiMeBFpUcTPCMDeqXJCNdD56ZqWekL/ONt8Y/f45+c9U6ofImcPuIfrwUK6hTxIP/4u/yTM5zC2WSfCtsCq+cqve+sNARerTebDi8pvbB3++3k9d7td5B4e7ffSeLv3SHI3N4dgszv3SHIhWZvikWujPsD6nkXDoZ99UCG6Yry7HGBwsPe6GBAHX1gjg63Km8VKdV7ewOl/Z3e3nB0BL2OZK8G8GAyi7anw/0ZOV9oN3rTYY8qB3uD6XB7dXjhYIpo2Z3dEVmhdswngCayYGKbwKaZ+arhfm8bpZ6rS6gBh0GMmMlrYhjuVHkFBqsyuTLALAcMKcEDA+NPoc5mfrO1S739CGVOq7D+zPFSk3TjjNcMOOpJ130Q3SQnLjrxUAHzoBjsGuBChn8zlnu2W7jw/Isnj/cEYPoTGiEzOQlVBZ02S02Hgz1YDbc3B8MLu7M5IsJzMqSEpILvP9yeI0n5cLgwG8XqoDczE/W3uslJkiJVurNpSNxovFIzFLwvoyI1AyXNu9jmAoEecYkXG61ynXSpsNqS8uVy3Ri1E/VOTYa2guMu8b2T7LsimlNlm54Wj570DAdfSa8qFMwh4uqSTa/hFCXptaHNX9faMPGT62WBk94QbppY9o2lcFPSm5hkwd9cKpnA4i2h9c4esU6Aj/RW5wc9stGqS/9uE6GQPop9UuT36HLbnJUfs1otyDgeW1triZvwuBCdJX08pxJp/wmrONGkT1y36Vet23a/um3zX3OvTZ/UtOnXykmL9MnV1aLkv67RNOlTWm2Tfn3T1r+9ea4ucrqjihkivZNU+nlXq12V/N2kkn9qodjaIL2nUNyQ/NNIpd9P37B8nrFBh0ifWaxuyvx8A6nQPYtU6L6xcG5dxvHs0llzgvym0qpZUM8pNU2+UOq0hK6IyyD5EkZS0vKq5R8QBJT+rJLeSbpGehfpOs1KexVS4X923Y6H1takP9X1xlnRGzxh4+fUKzgkpI2zzac9nbR5tvl04XPv2eYzbidtnW3efjdpWD1bk3ptYshC32F3lHnZECeJdJNU+nFf7VxN8OfrVePe3V/vnGuTfjMbifTrW0hD0m/dQOCkDzTDtuC7pIJ/butcS/K9VnNd0q1Wpyjzvh3iSJP227Yfg3bdnHF2mCaZvwsbhNRIdzds+XDDjvt5G+eMvlzcaLVbpCPSO0n3whALrtSYVPIT0rtI90nvJv020qeSTknvIY1In0Y6IxU5HZA+g/QwDLH9Sj1IKvwukQq/I1Lh93xS4fevSIXft5MKv39NKvy+g1T4/RtS4fcCHYZ3CsPv1KUN08MXCiAsv0sA4fkiAYTpdwsgXF8sgLB9iQDC96UCCOPvEUA4vwzAdPV7BRDOLxdAOH+fAML5FQII5+8XQDj/gADC+QcFEM4/JIBw/mEBhPMrAUyff0QA4fwqAYTzjwognF8tgHD+MQGE82sEEM4/LoBwfq0AwvknBBDOrwO4Szj/pADC+fUCCOefEkA4v0EA4fxvBRDObxRAOP+0AML5TQII558RQDi/GeBu4fyzAgjntwggnH9OAOH88wII538ngHB+qwDC+RcEEM5vE0A4/6IAwvntAE8Vzr8kgHD+ZQGE868IIJzfIYBw/lUBhPM7BRDOvyaAcH6XAML51wUQzr8BcI9w/k0BhPO7BRDOvyWAcH5IAOH82wII5/cIIJx/RwDh/F4BhPPvCiCc3wfwNOH8ewII5/cLIJx/XwDh/AEBhPMfCCCcPyiAcP5DAYTzhwQQzn8kgHD+MMDThfMfCyCcPyKAcP4TAYTzRwUQzn8qgHD+mADC+c8EEM4fF0A4/7kAwvkTAMZE/YUAwvmTAgjnvxRAOH9KAOH8VwII508LIJz/WgDh/BkBhPPfCCCcP6uPx5dw0WZs1+pupWNXzRPftNbb3xdnSXs708meuHezCf96xdFkS2m9dTQbRMrXNrClPJ/ry13Jj8Wzw4/r92Y9Q7uo/I1hfzBRnhfTRHd1piMhavai2SCcHEy3YeFFU7w7HBRxB6fbdQnC0CAoztgl8VwL/ecR71B6aSYdx6eMdnv9yYMRoLeL20K0YBcfE6+1P5j1hiOg3IDxRuKI4L0eEk0YENUCXpgN9kwY1BYtHg63OOfSjWXOkCIX26y7hFfeif+/TW7jnU0RBvDy1lR4jmmZ3AnTGeXdYCbpKqW3RRDqucqbiDc7E2ffPxxGwy0Ep1WOxF0qnVb5CK8/Ujt6Ad7jaGcy3VO7anFoZuylWi0ZqL2Lqz6WroNa7o1BcoCpSJFgrrIY3Eu8X6Z2UV1NPnt/co06YTG7k4NRvyT9q/XGIOjPDdMJJyEq082VSKoAnNwxsjWUbkpfodWpfRnpqinCNqvTg73J84YlWmgS2EbGi/rMoVGkl2l1DUHoC8MxpyVpeXPYnzEwde0cdt16sovqum1pCWdZvTmnrhdHuMZclVFQ5eUvDo7UWOkdsNXhOK7E7AqmPLwwoHc+JxVy1n1+vspJxvnJeW4pyMF8aMfp+b1Lw6jdu0DDWsC6SA1dj1eXiYXbxq/d3u3JkWIwjaDQSc40VCnLkL1I4MbhYEpIdtDuMb/qXZ72RyZOa8J2W8w6F0kjeh+xiej8hdHR/m7E7qEX+sllUMTeoRe3OGJe/LaDiSzeN2l9lWWzQQcgocdLOwwmkc4rtV7e6Y1GW0TkVimI1Fif2EURpzR2sTi5BJfXar1CDuj1vj45S4K7nICn7oSYV6ccftBP5Ht6NLkgFwGGpD0pxWNv7OxEgxnWRy3rM3vDOPqX1Lt6jxz8beuv0/qaPkezw0G/ajrxBl9fW7aIVM4n7TCdtPSctLxUWizhOWmxmOakld+hL1nhLFwui0U3UnjMSWDJ4TMSWP5/kMCJ46Nd6dvBVU3/Ge3J9UwflJfbInLaj1SfA7e1se507u/GdBwa8kQZE8YsgrRSlHaaKAS2JIb9YbTBsQ8SggG27jmWzqLKF504lbeE3bMnUaT8oFmULCQpOw/gC5CMPie5QrQNK3KLmMnJdFDNXERiFXeG02iWyEXaokPZ/MKaTJ7yFrcne3s9hlC0O04aithSdgUxaMYgE2i0gPYvZ97rHzp7vHC57VksJ8rBVjUl3oK8NPKKmcvO6LQFI3Do7rmKWB1kZtC13pRJcpLOdssGdIxWSU3J1AezByeQu/EgnD2k/3wiS/yTjOpyuyBbNzc3yETLxEfqAa3Do72tycixj0yGdtnRLRwziYSBR5hGNoqQvg9WEQ2bDVMXs0UrjVfgeWgCHPbB4V4SCkBWa4OxbG9IyLU1yXLWB9FglTlfE7eDcRyNTTBG4yoMd3Ya49FRC6kf9kaG2i9bPa/s7R3MZHRm97F8vXm+ZJz18goRK6fSp5eMH82aDqF5h9baFQSgjmDQk6yoL1bXwJU+Tqmr3xrsQHLRlsbMWUimEEJvUSQro+8JRsjfSV1WzozBTQ72K338WeWbGQJ+NyvGSprMQxqfQDYLhkT2PVotxNnQcH+fJuyZZeXFK3i+udBxf7jiuMGHKd9wjaII/xeKBiIQYVf6/zfKkAGUH44IV+GA5voPV97eHex9hd6EmB5cFWicDswEhv4Dem6SUrrmVJwfb2EmmY2EAi837a0Rtzdjo3DijJgtjalrgyqJ11DrjQ/YAY/CwYh1OWApq9wwKk6mfefAXIEgHx1sSQhziz1IGndjWEj7Nq+gH0FB58oCCkRNZ5KnkzJGA9sxfYg+hxguWUQyy/AfEI/FcnnLOzjQ56zqRqYQEeFEH9rxr/dwwAmrioibvWQ5R5z+2O2cS58fDXFMp0ey5tuT0I0FMkFwQtcLWNv9yXgwdkto8WC8M5LbYrn0y7JcGkaduMhIZtl2uxTXr/Xw/2PDtx1jLVe9f7A1Gka7MJOGpbvtSXvQ26um3ZNGvOON+BXONmLIY80NZzLs1BwJq8ZO+CA9xcA4YrFiONdzXZg3NFfmu3Hn/xNn9obeKMzMSFzFsrbvi5R3yrj510lP0C3j5htvAIvvT9kbD+RMkEv9/TxJ4u8vRPvTQa8PxWK0O3kQWXNSKQ6QYF/MM+RLlscGmxKu8LJpxGVO2Mout3LJASePHHCqLWcIs6lWxjtymjNd3VC6f2CNPu16KOhsIgXlweFwO37wEN+jSIDMPMrQJUKWJojrGRxXKxKCJ4/dl4qt+NjAzuIql0qbXXMo1scawemRjPo0Yo7c7shYkFqlz1QOd4Zs7yg9tSzPz7CGG4gfr7Dp/IS2MFBLye254jYtvnrTAiclnuTiCzif+x/GEVPmXDYhzjtETL9gHycCLboOFHGtL2DpxdFiKbDh0htaSUYtF9TcZtlLZbnYc0+c9GUM7BiSmgQ/K+Vu/ADvcvICOorzIwrqeVsJ2nD5PKJMUSVRE9HFeo/jrJGhoVL5emGD2Lu5plDcLbbsC0IdbpqAvydplzsRQ+C7S0ZzhZ8LOCNLGALOTKdYLSji95wQqLC1Zi4wCBI3Ydtt3tXduBuEZ2uGHKqxDBj4E9HBzg73V1iMoRz7TNdYlNt48TPxNWbEGZUfHV4QO2NOY8w/2UrZrJt/ZBWRaxzMxCMVw085Jo7pwPMTv4T8IhSrE8IUoXlqhd26GIFewqcpbEWT0cFs4Dw7jNx2dlR/r9UJ1+WNNdek8iqr3XoQuIvBQnWzcD4E0FVzTpHXN7EpuId9kEOk8rDhyar3xwd7IfaCiYgUvryzEYQbIosNZRngxl44wCpOXQ4nmX4xj0v7YiynY/V0tZzh5Bb6CcvN5VYiWyo8HOpkytVhTq2xn6BG5uhLV7VlQZvxZu43sYwQPIgtYtrMO/YlhZWbc9vxoWQXNj5xKGBbRCA3Z1al5cUbCddsrcY5wXjuRbgfrK7ap2s5LhMaLYHy7q3SAnaQPcfwy+yUti1r52MHwm2P8eYqBMw0YxXNofeRYFyViBmNrQd5TybbFrnLYAwvywWBgzCaLzPMEO4Lyt3N9YAVvV6plruN1a4t5l6vGz/KZ4Ss9vOuRCp6hel20guOaAixML6AFAlJsQNkst5wjBveMoaerG83nSoHP+oeTIf0UPeH0f6od2QWw4o44CZrdJ/+N0cHRFFca/smgySphnNOCIMKF+1Am6asNRj1ONvu2gq5fYO0FfYGNnxGFTfVgLhXZZwl6yvlagej2VBaH0xXh4NRf8NOBRO0zYJC9iiDzt6SczXOAOVgUutJbE2p5LWPex8kBpvEc1bZt0YYKBfb4XxioRekTnfugn8xaSAY9/fl/IcYBg6UjZRu4J7ux5O/xV257ckrPOUnlQGwFaOm1GI0GXK7oqkGiaUVyYdAUo6rXCmXq+atFbbT6DJ3WjHKvtmJXzzZqrWh7RzNRCCFyyu97CpMqFEDTBhajFiCarGxaS0QC6rgRMPW3LI/Oklr2WXoJZuXufNGVYF0YTx2+yoWjwjD7MhS3+QWq/C2i1VzXWleS3jJg0Cfu7pujM5JJinK1wr3JUXsm/elRYuWZVK6VOLGNWh1uS6rdGSxLCfm4IQYCMRo3wSsmBw31Ws0lJ3yk6tA3dVCrWIeyZ0yWXede9pkNuPGz7BQg7QvV1WDNprUlSdprGAwVzNp7NQp4hqLaBbK7n3jtRZRs0/SrrM50yu3+V3fkMrmUviGUqPWRL0N/sbLha08PRN5v5b5TktRhFFvayDxH71vKeWg8TrO9ylRbdCTKLUEc0SrQzHhKmfXjkrWjHaryIvXjn9FDpyKjaHXclsg7IC92cRBfow1jbzBU7nZJOzt2Sz7rzFZDaOuYk1mnPxR2wX2whi9OryEvWATc95/bXI4cH7oZNQ/Z+wR0QiM9WpiiL0M7fqQYPj0qEIMniqRuXKQDlVMp22+dMz7x70cjER4pk8m5nYRAze21WhvJ21qRJkzpxLnutgxwbfc5rB/YcA+weLEknnEcUxdmgz6Q+JsMoDcbIidnPX29ivR5On3cDMKaxyLKYTCmUEJ8aBfkGC2v42bHmdyUhCvT78cyG/9mCK1uV5pB8VGoSXrWJtXZrIuPHazi464UG2uyy2yPOgSlQbS5kca7hdY7sDuqOuoIEgVosHYofg1pflJSpzzQowFWhGiHGw9uIuuUrHDRkeq5wjs4HVkMuod6G8d4RCQG7NheC8xZ1QRlKQ2nP7U/d1eNFALyjOARd6zz14dv0V6nvIzWUvwtJkM4QQqR2pRTx/bmcpLalHPGEZNe96U2AA6+VbN2YyD7770GNp3e6NUm0zf3+SpF2SRTsXUmz39Y26H/C3jFhQkkCGxhV/W6n9bv4MtZFHd4UDbg8EwCic7M7c1hlJEN96muUGYjDv7fSbdde0Xwa0OR6OY5ifIW780xvwUmMahPWBKKptEXPYl24M20lBf1lwtm2x5brC/FXtEwD+nkckV3KEXeNwiZ4pS3+pfNNfKx/yjh7zJ8zg/hgcsJ9RgOjA2x+z4wunP2bgOa5PJeDTkGmZ0FLfwSbyZXSKBrH83XiT3AIFwh84M2xS8IS5IRmzQPxOjnSeeFLw5KTAH8LTgZ+MCccZT9FtidKY/nAtsNyj/NR0ZZB+kkBBOUh+0Ajc4SxiX/GGmRDosuA9lcLZTgv2jDFZ6JLgPZ05tzR4WJlI/pPVv6yv2sJiQ0sv3oB4h687GGNGJv6bbcbZp9wvO/Th7DYlzReo1vv5iPNfGnUwn+6NaPR9uBju/gv4VUFIhGxb69mzBBvytinyHRSdWOKNrH9Pq1S6eNa+oP6AP4tgP3LONvJErPWx652GKPxuHlxCTmIKPxXkzzX8mJxPbi3NmIX8ciZXuZFB/HtMNEk91hft6e/FYmq/05ZSLCLU82InUlz39MjzbDBpRRuqfPP29nhugDPjntfq2NGsNhEwFG6OTm+AldPSvJ4dmnRPqsAVmAN8/3zQWiAsW2acj9c+efjnxEQKJhemgeLDFZIkj/otJRCqUsBYj1l/ScygiXZ/Q+p+NQTbHubdoNYkztov7cYWqbJ0qr37b20u3kV/21L+Ya1U5OrKXXx/DtnIF0927MO3t74r1xqVYVjccQ1nCswk2ftG5rG48jrOk52YsqwKX9NmfLX21evQV0LZCOynZYBHIDY56knrMZUhL3BF8ia1I3aAeG8O2aEOymSujm9Tj5jGWbBNfIb4To2NpzhZ/i0iozibFFfXXxLAt+lbDTpTg1Vo9Kc7YsgecprQdVr1Gq39vJM+BfdgbE3fZ25uMqxLMwX+ToMW/mSvFW7k0O+hxakwpXsCCSkjKQ1bhQMbB5pel+s4sld0RRV5ZkhdmSTAwcmEP+ruy6BCvhyV2/2A6oehF2aL6gX2La98B76vvvkKh0wE1VS++QilXScYPUTP1kmxxSd7pHqqXZnHJFnZJfY9mZ8YixcxH6qctZWIHPgBFj/HYC8xb1Hs88WbINzkfI0/DSKs/jtFV5EP+Tzg/Xqoy9RLM+St2QtM71pxzjD49jzLOxzs99TeezFIHR7FqwkZxPxbVH+jZ5ALRgH5j3Giv4i4iqYgJ1H+YFHDjNlfyIZ3cD6vf8NVfaTEWwu0hX300VR1BRepVWr/INF4c9odpsz9qcG170S2oZ6lXM9RovddvtattyhjsG72B3K1WODLLFYz6VE69JPOAZcGBVpGfSdj8ojFPixay6G9I374sOdAWPIuaSTh8OcnYwm+MMDUcu1cktahvIkCYPIw5mWRs4XP66CC2jSkfcxV/KpO1BIU93Gn6dpWkFlUWsBI1bDCRsmvmEJZoVXDGIr7dU7+Z2cUbdiwM69rLkLbqGuaDo1IS3bkum7ck65HxMdz7lGV1SzZvSeoWZSyaerR6ZCZrCe61GBaEeqy6LcnYwpbNm5+bPl49Ks3Z4nAHxyP1R56YZm35/baCRQnFV2URluabB8bzidQntf5aB9uSbiqYkgtn3nkMZQl3pN21wWRvIHdp/6z1XVmEpblgW46RQnX3PMrS7cp1P0sWtZzsVwc7WMhU6oj4B3WWoCWCPkbxQylFcTKbTfauwOWHj9NcidErU6K0ZCi74z7KzppF537kOE17gltAaUryKhMWwBVmmUbYe0aN+M1K+1E5exa2jgW1X+htTcQBYXzrxtkA95MOZ3uboF/v0DLEBPlTDmnGlGDf4LBMLl48ii5L5k0OSVNWaRn2zzicbSpBv9mhpakE+bMOaZpKsG9x2NDMr0VjSrNC+Tlvl93KegOJTGbqNnXrlfBWNZqR/FxRjIwqKsy5y9jC55m8jAtjTx8uZvOWZGRQzV5ftg1I9rJ5S0KDoErMBKbHLFK1qi4Z5NkD+/PPdXVk8ra0rD6sTXY96bZjSAN/bIuw2saRSQs+YguIWODanVV/YrPWGyH/UZtvsrOx5YfD50uts+pv59Cm/Qoxlogufc4WZTtui8rq37ui3eGo76quTSfym6W/syWuW2YKwf6HOaxVAtCft2jDxvDnEn4H4XzB4uO9myqqqr6PIxTIFp7pNBrcL1N/iUn/fos2v0etq9+xOddnN1O09F5vbzhm0DixOfW7sl/HmffN1TC9QEc4cMxUU/0Zl9PhGN1e6+2xlnpTWWAf91Agd5Uqh2DjsH+vLEh7qxlKfD8peHlaUKSdC6mdw/R9n05ZGbfgU1r9WAbXphZXtK/JoMrpbe2Pa+J3jM9Q3adem6Fq4hYMpoeD0Fxl0Olf4UBBkM64IYa+pd6RQcnPalfUr6Z9JXYmV7Of1eqdmsUS32y2KVJt9euZptpEvyYHMsu/kaWs9cjwv7FJv6nJxCWZEbxbgjTchZg8uyxTO+rJfd1DmQZC8y41RMlmBfOWVYzMH6VdraSsI/Xzvv5MWmSmAgmZAJ56h6/+h7bXG8arfqmnP+jyEiHE7bF3IC/z9F/EspEjPzzUD3jqH1JcwDEczH9NMVVGak7ruExcSSZ4U5utl334v6VY6lvcP6W4ElrHZJmusq96+n+lZeJ7JZcEr/LU/84UMUz1Gk/9N6+XxHUjbLj+L94e6oF/KJ5ghN+mX+BzQj/29aGT6r9og+2gL85YLKv/zryYE8gVnm+9XRMgetjiDRYnPVAv99RHvDGL4NijsrdpblS3wXNluH2xyiZ3gCOpXumr7/JGOK8o7uFw8KChfZ/PWE3nnE+Kq6sZq/OmSwhMhpbsRj/OFWt/MGmiQlssNfUbRLhkde/tG3bv9dW/i+vSTERMT5bcp3PqH7wHTZxX3rRxPkeIAyyG+sEMumQ/ZrHIxFhk2UogPNiaTQfxty7e46kfduWl3jYHoAIMI2aJjnClY0sq4/2DWXK7+DJf/YQrkG2euzQW4uscZn1yiBUzavWQp/4t1mjT4ENs/0WRO6P+aUQkCwQxuG5w6W3JTHVI/s6xqw1mvb6I4uW+erHDBYciQ/VSX7/EYZp4FuwuR7XB+MAa/B/y9fd4Zp5bkwdjqxypj3mEBAwae3awN54r+RVbQgWrVZH6hMdhyCAt+absVAb9q0QJ3RrGZMlLKuZ2Z2gu/GUi/utl5U1W1XB7uM8JLyb6Ry+SknB/gL2e1ieiLSvqu33z8ApT/AGt/qclaQvGVPugVv8rgyPAxNarXuz3hxKL2KMVhFPpY8b/I3F8OaS1JpMZ2c+7bDxkWvoC17CmVtWUyBW5WWF/76kvxkWOodm6/sFT/znG2yrN3kGEufxHjzqEs1kX5aFotEzhl60IOGoH44O9VdY9eqVe5av/aU0rBTKiuODVvvpOwlTsaajsCQNYZ+TZPfPVjzHLFa6n05wtLsrCsXtUMJapEut95jKkJS4NTDSWuTLrsGGfWlx9OdaSBxG2sILZmprHqZiZm+Yxlqy6N2Q81SEJJDeTuJwtrs3EdKELF7HrEDwim7ckjS0W0tx3cp6oHn8cZ0nvY4GgSFm/EH/xCZdjLfl5Dv59oujmwzK0p56innwMZQmfa4UQEnAAF7F36K+bR1k6LA2RKTMJkTgkz1RPmcdYsq2RURCJHBNr1PrrM3lLsW2fHYsOEBRXt6dZW97fQc1Q8OgioR8zh0xVdBnSEmPRTNuTVeZAK/aQJGsJDu1Yikjd6kVcH+oHJaTI2vuS1i/TSM7opmgBZa/QkXFI0h/p369+ku1ADjnhHktrF9Ewqa93dIQ5ImIMW+pN2rbYFuFE4caaADD8BUfIRDFP2+biBZmqb2Gb2k5x9B4mv8SFH7eQxt2cDsbx4lrhXsdySYzyCz31Lt1zLzZe5KnfiTc8G6IVdNXMwIbb7vLqvXpMXaJkZM26/6JWv2sCsKNjz9Q+p9X74gLxO8SoxQT08vfislS6FZEiIxGCv9Pq/ZdTFNLHYF/Q6vcNAcphbjcfUH9qZNHDRZlygSNydPdPcpQqjHFHZQJkc/2k9bxL8KRJ5CbzcVb9ZcpAroCEw8Mw+JS+ODgifHbhApJ9l68+rQ8nOJKB7DLN3SnxVeT9N1p6Kvsi8Zjd4mBnMsXhJDonA3xA/0d3VVDFH4jYqPR/0jOmW6JtInn1Wl/9ZyaEju42uEhgndJRXJAJdpHQIzAd+W7ciWiWngBeStxqa9A3DN7jq1d4BBJ3awMMsEG9KodDh1IwzzLLdM9p0ns99SNeNNzbH3FQi5+ENnvjwUiG+1qvt81ITMhrvV2ryvJ4R0691ZNgWwuLo96ZU7+QIaq6a/23eYdCAsY0/+YcsaQYU8LqHOwxMvGi99X7PfVLSZkcTotHIXs5JR/y8HHiEsFRGKm35PQ7s1j2vvdp9WsJqjUgNoAuG2V8TY5LiLhEumKujfCjc+rXE3ybWR7XMRV0/FMJNtye7EP5tpz+a7Yadt4jVOQSbp/6nGdu8kNzK88JSL3I30KrmIiNuC7d6ku3/od3rAT0Z3NccnBfw4q0ViK4xFbSl1JE/p3+FEMRk59DwVfUC32xwpOdnZA5O4hENh/Jqf/gsYVSL15cgv6Up37PoWNvSNCf9RDz3pC9WAgtF/WunPp9+pG51aX5D3joDFs4nuNbPfUHjJyjHC7TjtxDPZRTf+pZzUR/jBIznoc0DtG2WJ2WDS+n5u+9OfyfqcVat2BF/YXXn2wT6SagneX9npz6S3hzL4PYs08amHFPf8a6MQXYHlpnpjrcssL5rFHGwmw2HW4REorUB3Pqb80ozAyaoXw0p/4TvvEe/lTyCYlv51YrRrlPRnyH+u8IBAXiaiqiIaZREfm3PxBN/G7P77F/7ZOlUO/RUq86ke+XKI/jgpGiXxOs9BYhqGV5Iar4r1nohPLkQLcba/JOQfDdGOnV7Aeo/E7dQTlHJtlugs2bzyCvNlqb9v3EgskXC6VzDrFoEOap2RJOKC6vcZStn+0tIG3CKkN8F8J+WkfGyKWI7A83cedWE2orjBy4MFPFYvPDqGGr2fyCbbfsdpW5Q4SH1DEWHIjlkQGW19hiQC/z1k6UNv0Fwvs8recLA0qOYHXRqED68i9eN2Wn+CmPD8DjWGlAEUx8OcfZq376c5ihEbuV2ANL8UFP+RtzGPXoWiWUhyfIWx1/6qXlg7RrLflKc/riykuRlXrZvp3y40dj8cutnH13ldbKW4R7pxW/6ZYPIGew9nnU4jwyfhq1NI9O3lAtb1TCSrEqymUfpJULbXl7sxK/YDuZvCc7lXyEV5oynegeH/PpeRrT+mVEZ1Ii248r87rqMrIrs7u62GiVQUiDiQivcUhXM8Ff6/CmxQR7ncPaBhL09eaza/V2Vz7FE7TalUDau8GKstToyEPNzCzdWKukTwZvkneBceZmKUkEeYsUJblHmEd8yQO/W002fhb4SJMz3WhXGnVp/rb0Bd6jYm2U3THZOlO9/3BG77MkAeUof6LeYFmQbFnJChBqUA8orwRktz8qZnh/FN5zZQEFwpR1OsPr2VNvzwk/tzjbwpUTM3af83F220pZfhyWD0sXQCTsh316lb5wvYy1+EiQZ9h+8jK2jiaAIGUZgcTweQWzgzZdA5BlWH0aVpeVBxSmbPZdgfTMklYINBiHRJ6dmedoqli13wR3zLLbddrY55LGMuUBhWljgiQEErcU02Hpxz3j0tgXmJ+BguMoVrnOjJl59WfENjmgskF+3lO5Q2IKJvMFT+X3DiK2Rcl90VMLlnU7Iff0TODqYHyBaDxW0xJsxBw83OIZjh6mPS2tJSzZAiY4BGXpXESnZm241SJIvXI2YpAEGURq9rFe234NTTu6bMRBx6/55+TvCC1DF4IQdjBR581aRoUzb1Fagx3l5cfIyJp3ut8f7NBX1sHzJ3tbw8Fqz/7kvG7F629nq9eTil9CpNmn5PnSlelULjW/Kmt+tfxkpVUps0N0Q/MV+i7doPOV+nrQqmAvKtWqtRK2wJ9rIX1UwxYXD8Etxn9BGVjmGybDJjdfsywiWLaiHNtBEp5Bor2RrUF1n608Gx7K7ZuZcNUrUjc/k6l7ga8WsmJY3J/K4yyOIYZXhHOrlrJ9WZ7ri0V7vsQ3LIyFkuOSzbxa299w2BwqPVe5LR2Qnz2ZDy0Z4ZLo+EdHCBIzXi8FXfklEIj52s1jHUVrWZTiypvsitZDd16SX9Q57It87VUy6Hkm8JhJn17sKzlIIrevQNwWSuVlX1gr+osvKN/qlv5q62YFcvrEQbBfxnSf2FTmF1mkWobdDcoojH2c7xXabF7rQRndgUQ+KRp27Z+gkGI8kQ5bm7TUyeLdY+H58K7y3XdRWZideqnQDgDtu1v3atez1VKzNPeTDQtvcLhGjQzKRWnrVu/8TZOT6SBmlcRsrWgWCyXZEGlEhYH4VG0zren8ltmynTh8g+yGQRWHwpQ67xooT1dFUs5rzTbGjR1HmclUDuLouYd3bAC6PkMj8UgB3RCz9aSTrKF9h3KjydYZQmGG8Qpf+cNtwzNnuUfqB3ydj0zTg37D4ChlGbXt8xjWwCKX/jsglzBGbGlctE722NiYEi0riH1+7gJCXdU+3wzCUqtivmWmSk2ZNO0+8eWVQjGE/tnCRiGhycmBnzR/NjQyXjAe672CWmyeb68b5NKaGNLl0KBPhJsV45SunGvIo22gk61OKJhTxYL5WN1pjjzy0VuzEM9UxPMnfBZkYr6YPfsaOy4sozVxIfsOibGbBYJS8jHeh30WymTtOyRysoZPVq3XxnpUCZ4IY+XlRoBoHty2DjiR23uj1/nMELsKfo1IP34vKG/nB/UDIi1TcrliWkHljPdoVorq1NOMTlx8Np1u1X5Tzrd9GNtThndiBGjYvBHDEMlBDQuaVyeu0AW2Tgk7JGdsDq4M8E2+Wu7Po96MXs2jRKIYirf4KtefPDhmW8R1SxrLo4MRshiMt49S7IKIBzFPZw0brMyrRXnePY1M/xs7VcrRuaWyPevND0zPd0D6pKXUjFXljTIgDuXEFYtHJwKMMZ7xlu7tNIyB8deDAsVAufBK0lDxF6lV1Xx6TrfMFxzxBebJPFusbDE+RbbYSQsLXbMfkoZEBfclcPo7X6GM45defih7n2a2qPxW1MgWROqXfT3/07KIicUFlU8R7UHsjCACziecA8PFWxymLbRBc0XN3pOg5u6iUdukIHMV7bPdtNO4Jc7eZWHLPOFkNEAqiD+Gu0S9hT2JZKwTGQdFfjHp24Y7JrSNU8lcM/D3sDmXJmNiLzDpjQqmF7Jz9hyEEDjxOwLZ7dOfZBcMifJuSbshThJLE3GmuDakagNfNsFkR8mVMDu0oblP5VIa6b0dUGaUoblYPHbzLj+tlatnyg2blvwwNcbYdwRLEk4ZXTG6vXx5lPxE2iD7O9fQxJW2pwT/aGzF9neV618pV8v6JOtn2rMEbsVtqVMzI+NY4kYkp+dxG2Le1Gtz6oyZMCfMd3vqKti55lu0PrOxrLjH3GdhIsed6agyrg8e5IgE6pp51uptvrp2HmVWN7N3nWksvDjcb09ExMj3+gRVPCrsmRPAsroBEdo5j6imb0yyqY683dc3HeuqlUKmrzcfI6jEqn44SDw3CVvfkihVSL/lPqppnhYQ6nEbMYHkzDP99NePeBxulZS5qN8eYKTOBefjnyph2M/V8Sc499cJ11Srxgbp+4qN+7q4aMBeM7ybxGcnbJfWJWZALncuXXsmZCX7c6TyGrU2WNfWO7EW63TaPnP1vAPzIy3zoJ0J92qMjj5ai0dT2b870Wie75Y7YptiF8wSi+2QynrP5gf9DhpY6cPXS1DFowTp7xCLPWc801xkG3q3z2kwJrWEFWR5RkyDw8YMLH4xYH+0NxHeKTeGaLrdMZA3G85QKVqaxR92swW5B+W+HF3J79r4LLZnIIzaSITyxYS+Im9z13uR/BZ6aYf1hjZlceJ1HaLlcvV1gkvLC0PUTPYl8isIPjPxJ00LG9byGgGcQmPcgwrPPzCjAivHWbQodIFLQXEYgDAdOyi/yryxxpMXHt7SgRmbjgctHkncNc5k2a7krji+/BXGtzBPuenkdlxAsRSXNuiOXGnh62z3xoe9SG6NBu7pJFvGPreGI9dtFo9n8uWBLDQTBbaV1qwW5mryt0/Y5rZtNPfJSttyw7Q62e6Z8WwpL4MO2fRYpfZzXv3jHC2ndfPMpYVBpPoip2UC8hc500PDEXzfrF+4hsdsgnmEAxd3xZmYTK/NxLO08J8PWVASqzefQQFy7erdyYxA/8xlvYgDmINjG5BUtrOZn9ico/pKDJhna4AqsYmajF1ZzlUrYrD3OU/OKn35qUo+aTNM7WzBVLStmx924giv4hSii+3J/t4E12ybyLpoJP3B1mVsNDgUbh5nOKF6U3dHFuMl1IdvTCgC5ZyE4piUuHK6YCt4eculDhVcaWkYNZEDvRB9STKhqBQYnxmVYIDsCAR1dK5nhiGPaM1GHMnKYVbxc7DiCKgfSotYvC08ETeisrTjBB6pj3CsbifGP3HUsILpRYhqBQRMzF2KRjrGYZaebRGrsaPBGk7Y8E1jH8cVHQ8eTDLeZdNSlmnxgeIJBMP0DaN1S1kZ1wcPHhsC89hPOvcJCX3Ex/uZyFnug4XrYiVFx6JGzJHkTCv6eLNx98I5PvQuivlk0DnzA1T1WSy32L2SWWDYs2h+HbqV6/TS/DpCptjlzRkljGsguiiGqc289vHkvmJ9yYdxnZYZ4hZmDqxQNaYlbrN7xJWIBO64OigawygNRiPitBXBLCQYTrcGszg/p00zVOXLV7UJkJszlyoQy7cgwYBardK2GW++KvuceSGCZPYNFwQmjysvMKfymJ29KlZWzGAok0P0VX6jx2qMTMdiietRL5rFSme5q0+iVJejQ9hw+fo5TmdZ9jnUHvuV8Pe35vUwXgoVToTyvUMvMvSJvfPjodmf4jJdlzctPbpCR8OkR46p60SkPs+RZa6TxgwT903NPDd/MbdVkaVlyTpYoFIir0j9na8XKSMOZD+5QSAMRcDkIHB2HjaVts17G3IyScNFclwQ73vQLxHqQAOosj7Aq9sa9GZMKes/kHiYCW2pIrcySU532JlpVDrk3RbRMn1GnItofsyUnnrOKSSQK/GT57LEZQO1vn5edkWze76f1bxHPwfqA75KF4N6QC9NtmjokHFi7Jb7A3bsQd3yPIEtwDyYzYybaV+vWBHHG1ikPuTLZ0md6W/YSebWxtenaGpKb1fUaTNnMc26NQSshDNz+OYVthyqPyAnAEcSsy+LZDGpV++TS5UmUl/w9TXbmVn6Ip7/4dx8/L2vrmPZb06JXyG76+Ujw6v43yGzjRJpdUPGJMWmLVKf8vWNMybYmaJP++omyYaJFD/jq5uTSSmYrSNkom7ZmWwfRI1xG2JXV6tH7Cbz/w++ujUZXphudAXDtSw9/qivH3k4vMK29jFf35bIihHIA4NgNBCv1lKxypM50L3xZHwk89+JUcb1AMLUYTA4fUSWL9toyKQTl+rt7957MJgepeHSeae93ib+wb0hV7Lmz3vpY/UwAxFbr7ieddqiJQ4u+1gc1v9WzPNLWBIptX2Okpny9NYIxTTBMmcmUHwrRNwsxozYObUbXbduqkjdXfAssavbyxJszwx8a7BnjbW9p0HVcKrBm6w/AxKpLKocDRXl/JDHkZM7nkViSOhpi4WAlPsh2DbUDGxv31RejEB15HN5+PO19JII05J2gQqikRDRuFQAYsl+Zc7s1eFsso+XDovE25jWJ3scCez4vTmzMIxKorpE9aQGsQlXw3ZonnaccnkRcQyWOKTF6aTX36ZTXL/NUW/Py/1fMLYz+jpVL8iJt+jaUS/OYWTjhdzMou2NnHphTi3UYIwslPdYoRK9yTblsZ4NYN41OK1Q7/K0UeY4/49EmIfCWzp0ReX/J1892miQerHWCwIVexHGxe4/t8nlUm/kzNxib3ubLqicWookdBjiLNqS5Tjflq4+W52I8yV2fxoz6OeoFfOiim7n1UkDOo0l9mGyq8mx9LRtuNk7GiFqEGeiuUUjt6b/7OurMoNPlsSXfXX1Dpw27IGPYVxjuFdQNFYZ+8tR42AWiSjG2yNMNKEZ2dTQhWsNoTxaZgt6QF2HphBOwgCO2AtHnXFfzMv2RfWynL7BoFqDDOrGrVgvIvXSnL5pOti2ti4cfNvBAI1zMeVFdbNppzhFDXfxpzmAr9JhO/RbTFlA5IRwuMjtbZ56xL4cAo7G2wXmERME2a3JJwC4AhyY44l8Z/eROKazI3lGWLF3eVW6xAgetT0a7m/Jj38Sa9waXODfSH0mpx9D75CksyCRnf6X59Rjgyvg7RnFSf2Y4Tlektwde6JaFpdQZ1TX4iL1ipzOyTc1C/JKO9M0R8ALjJA5iT8oBcvycGentHsgUZSVlBUmQWvr6S0kXxWrU8zqYPc3zmxFOOUs7FQ4b3MVBsl6QfcQ2sK2cI8K5refqEl7F4UQFE0sbhHUE41CvdeHrLDp9u4RTeil/ctxy1ciXmNAMmUn9q+MX5HxxSuAe36GEI8Qltbuy6pljE4OXCnltC/ZorQnZLktgZqmhfo8h/z+lbALrfhJqVE+5bm/x1bukpj9S8V/w1gnpGVZdx6xJuB1G7/Q07jQ8HllDp+vZ7dtoTZIdUIubYNCHWZqtdooyI6pw7b8ZTQgr1CtmD8Yb6/1AOTDeq0gdH/tOV8zl5IL2WvzRfOMxlyXk1uSO6j4pn05br81sOfitB9LX7kfSfO2wXy2wYW5BhezDS7FDRbG9saKO6CHueFeUd4O8+xynEO4nOhFEmnPGX/V4p+r8oNL+1NsMAvXol7PTrHn7qXVG3Nss+7BpsU8xJ3NDjY4FHtsUW/i8l0altFbDNfr8nVIxzcJU6tr5QlZcvfq/hqvzWpmQf7Qon2wZC++zH2w+9Pg5YooCVAuuLdTqMok5usN7qYlR2aB22j5W+NG5ItJpsvlbUyytNYK0LuWKSC/nM1nCU/Yv2y1YqboJK2QnLKTV1mV3pymVt3+OdYz9Nd886xbbTTOmev1q+qB+3ro1RV60eq014XymlQiaPYgySTieV1OyXt+hy5MLxzItmoi34mm1+KZMQFhZtleUEKTrgZocNAMPlJvyKXvuFbjeaM2ITYcYI4e1NS9aFV0ReCEi8wmjqRhIxcEug/CKPeroaKT8xr/GvyRuGrIvT02gNpDMYt6bA0i/tfc24+EXphsSDtc+WiGbDbjt2Y6nhIElOLfyvdXZNuH+WGGZm4A5hkvcyV/di4k0h2IzpjHHCYOby9XOefPvwj0zLu79Imdv2ZWaE64yMMZocmbD1qaLLmFcF3+hrXL2fXqMksoTcN8JXDZQt3YFpyw3/JL8isuHxuGk+lLvVMlxspWPetdanJxtCPv45S/Gch3ZBWa2mogCEYybEjfPHvv3xttsMPg5jtFwCPScjEvL/FVNb7mLLTalZIxM1r+RrZdiV69sEHiF9wneXPr8qd68ut38u/C+l38u7h+N/8urcuf51lev4d/T6zL6VkEtZLcsZ5cbXDtKtAplj3LOwQ8LTRn1gV7FYaX5Oq5K9przJObazvy73W1oN4hvb4qf6/shrLgbiy3+femsoz45tXKWsfwuAWoVGi6ATyixvGI9FZsBskjxXLeFtT491EyC8YCPzqsMaMAj5FePRZRC5/H3cs/jy+vSu0nFIpF6eYT3WOHr2pJy1/dkgF8jbPHT5I/gkv6tSUMAOmTMQYkXxcWzJ/Se8q5ovTz67F0JLeHRkB3yGDuFMRdMri73Z9le2rR/FW2e4plmZmnhU1jop5uuvCMTZM8s1kpte2AvyFsdFrmg3bPqtRkPN9IPENG+OxqoWj+PPo3VepN80d4n1PstNtGLgX7igWoKP13V+SsjHY8eWVgK8NA1LiAfQRebXTaltcaF1MYTTOT6zVopFvy19CrZfsF7LPVYM2+FjonZrwlP/VQz43VrW4vu+4uNO2Nk23qtmKhzhIEKhF0a1YDpp2mReZlt1Ar9VVhELhBrroJXkNT5UPNls86AR0LVcKg0DJ/xPBs9oHPqVTdH8U669Tqia4+jvM1R2rH6fHlirwfbpg+PLGcfr75q2JBPVlqsh0Afp2dgKc4cd4uKdok/bwDN0d6cSdbiLT6VDQ++1Xwp7UamyRPJ4kZPwNYeJtePbMtj6wAnt3Gmyga3Sok06lL60HpHHeIwJ58FbgUGI32q/ZZUo5Od1xP8jGcqbMQ48T2iXgXk9lfiufZtrkcU5wISy2uLy12xXyAUaDTYbNST/p1hl6TXE2CEhtlvEa0ybZ6bbsVBNIq8HXMd7Fh8dfLCEhvEPlZ1I3SQdKbJLVt3mx6EgvrFpoQcsBHCFvSWyV1rB4pUsOBACwWuHMVunPVhsxWtVZo3dsxNWr2xRoQelYz42kY6nKlYImbCXSvVSzbvZP2shboqjkT9ujUEj3GTcljy6w8h3tCUGuuY1ulxa9eDUyA+WuwX3ZhP4nlE7TMHwz92ko9pBu21tfHq+0u0WfzpIrMPWFsz74BG8Pk2CdYz8LScKMRZ7+RmiLub5LxkT4n9rtbomlocfcOMmGcuZNMO87cRaYTZ+4msxFnnkrGqKpk7iFzn2RMH88nlv9+2UPs1H1zusN8i6xft7TJfqtMY9B1snqADXjNGJNu7dgvjzzdj/ol+b2q+byf+bKmOQBaj2eAbyCew7vxHLJFAXh8huTTmzuCl+OeRIFqE043Q6JAx0/Ufknc5Kb7mZHy3JfbVfrldjK6TJxRvLR5Yh8zWCiJ9bjCB9/JeaUr/uyJgJy1kMr8xKCd/klsbQDBSAkIr4B5TX68lB4H8nPHgYhy9/AUf+vYgWA4dnCe4JshLEynPcdoRefnWhDvyvh58vH/5GSD+jH7ADr2Y7yKmVLflsTPsHKX8cKFmwm79+NYHpoW34frNkdmfq+WzuqHmNXLygMKmVqvFyMZpuP3Afit9wiwZH7+FpPHmrCbLZePj11WI9OBD9OBgCCK8SttZE8P4jwVJFL/sSyNwUEUmfTj2SL6YIb/CYY/cr999JLSthSphUp9g01a7ANea8iRMGgbs6c72AVSr1ntrJmN0A/Ph9ak5rDa7W6hKb5EPrR61cRZH+D49xCPTBC1OX1DoISReeJrsjqY+4QZ08E+HVDAxm028PhLt5ahFUGOgNFop9JXZ5SeDfb28VAl1HWGOKXL1a33LyFpOvBJIpWlh4kcwc1GEGRuxqxgCVp4rMpMTK1hgzVbyjdRrYpEIiQq9fAhuFx8IKj0Gxx7LSxXGvJLYLqa/paFDOdj9MdmMzTv1cr7P6sIAACFlgtwVNUZx79z9u7mRUIggSxCcEnlEUJ5DMuj0HsO4RHAgDxCW0YJkEKkYoigCVaL4ZFdEIgpFjCodYQAtkwFdQqRLokFpIARikkzA3agoxBNgrFjBRVIU/v9z4a7aaePTGa/397/9//Oueec+90VQpKLurxz9EgoPmHmj5cXzJo39XvLphZMnjE/Z9ryMf6nx66kJEom0YN6UypZliCSZAn35MeWFK/ILywij4heS0Qx1AWB/0xIpBpJJMiUp35kSffsvGX5vhH/Kz8J2FU8CaM0xjQYpxcW5T9emFfgm1VY8JRvUl7h6rwnyEP/v0y54AnMnoJKgqcQ756V/Xn5rtZXDvtad77law3sa/3drtaK1z+rWkc9Sol8PtFPDAoSbZPpZkyam7+suCDvcaLB4r9brY1Ea9g13C1EKXn9AW/uUrmR7gx1cc03Lf5YHMUfiW7yxPE/39rdLBdB9bFQsrouSELIAFVHdVYElJm8iqy8nt9ZkZ4SFXuRhIuV+653VlwdiiWD9MCYzorleYYDCTcr5dmdFXcnT+1znRVPh8fDSmxlZyWqwxPFSlZjZyW6Q4nmZchM6qzEdCgxrCz6lzWIDSsxQvzb0su1RXWjXMkNpVfP3HINeXjsB1N7lrR9ttvV1TPdIvduD3XhXZZ8ELgSRVE0UbxIWMvHtGscbaDjVaU0oSJA3tkB2tYQoMT2IJ2aECTrB0G+HqQ1H26ky/FJXIJPkFgnxHpBGwSVCgoICgraKGiToGcFbRa0n8epFfS+sM4L+iNnSKqQwiN4UJy4GIq7exLCZ5K/JZtjuYV2D4wPn8178D2V+tK9NEBwPf6GKy588FMlaOB/vJoh+HDwF94Lvs/1/Gnhg88HRieqENSHEkQvXOxN/WkIfdfUcZk6USKGYomCXMETe5AfhpbKkbpsaEi5AHu3liiidD0sNEi5vLl9dXHdfru4Lk7nFnWzXXu3fqlCzWnVx5pPmuiqn7LdgDd3gTIZZUO7K1jqp1ywO2oU2SiKaEYBZKV8pZDBD4I2ltyi/ho1slJGaFN0WOj7GqMgmmEBmIfJwMRgwUxNDUwdRRExConiulRDLsDerde5QA8danZr17BQPF/oyUZiz7240MjGgWY8RFdWyh4DLZVBnpHJmKdg8eb6+Xa5hjc3mS9c57tKVmYUQHHdZr7gZ8sc1WFJ4DpBHvqSbYp6c3fYGAWRMxoNYB4mIzyxBE7vwRPjGpg6iiJiFFrHLcybexgWkoCyoeM0g58n0QEtlceUzEqxwxBqluw0ku8u7ONRzykGH5aAONkdhmGhZ3nuByH51cKiVWFgJTwWR6JrksTbN2xdU5Sj5a7CuRF48p1XayQkByCRuJ1zTR05+7WSSxK92oEnflKnJCQHIJG4PqCb/rJ+ppYTF/ePwNs32qslJAcgkXjk+RV25ZTRmi/9TTkw/Mp9WkJyABKJ8+dm2DVFSUrGXfyOXZ/2kLJ+ecqnAI9WH1b54xepaR/fUe0HVimefrvyjxyprG0nj6jZz6Wo5rZ0Be/dGtyFM6JUvMzQ8mb7vAj0ODRVSUgOQCIRd3GvIRk4XhsBkwTJAUi0lRf50Wq/zqritW1umx6BE7V7aiQkByCR4DVXJ2oztZX6YKOBwPFY/aeZaSY2zLyqLMDl2yUKCf09QsGBaJ3JHmOgue2AjQRE4wCgBBJQEg7E8GjlFUO1NXFxvoF51/qrjE09TTRegIqtUEg4cDrbjIZofTTrvIHJW1tNAqJxAFACCSgJByIJauImJTM2qadasrS1w3vKwB98X/DZGWHirsLu2gIse/hThYQVTXz22YFosWoABwEJiHxNWwCU4C+mJByI4dGi1o/S1tjNmQZmjIlhaYCJnK4twIqmNoWEnKN/MaMhWj9KOGhgUeg9k4BoHACUQAJKwoFI4qGl47V/JO/wb1+ZFYF4+RslITkAiYSKTdETRvXVMvfnEyNw/lwXLSE5AInEolCMTvnwAc0nOjUCP0s+pCQkByCR2JK5mOe0U8mDfV6KwL6VtpJ1aeO1A0bCJB3gu6mRsDsAiQT8WVU3bFPose6u8cbvgCMB6A3e6PU7XXpRKF3LnKMqAmgZEpIDkEhsOznKtBkZL7Mj0DrnqJKQHIBEYknifLUlc7cySQ588avTNq9YhXKA+0ONRF9w4NMP0pTsZY3WDvzi8zXoZPOVAyhIAtncJ7mt4sHkPwNmVSA5wAqhJZWpY9NnYMffiMCQTaO1Bfj16Tj9bcNP+QDVq3XLq+0jZ6uUHHd4ml28/ZKysB049Shysz2Zt77MWCUAxUhc+Ga7IVk5pSoCSLIArXO8eviVRvVtwy114ZskvrurSr77VbQeu/mEslwZZ9TXgy6zsl2lL+iqEWGVABSj97lR3Wz3m+WVq+z7I8CPbw03RH8EIJF46cUX1drlfbTEE+nAuMPR2gKUVxziBzjATShdlRU02a+9fMrmLrrJ5p1QFjdfdTtniUKRpNLjJsIqAShGgvuiIblh57sRQJIFQHNonXPLNPm5R/vqZ/QoJfu92V1PXPyJbf3+1T/jLcJdbo/6+4G3TIRVAlCMxOiFIfuFSdy+j5ztqR042OceLSE5ACl8t4MX8NOBcR04UdsvPGUHIFETL2ZzWwufDJ+W0z4ex6enA9w/TED7b1EOQApnP/I8v7CR5MAqe4sySQ5Awkbt4BH5HbEk8ZKBHV7LvCMQTQ8G4BWABLwS4EC0cOoB2AkkIBoHACWQgJJwIIZHQ/+28j6ZbQBvTTR4ROMF4GlDAl4JcCBy0z1hYEvmRyYB0TgAKIEElIQDkQTvGvcSPnsvTMqOAG9bDR/40RGARFf4VxQeItjle6sXmjoGUh9cGn6+HIBE4urTDeq1lwNI+kcEzNGG5AAkEo37e/Pa36/lpb0rI3CnZLCWmK0DRtqwc1IEjk3nH2awOwCJBPzd5vcKFyqv+KsyfgccCUD0Tw==(/figma)--&gt;&quot;&gt;&lt;/span&gt;&lt;span style=&quot;&quot;&gt;&lt;font style=&quot;font-size: 16px;&quot;&gt;OK페이 앱&lt;br&gt;설치 여부&lt;/font&gt;&lt;/span&gt;" style="rhombus;whiteSpace=wrap;html=1;fontSize=16;fillColor=#b1ddf0;strokeColor=#10739e;fontStyle=1" parent="WIyWlLk6GJQsqaUBKTNV-1" vertex="1">
          <mxGeometry x="90" y="-710" width="80" height="80" as="geometry" />
        </mxCell>
        <mxCell id="GBO3RVmkL8M1SUxiBIiZ-61" style="edgeStyle=none;curved=1;rounded=0;orthogonalLoop=1;jettySize=auto;html=1;entryX=0.5;entryY=0;entryDx=0;entryDy=0;fontSize=12;startSize=8;endSize=8;fontStyle=1" parent="WIyWlLk6GJQsqaUBKTNV-1" source="GBO3RVmkL8M1SUxiBIiZ-53" target="GBO3RVmkL8M1SUxiBIiZ-53" edge="1">
          <mxGeometry relative="1" as="geometry" />
        </mxCell>
        <mxCell id="GBO3RVmkL8M1SUxiBIiZ-66" value="&lt;font style=&quot;font-size: 16px;&quot;&gt;Y&lt;/font&gt;" style="text;strokeColor=none;fillColor=none;html=1;align=center;verticalAlign=middle;whiteSpace=wrap;rounded=0;fontSize=16;fontStyle=1" parent="WIyWlLk6GJQsqaUBKTNV-1" vertex="1">
          <mxGeometry x="80" y="-750" width="60" height="30" as="geometry" />
        </mxCell>
        <mxCell id="GBO3RVmkL8M1SUxiBIiZ-67" value="&lt;font style=&quot;font-size: 16px;&quot;&gt;Y&lt;/font&gt;" style="text;strokeColor=none;fillColor=none;html=1;align=center;verticalAlign=middle;whiteSpace=wrap;rounded=0;fontSize=16;fontStyle=1" parent="WIyWlLk6GJQsqaUBKTNV-1" vertex="1">
          <mxGeometry x="80" y="-635" width="60" height="30" as="geometry" />
        </mxCell>
        <mxCell id="NaQv06OIT9rLutypHk87-30" value="" style="edgeStyle=orthogonalEdgeStyle;rounded=0;orthogonalLoop=1;jettySize=auto;html=1;endSize=8;startSize=8;jumpSize=8;entryX=0.5;entryY=0;entryDx=0;entryDy=0;" edge="1" parent="WIyWlLk6GJQsqaUBKTNV-1" source="GBO3RVmkL8M1SUxiBIiZ-74" target="NaQv06OIT9rLutypHk87-107">
          <mxGeometry relative="1" as="geometry">
            <Array as="points">
              <mxPoint x="130" y="-566" />
              <mxPoint x="130" y="-566" />
            </Array>
          </mxGeometry>
        </mxCell>
        <mxCell id="GBO3RVmkL8M1SUxiBIiZ-74" value="&lt;font style=&quot;font-size: 16px;&quot;&gt;OK 페이 앱 실행&lt;/font&gt;" style="rounded=0;whiteSpace=wrap;html=1;fontSize=16;fillColor=#d5e8d4;strokeColor=#82b366;fontStyle=1" parent="WIyWlLk6GJQsqaUBKTNV-1" vertex="1">
          <mxGeometry x="70" y="-605" width="120" height="40" as="geometry" />
        </mxCell>
        <mxCell id="ct-ov6YF5Ax_w1VTzETM-19" style="edgeStyle=orthogonalEdgeStyle;rounded=0;orthogonalLoop=1;jettySize=auto;html=1;exitX=1;exitY=0.5;exitDx=0;exitDy=0;endSize=8;startSize=8;jumpSize=8;" parent="WIyWlLk6GJQsqaUBKTNV-1" source="GBO3RVmkL8M1SUxiBIiZ-78" target="WIyWlLk6GJQsqaUBKTNV-6" edge="1">
          <mxGeometry relative="1" as="geometry" />
        </mxCell>
        <mxCell id="GBO3RVmkL8M1SUxiBIiZ-78" value="&lt;b style=&quot;font-size: 12px;&quot;&gt;읏맨 키우기 서비스&lt;br style=&quot;border-color: var(--border-color); font-size: 12px;&quot;&gt;&lt;/b&gt;&lt;span style=&quot;font-size: 12px; font-weight: 700;&quot;&gt;팝업&lt;/span&gt;" style="shape=document;whiteSpace=wrap;html=1;boundedLbl=1;fontSize=16;fillColor=#e1d5e7;strokeColor=#9673a6;" parent="WIyWlLk6GJQsqaUBKTNV-1" vertex="1">
          <mxGeometry x="1850" y="985" width="120" height="60" as="geometry" />
        </mxCell>
        <mxCell id="NaQv06OIT9rLutypHk87-28" value="" style="edgeStyle=orthogonalEdgeStyle;rounded=0;orthogonalLoop=1;jettySize=auto;html=1;endSize=8;startSize=8;" edge="1" parent="WIyWlLk6GJQsqaUBKTNV-1" source="GBO3RVmkL8M1SUxiBIiZ-81" target="GBO3RVmkL8M1SUxiBIiZ-88">
          <mxGeometry relative="1" as="geometry" />
        </mxCell>
        <mxCell id="GBO3RVmkL8M1SUxiBIiZ-81" value="&lt;font style=&quot;font-size: 16px;&quot;&gt;&lt;b&gt;OK페이 앱 설치&lt;br&gt;안내 팝업&lt;/b&gt;&lt;/font&gt;" style="shape=document;whiteSpace=wrap;html=1;boundedLbl=1;fontSize=16;fillColor=#e1d5e7;strokeColor=#9673a6;" parent="WIyWlLk6GJQsqaUBKTNV-1" vertex="1">
          <mxGeometry x="220" y="-700" width="120" height="60" as="geometry" />
        </mxCell>
        <mxCell id="NaQv06OIT9rLutypHk87-29" value="" style="edgeStyle=orthogonalEdgeStyle;rounded=0;orthogonalLoop=1;jettySize=auto;html=1;endSize=8;startSize=8;jumpStyle=none;jumpSize=8;" edge="1" parent="WIyWlLk6GJQsqaUBKTNV-1" source="GBO3RVmkL8M1SUxiBIiZ-88" target="GBO3RVmkL8M1SUxiBIiZ-74">
          <mxGeometry relative="1" as="geometry" />
        </mxCell>
        <mxCell id="NaQv06OIT9rLutypHk87-37" style="edgeStyle=orthogonalEdgeStyle;rounded=0;orthogonalLoop=1;jettySize=auto;html=1;exitX=0.5;exitY=1;exitDx=0;exitDy=0;entryX=1;entryY=0.5;entryDx=0;entryDy=0;endSize=8;startSize=8;" edge="1" parent="WIyWlLk6GJQsqaUBKTNV-1" source="GBO3RVmkL8M1SUxiBIiZ-88" target="ct-ov6YF5Ax_w1VTzETM-30">
          <mxGeometry relative="1" as="geometry" />
        </mxCell>
        <mxCell id="GBO3RVmkL8M1SUxiBIiZ-88" value="&lt;span data-buffer=&quot;&lt;!--(figma)ZmlnLWtpd2kwAAAAsEMAALWdeZhsSVXgI+7NrOXVW3rfaJodFRF7o1lEJJdbVflebp03s6pfq51kVWa9Sl5WZpk3q/oV4ziICIiIGyIiIjKIiA4iKiIqtoiIiIiIiIiIiIzDMIzjOA7jMM78TkTcJeu9Zuaf6e/rFydOnDgRceLEiRMnIm/9klcbRFHvwqB9tD9Q6oazjUq9G7YLrbbiv3qjHHRL64X6WhCS1Z0waGXynqEO6mVgP6ys1QtVoFzYPl8NAPIG6IaB8FowtIZzNzxXaXZbQbVRkJqL9Ua7snq+G643OtVyt9NcaxXKUn/Jgd1yoy755TjfClZbQbgO6kRYCupBF3RzvXtvJ2idB7mSRbaCZlWQJ8uV1VXSU6VqJai3u8UWrZcKofTtdKZvZxudFuMIpGdnwnYrKNRsCfmrXN6O+OpKvR20CqV2ZYNBVit0zIqGsmtaQalRrwclBpvpTNzDa69cHPf1OtMfWulW6qVWUKO/hSqlrg4U1xcuDSMm4D5gJVV0YXubiQRFD8vdRt0wUiaz2aq0pVO6PukPmru9aAAZfAttM0qIao0NA+rN4bg/HF9oHYyEpt6o3x+0GhSoRtmUCwerKU+gMAClyo1SR3oIqEuF+kYhBPLWWo1OE8BfbRVqQpcrNhrVoFDvNpoIrV1p1EHmNxhOowW0IDImXaxWDNuloFqtNEMBlxl4G7kanTrRCtY61UKr22xUz68ZJis0VS8HZRFQQneyHdwnXTrFxJQEcTo8Xys2RD/PVOo0VjdYZrRSOieiujpcLzSD7malvd51da9x8jYdvLYka6FYbZTOkbtus1JeM3p9PbxqMtIbakG5UgC4cb2ytl7lfym+KYSBHezNDuwi7Fa1II3eslkI1yvdNi2Te8RGoVUpFE3/b2074JEG6JaQB7nbYhK3qh7F8MxaeXQhDCshE9qFc6MjZY+5XD+DqlEmCh+bMJLetCgE+bhao9wxrT4+3O3tDzaHs9324NLMzvht4b2dQiugVNEZNzmaMdcaZj14bTiK+FnCZP0kW25syvhzV5qnfLPQKlSr2AKWQK3bcmJbmEdXg1XBLgb1tW65gEQKpvElybOmOpJZlsxqxXA9YeBGtRzI1K20WV3B/Y2K9PJksxWUg1W0rNxtthqlIBR9PcU0BFUpPx3rczesuD6eSVC1TrVdaRrkVbVCvcOqrNSbRtpXrwf3FaxCXlNaDzZaBry2STWHvq7BsC0oSiM9u6FZ7UjzNxZarcZmPMybbC6Wxc1hp1ajL92znTqTaRjcYnTyEWEzCErr3WKnyEyCuNVMOeYLk9VoFYwpemRxNBj3ayxc6Q5q0m2vMxNrYj4x8K2aMdq6XGidC4S15wYp+unLamSxFbGJZHOlRrWR5PJGx02dhRBzYiCzfqlRbrA+yC/ZKnF2WbQNDQU8ETZW213Dg9zKeqGF7rqcMdZBK7CL9FRwXwk52ZGfXjezfSYstDuJHbnKtAJwdbWDqBphpS1NXNPsDcdOe5fCBksApEKjyhWmhdakq2B0gpLUyAMDBigoNFUMDjg/wUHklD5XqVkx5zGiZysACxssJrGZi5U99tVwuzcaWOmzMbaCdskIfrUi49Toq2mtbfXWD3Z2Btuux7kK1qfFtlhgAVGoyq1GM83q1Qa2kJlkmyhWO9JBr1gonZtH+bJ+S8bkLzTQqArKAVp1mphhUl1tbBqALrRtH0I0ototFZqimbk0x4Jqlcw2kRem5cH2ZNqbDSdj6sSbAS0zv8gVWDPcyrkg1TavOujJ7tKeDvfIxXXg3V0P3Mzr+sHe1mDaGQ9nEXxbBRmqalbuC6ohgKbXbJhC6ZUm42g2TWd4kZkHr6TcDEnXCrI/evTDid0PS2ztALlVOJa7tkbeZQz1QjibTi4OCqPhhTEVEmaKXYOJBdCYVwd6lrjU20cj4/EwXKMaOrGXnl3QIhcZhG+zwb2dSpU9GEMHMud0SkyY9T7yiA/lw4AmqIXs1rKYbh7dO8gvZfJ3kl/O5O8ifyKTv5v8Sib/VPInM/l7yJ8qVVqlbOun7WjPToYimRpORQusKgYbgYxAxwP3ipPJaNAbN/YHsYLkOnW7UhEj1WQnBNZhp4htNrB3n1nARl+N8Ncn0+HzJ+NZb0R1Zxkzc4suGyl4Zzvs4asV08O09sZgOhuy9ATXaFKUqVpstNuNGpBXmxxEg9LBNJpMkQ/bQgHbR4EqtRohK63SAtbB+UCWHqpHzsPFM001CwwFW1hCxcnnsPQkeZJSpQq0UBOLKlUWmWIcZ6ClZP5MdnmDxT6Z1obTqXQgWUVm1km1AbBAWEZ2tLaosFfuRbvWnngldmFQKlVwbWyOXQ+5Zn0NlDrbDCTV4YYkXrMsbrAfXNqfTGfH15CPy4NJZ/NzC0XFCBwe076OEcmS9aq9o8nBbG067FsmObusMhJPO+jZVeandZq92WwwHVMEVaVpVgg22thqbebzYDZpDaLh82GdiMh0x0gm6YdOIE+qtacH422nfl65EoqzIzwVfjW7KYAOZ0ejQThwY2fqWmHD2cc2fj6JLqFdVlc4cuBq1EuysfjtoNZkgzXOfC5mgzBng0SSl+03gDreLTAcve2LdhqTMa1joO9HuqYHmo0S39TAltroNc1dJl0rUq+IkomJAfZNhdLkgA5NXb2Fh6uH2N3k+IVOW3auXIZV3rA6exDNhjtHZB+WS7NQwsHcCOzJw7f5YtDetI4BUoJPaGfRGFyQHD3Cyv1Bt93AyhgBzSFQOia5Umviw5OTEmisNJqTaCiTy34CynVcFYqIvWNPO4Zscyq2mb2GU1ChCVq51BZnReSmD+qY2/ExaEjGLFmatZO8FE8dpsD6XXJiJq87LTNxRTZkUr9UbRiPNYfb3o1db/L5ThN/Nuias0O31am3K+a0tMAqK1fEuzEKsFiha9NepuWrOEew/A13VVil9a5UZWsir2sNTuq4psCehW2BT611ccGAc7YAZ0LI8jZnPPcFqPCSjWPM4dyMcKmMO0m6TNm54Hxc7QTZjYY9Ya0A23Gsm7k8meRZceRP2SZixTlts5wJN6T2mfa0N7ZTakd4Cxsux4R2lx2CrVdkAZliJTPFpopeJRhA6tnDzWqrkZwU/Awq3ilyGZzdE/IZTLIpLDQ74brFOWaLKSbmtZSiLKvlFJFwOiHHaotznFZSTMzpZIqynBBTjEg4nbYdZRIhipmdmUPG/K6aw1qWV8/hEq7XmJYc1jG9NouLeV6XRVqW12dRCccbMG+VUlfKyN2I70hEpVDH6pkleRPHhAbeZIq5OehFrGA746cJepQ6xUqJAiWs44zGpc9kPTFN1iOnhiyxpCgndHOYvK07h1uwVj3JL4bNlt0SltZQT7bcBLHsSBPECQuZBcJatqtjZR7Z3hTzcfIYcp0jEuhT4fZ0MhqVh1NrSei0W2NfYQNAwsZA27qYoZlYg0EfIzYbUB7c12QvtDa1BAdxqkxOr3XYhbQXERyiMeBFpUcTPCMDeqXJCNdD56ZqWekL/ONt8Y/f45+c9U6ofImcPuIfrwUK6hTxIP/4u/yTM5zC2WSfCtsCq+cqve+sNARerTebDi8pvbB3++3k9d7td5B4e7ffSeLv3SHI3N4dgszv3SHIhWZvikWujPsD6nkXDoZ99UCG6Yry7HGBwsPe6GBAHX1gjg63Km8VKdV7ewOl/Z3e3nB0BL2OZK8G8GAyi7anw/0ZOV9oN3rTYY8qB3uD6XB7dXjhYIpo2Z3dEVmhdswngCayYGKbwKaZ+arhfm8bpZ6rS6gBh0GMmMlrYhjuVHkFBqsyuTLALAcMKcEDA+NPoc5mfrO1S739CGVOq7D+zPFSk3TjjNcMOOpJ130Q3SQnLjrxUAHzoBjsGuBChn8zlnu2W7jw/Isnj/cEYPoTGiEzOQlVBZ02S02Hgz1YDbc3B8MLu7M5IsJzMqSEpILvP9yeI0n5cLgwG8XqoDczE/W3uslJkiJVurNpSNxovFIzFLwvoyI1AyXNu9jmAoEecYkXG61ynXSpsNqS8uVy3Ri1E/VOTYa2guMu8b2T7LsimlNlm54Wj570DAdfSa8qFMwh4uqSTa/hFCXptaHNX9faMPGT62WBk94QbppY9o2lcFPSm5hkwd9cKpnA4i2h9c4esU6Aj/RW5wc9stGqS/9uE6GQPop9UuT36HLbnJUfs1otyDgeW1triZvwuBCdJX08pxJp/wmrONGkT1y36Vet23a/um3zX3OvTZ/UtOnXykmL9MnV1aLkv67RNOlTWm2Tfn3T1r+9ea4ucrqjihkivZNU+nlXq12V/N2kkn9qodjaIL2nUNyQ/NNIpd9P37B8nrFBh0ifWaxuyvx8A6nQPYtU6L6xcG5dxvHs0llzgvym0qpZUM8pNU2+UOq0hK6IyyD5EkZS0vKq5R8QBJT+rJLeSbpGehfpOs1KexVS4X923Y6H1takP9X1xlnRGzxh4+fUKzgkpI2zzac9nbR5tvl04XPv2eYzbidtnW3efjdpWD1bk3ptYshC32F3lHnZECeJdJNU+nFf7VxN8OfrVePe3V/vnGuTfjMbifTrW0hD0m/dQOCkDzTDtuC7pIJ/butcS/K9VnNd0q1Wpyjzvh3iSJP227Yfg3bdnHF2mCaZvwsbhNRIdzds+XDDjvt5G+eMvlzcaLVbpCPSO0n3whALrtSYVPIT0rtI90nvJv020qeSTknvIY1In0Y6IxU5HZA+g/QwDLH9Sj1IKvwukQq/I1Lh93xS4fevSIXft5MKv39NKvy+g1T4/RtS4fcCHYZ3CsPv1KUN08MXCiAsv0sA4fkiAYTpdwsgXF8sgLB9iQDC96UCCOPvEUA4vwzAdPV7BRDOLxdAOH+fAML5FQII5+8XQDj/gADC+QcFEM4/JIBw/mEBhPMrAUyff0QA4fwqAYTzjwognF8tgHD+MQGE82sEEM4/LoBwfq0AwvknBBDOrwO4Szj/pADC+fUCCOefEkA4v0EA4fxvBRDObxRAOP+0AML5TQII558RQDi/GeBu4fyzAgjntwggnH9OAOH88wII538ngHB+qwDC+RcEEM5vE0A4/6IAwvntAE8Vzr8kgHD+ZQGE868IIJzfIYBw/lUBhPM7BRDOvyaAcH6XAML51wUQzr8BcI9w/k0BhPO7BRDOvyWAcH5IAOH82wII5/cIIJx/RwDh/F4BhPPvCiCc3wfwNOH8ewII5/cLIJx/XwDh/AEBhPMfCCCcPyiAcP5DAYTzhwQQzn8kgHD+MMDThfMfCyCcPyKAcP4TAYTzRwUQzn8qgHD+mADC+c8EEM4fF0A4/7kAwvkTAMZE/YUAwvmTAgjnvxRAOH9KAOH8VwII508LIJz/WgDh/BkBhPPfCCCcP6uPx5dw0WZs1+pupWNXzRPftNbb3xdnSXs708meuHezCf96xdFkS2m9dTQbRMrXNrClPJ/ry13Jj8Wzw4/r92Y9Q7uo/I1hfzBRnhfTRHd1piMhavai2SCcHEy3YeFFU7w7HBRxB6fbdQnC0CAoztgl8VwL/ecR71B6aSYdx6eMdnv9yYMRoLeL20K0YBcfE6+1P5j1hiOg3IDxRuKI4L0eEk0YENUCXpgN9kwY1BYtHg63OOfSjWXOkCIX26y7hFfeif+/TW7jnU0RBvDy1lR4jmmZ3AnTGeXdYCbpKqW3RRDqucqbiDc7E2ffPxxGwy0Ep1WOxF0qnVb5CK8/Ujt6Ad7jaGcy3VO7anFoZuylWi0ZqL2Lqz6WroNa7o1BcoCpSJFgrrIY3Eu8X6Z2UV1NPnt/co06YTG7k4NRvyT9q/XGIOjPDdMJJyEq082VSKoAnNwxsjWUbkpfodWpfRnpqinCNqvTg73J84YlWmgS2EbGi/rMoVGkl2l1DUHoC8MxpyVpeXPYnzEwde0cdt16sovqum1pCWdZvTmnrhdHuMZclVFQ5eUvDo7UWOkdsNXhOK7E7AqmPLwwoHc+JxVy1n1+vspJxvnJeW4pyMF8aMfp+b1Lw6jdu0DDWsC6SA1dj1eXiYXbxq/d3u3JkWIwjaDQSc40VCnLkL1I4MbhYEpIdtDuMb/qXZ72RyZOa8J2W8w6F0kjeh+xiej8hdHR/m7E7qEX+sllUMTeoRe3OGJe/LaDiSzeN2l9lWWzQQcgocdLOwwmkc4rtV7e6Y1GW0TkVimI1Fif2EURpzR2sTi5BJfXar1CDuj1vj45S4K7nICn7oSYV6ccftBP5Ht6NLkgFwGGpD0pxWNv7OxEgxnWRy3rM3vDOPqX1Lt6jxz8beuv0/qaPkezw0G/ajrxBl9fW7aIVM4n7TCdtPSctLxUWizhOWmxmOakld+hL1nhLFwui0U3UnjMSWDJ4TMSWP5/kMCJ46Nd6dvBVU3/Ge3J9UwflJfbInLaj1SfA7e1se507u/GdBwa8kQZE8YsgrRSlHaaKAS2JIb9YbTBsQ8SggG27jmWzqLKF504lbeE3bMnUaT8oFmULCQpOw/gC5CMPie5QrQNK3KLmMnJdFDNXERiFXeG02iWyEXaokPZ/MKaTJ7yFrcne3s9hlC0O04aithSdgUxaMYgE2i0gPYvZ97rHzp7vHC57VksJ8rBVjUl3oK8NPKKmcvO6LQFI3Do7rmKWB1kZtC13pRJcpLOdssGdIxWSU3J1AezByeQu/EgnD2k/3wiS/yTjOpyuyBbNzc3yETLxEfqAa3Do72tycixj0yGdtnRLRwziYSBR5hGNoqQvg9WEQ2bDVMXs0UrjVfgeWgCHPbB4V4SCkBWa4OxbG9IyLU1yXLWB9FglTlfE7eDcRyNTTBG4yoMd3Ya49FRC6kf9kaG2i9bPa/s7R3MZHRm97F8vXm+ZJz18goRK6fSp5eMH82aDqF5h9baFQSgjmDQk6yoL1bXwJU+Tqmr3xrsQHLRlsbMWUimEEJvUSQro+8JRsjfSV1WzozBTQ72K338WeWbGQJ+NyvGSprMQxqfQDYLhkT2PVotxNnQcH+fJuyZZeXFK3i+udBxf7jiuMGHKd9wjaII/xeKBiIQYVf6/zfKkAGUH44IV+GA5voPV97eHex9hd6EmB5cFWicDswEhv4Dem6SUrrmVJwfb2EmmY2EAi837a0Rtzdjo3DijJgtjalrgyqJ11DrjQ/YAY/CwYh1OWApq9wwKk6mfefAXIEgHx1sSQhziz1IGndjWEj7Nq+gH0FB58oCCkRNZ5KnkzJGA9sxfYg+hxguWUQyy/AfEI/FcnnLOzjQ56zqRqYQEeFEH9rxr/dwwAmrioibvWQ5R5z+2O2cS58fDXFMp0ey5tuT0I0FMkFwQtcLWNv9yXgwdkto8WC8M5LbYrn0y7JcGkaduMhIZtl2uxTXr/Xw/2PDtx1jLVe9f7A1Gka7MJOGpbvtSXvQ26um3ZNGvOON+BXONmLIY80NZzLs1BwJq8ZO+CA9xcA4YrFiONdzXZg3NFfmu3Hn/xNn9obeKMzMSFzFsrbvi5R3yrj510lP0C3j5htvAIvvT9kbD+RMkEv9/TxJ4u8vRPvTQa8PxWK0O3kQWXNSKQ6QYF/MM+RLlscGmxKu8LJpxGVO2Mout3LJASePHHCqLWcIs6lWxjtymjNd3VC6f2CNPu16KOhsIgXlweFwO37wEN+jSIDMPMrQJUKWJojrGRxXKxKCJ4/dl4qt+NjAzuIql0qbXXMo1scawemRjPo0Yo7c7shYkFqlz1QOd4Zs7yg9tSzPz7CGG4gfr7Dp/IS2MFBLye254jYtvnrTAiclnuTiCzif+x/GEVPmXDYhzjtETL9gHycCLboOFHGtL2DpxdFiKbDh0htaSUYtF9TcZtlLZbnYc0+c9GUM7BiSmgQ/K+Vu/ADvcvICOorzIwrqeVsJ2nD5PKJMUSVRE9HFeo/jrJGhoVL5emGD2Lu5plDcLbbsC0IdbpqAvydplzsRQ+C7S0ZzhZ8LOCNLGALOTKdYLSji95wQqLC1Zi4wCBI3Ydtt3tXduBuEZ2uGHKqxDBj4E9HBzg73V1iMoRz7TNdYlNt48TPxNWbEGZUfHV4QO2NOY8w/2UrZrJt/ZBWRaxzMxCMVw085Jo7pwPMTv4T8IhSrE8IUoXlqhd26GIFewqcpbEWT0cFs4Dw7jNx2dlR/r9UJ1+WNNdek8iqr3XoQuIvBQnWzcD4E0FVzTpHXN7EpuId9kEOk8rDhyar3xwd7IfaCiYgUvryzEYQbIosNZRngxl44wCpOXQ4nmX4xj0v7YiynY/V0tZzh5Bb6CcvN5VYiWyo8HOpkytVhTq2xn6BG5uhLV7VlQZvxZu43sYwQPIgtYtrMO/YlhZWbc9vxoWQXNj5xKGBbRCA3Z1al5cUbCddsrcY5wXjuRbgfrK7ap2s5LhMaLYHy7q3SAnaQPcfwy+yUti1r52MHwm2P8eYqBMw0YxXNofeRYFyViBmNrQd5TybbFrnLYAwvywWBgzCaLzPMEO4Lyt3N9YAVvV6plruN1a4t5l6vGz/KZ4Ss9vOuRCp6hel20guOaAixML6AFAlJsQNkst5wjBveMoaerG83nSoHP+oeTIf0UPeH0f6od2QWw4o44CZrdJ/+N0cHRFFca/smgySphnNOCIMKF+1Am6asNRj1ONvu2gq5fYO0FfYGNnxGFTfVgLhXZZwl6yvlagej2VBaH0xXh4NRf8NOBRO0zYJC9iiDzt6SczXOAOVgUutJbE2p5LWPex8kBpvEc1bZt0YYKBfb4XxioRekTnfugn8xaSAY9/fl/IcYBg6UjZRu4J7ux5O/xV257ckrPOUnlQGwFaOm1GI0GXK7oqkGiaUVyYdAUo6rXCmXq+atFbbT6DJ3WjHKvtmJXzzZqrWh7RzNRCCFyyu97CpMqFEDTBhajFiCarGxaS0QC6rgRMPW3LI/Oklr2WXoJZuXufNGVYF0YTx2+yoWjwjD7MhS3+QWq/C2i1VzXWleS3jJg0Cfu7pujM5JJinK1wr3JUXsm/elRYuWZVK6VOLGNWh1uS6rdGSxLCfm4IQYCMRo3wSsmBw31Ws0lJ3yk6tA3dVCrWIeyZ0yWXede9pkNuPGz7BQg7QvV1WDNprUlSdprGAwVzNp7NQp4hqLaBbK7n3jtRZRs0/SrrM50yu3+V3fkMrmUviGUqPWRL0N/sbLha08PRN5v5b5TktRhFFvayDxH71vKeWg8TrO9ylRbdCTKLUEc0SrQzHhKmfXjkrWjHaryIvXjn9FDpyKjaHXclsg7IC92cRBfow1jbzBU7nZJOzt2Sz7rzFZDaOuYk1mnPxR2wX2whi9OryEvWATc95/bXI4cH7oZNQ/Z+wR0QiM9WpiiL0M7fqQYPj0qEIMniqRuXKQDlVMp22+dMz7x70cjER4pk8m5nYRAze21WhvJ21qRJkzpxLnutgxwbfc5rB/YcA+weLEknnEcUxdmgz6Q+JsMoDcbIidnPX29ivR5On3cDMKaxyLKYTCmUEJ8aBfkGC2v42bHmdyUhCvT78cyG/9mCK1uV5pB8VGoSXrWJtXZrIuPHazi464UG2uyy2yPOgSlQbS5kca7hdY7sDuqOuoIEgVosHYofg1pflJSpzzQowFWhGiHGw9uIuuUrHDRkeq5wjs4HVkMuod6G8d4RCQG7NheC8xZ1QRlKQ2nP7U/d1eNFALyjOARd6zz14dv0V6nvIzWUvwtJkM4QQqR2pRTx/bmcpLalHPGEZNe96U2AA6+VbN2YyD7770GNp3e6NUm0zf3+SpF2SRTsXUmz39Y26H/C3jFhQkkCGxhV/W6n9bv4MtZFHd4UDbg8EwCic7M7c1hlJEN96muUGYjDv7fSbdde0Xwa0OR6OY5ifIW780xvwUmMahPWBKKptEXPYl24M20lBf1lwtm2x5brC/FXtEwD+nkckV3KEXeNwiZ4pS3+pfNNfKx/yjh7zJ8zg/hgcsJ9RgOjA2x+z4wunP2bgOa5PJeDTkGmZ0FLfwSbyZXSKBrH83XiT3AIFwh84M2xS8IS5IRmzQPxOjnSeeFLw5KTAH8LTgZ+MCccZT9FtidKY/nAtsNyj/NR0ZZB+kkBBOUh+0Ajc4SxiX/GGmRDosuA9lcLZTgv2jDFZ6JLgPZ05tzR4WJlI/pPVv6yv2sJiQ0sv3oB4h687GGNGJv6bbcbZp9wvO/Th7DYlzReo1vv5iPNfGnUwn+6NaPR9uBju/gv4VUFIhGxb69mzBBvytinyHRSdWOKNrH9Pq1S6eNa+oP6AP4tgP3LONvJErPWx652GKPxuHlxCTmIKPxXkzzX8mJxPbi3NmIX8ciZXuZFB/HtMNEk91hft6e/FYmq/05ZSLCLU82InUlz39MjzbDBpRRuqfPP29nhugDPjntfq2NGsNhEwFG6OTm+AldPSvJ4dmnRPqsAVmAN8/3zQWiAsW2acj9c+efjnxEQKJhemgeLDFZIkj/otJRCqUsBYj1l/ScygiXZ/Q+p+NQTbHubdoNYkztov7cYWqbJ0qr37b20u3kV/21L+Ya1U5OrKXXx/DtnIF0927MO3t74r1xqVYVjccQ1nCswk2ftG5rG48jrOk52YsqwKX9NmfLX21evQV0LZCOynZYBHIDY56knrMZUhL3BF8ia1I3aAeG8O2aEOymSujm9Tj5jGWbBNfIb4To2NpzhZ/i0iozibFFfXXxLAt+lbDTpTg1Vo9Kc7YsgecprQdVr1Gq39vJM+BfdgbE3fZ25uMqxLMwX+ToMW/mSvFW7k0O+hxakwpXsCCSkjKQ1bhQMbB5pel+s4sld0RRV5ZkhdmSTAwcmEP+ruy6BCvhyV2/2A6oehF2aL6gX2La98B76vvvkKh0wE1VS++QilXScYPUTP1kmxxSd7pHqqXZnHJFnZJfY9mZ8YixcxH6qctZWIHPgBFj/HYC8xb1Hs88WbINzkfI0/DSKs/jtFV5EP+Tzg/Xqoy9RLM+St2QtM71pxzjD49jzLOxzs99TeezFIHR7FqwkZxPxbVH+jZ5ALRgH5j3Giv4i4iqYgJ1H+YFHDjNlfyIZ3cD6vf8NVfaTEWwu0hX300VR1BRepVWr/INF4c9odpsz9qcG170S2oZ6lXM9RovddvtattyhjsG72B3K1WODLLFYz6VE69JPOAZcGBVpGfSdj8ojFPixay6G9I374sOdAWPIuaSTh8OcnYwm+MMDUcu1cktahvIkCYPIw5mWRs4XP66CC2jSkfcxV/KpO1BIU93Gn6dpWkFlUWsBI1bDCRsmvmEJZoVXDGIr7dU7+Z2cUbdiwM69rLkLbqGuaDo1IS3bkum7ck65HxMdz7lGV1SzZvSeoWZSyaerR6ZCZrCe61GBaEeqy6LcnYwpbNm5+bPl49Ks3Z4nAHxyP1R56YZm35/baCRQnFV2URluabB8bzidQntf5aB9uSbiqYkgtn3nkMZQl3pN21wWRvIHdp/6z1XVmEpblgW46RQnX3PMrS7cp1P0sWtZzsVwc7WMhU6oj4B3WWoCWCPkbxQylFcTKbTfauwOWHj9NcidErU6K0ZCi74z7KzppF537kOE17gltAaUryKhMWwBVmmUbYe0aN+M1K+1E5exa2jgW1X+htTcQBYXzrxtkA95MOZ3uboF/v0DLEBPlTDmnGlGDf4LBMLl48ii5L5k0OSVNWaRn2zzicbSpBv9mhpakE+bMOaZpKsG9x2NDMr0VjSrNC+Tlvl93KegOJTGbqNnXrlfBWNZqR/FxRjIwqKsy5y9jC55m8jAtjTx8uZvOWZGRQzV5ftg1I9rJ5S0KDoErMBKbHLFK1qi4Z5NkD+/PPdXVk8ra0rD6sTXY96bZjSAN/bIuw2saRSQs+YguIWODanVV/YrPWGyH/UZtvsrOx5YfD50uts+pv59Cm/Qoxlogufc4WZTtui8rq37ui3eGo76quTSfym6W/syWuW2YKwf6HOaxVAtCft2jDxvDnEn4H4XzB4uO9myqqqr6PIxTIFp7pNBrcL1N/iUn/fos2v0etq9+xOddnN1O09F5vbzhm0DixOfW7sl/HmffN1TC9QEc4cMxUU/0Zl9PhGN1e6+2xlnpTWWAf91Agd5Uqh2DjsH+vLEh7qxlKfD8peHlaUKSdC6mdw/R9n05ZGbfgU1r9WAbXphZXtK/JoMrpbe2Pa+J3jM9Q3adem6Fq4hYMpoeD0Fxl0Olf4UBBkM64IYa+pd6RQcnPalfUr6Z9JXYmV7Of1eqdmsUS32y2KVJt9euZptpEvyYHMsu/kaWs9cjwv7FJv6nJxCWZEbxbgjTchZg8uyxTO+rJfd1DmQZC8y41RMlmBfOWVYzMH6VdraSsI/Xzvv5MWmSmAgmZAJ56h6/+h7bXG8arfqmnP+jyEiHE7bF3IC/z9F/EspEjPzzUD3jqH1JcwDEczH9NMVVGak7ruExcSSZ4U5utl334v6VY6lvcP6W4ElrHZJmusq96+n+lZeJ7JZcEr/LU/84UMUz1Gk/9N6+XxHUjbLj+L94e6oF/KJ5ghN+mX+BzQj/29aGT6r9og+2gL85YLKv/zryYE8gVnm+9XRMgetjiDRYnPVAv99RHvDGL4NijsrdpblS3wXNluH2xyiZ3gCOpXumr7/JGOK8o7uFw8KChfZ/PWE3nnE+Kq6sZq/OmSwhMhpbsRj/OFWt/MGmiQlssNfUbRLhkde/tG3bv9dW/i+vSTERMT5bcp3PqH7wHTZxX3rRxPkeIAyyG+sEMumQ/ZrHIxFhk2UogPNiaTQfxty7e46kfduWl3jYHoAIMI2aJjnClY0sq4/2DWXK7+DJf/YQrkG2euzQW4uscZn1yiBUzavWQp/4t1mjT4ENs/0WRO6P+aUQkCwQxuG5w6W3JTHVI/s6xqw1mvb6I4uW+erHDBYciQ/VSX7/EYZp4FuwuR7XB+MAa/B/y9fd4Zp5bkwdjqxypj3mEBAwae3awN54r+RVbQgWrVZH6hMdhyCAt+absVAb9q0QJ3RrGZMlLKuZ2Z2gu/GUi/utl5U1W1XB7uM8JLyb6Ry+SknB/gL2e1ieiLSvqu33z8ApT/AGt/qclaQvGVPugVv8rgyPAxNarXuz3hxKL2KMVhFPpY8b/I3F8OaS1JpMZ2c+7bDxkWvoC17CmVtWUyBW5WWF/76kvxkWOodm6/sFT/znG2yrN3kGEufxHjzqEs1kX5aFotEzhl60IOGoH44O9VdY9eqVe5av/aU0rBTKiuODVvvpOwlTsaajsCQNYZ+TZPfPVjzHLFa6n05wtLsrCsXtUMJapEut95jKkJS4NTDSWuTLrsGGfWlx9OdaSBxG2sILZmprHqZiZm+Yxlqy6N2Q81SEJJDeTuJwtrs3EdKELF7HrEDwim7ckjS0W0tx3cp6oHn8cZ0nvY4GgSFm/EH/xCZdjLfl5Dv59oujmwzK0p56innwMZQmfa4UQEnAAF7F36K+bR1k6LA2RKTMJkTgkz1RPmcdYsq2RURCJHBNr1PrrM3lLsW2fHYsOEBRXt6dZW97fQc1Q8OgioR8zh0xVdBnSEmPRTNuTVeZAK/aQJGsJDu1Yikjd6kVcH+oHJaTI2vuS1i/TSM7opmgBZa/QkXFI0h/p369+ku1ADjnhHktrF9Ewqa93dIQ5ImIMW+pN2rbYFuFE4caaADD8BUfIRDFP2+biBZmqb2Gb2k5x9B4mv8SFH7eQxt2cDsbx4lrhXsdySYzyCz31Lt1zLzZe5KnfiTc8G6IVdNXMwIbb7vLqvXpMXaJkZM26/6JWv2sCsKNjz9Q+p9X74gLxO8SoxQT08vfislS6FZEiIxGCv9Pq/ZdTFNLHYF/Q6vcNAcphbjcfUH9qZNHDRZlygSNydPdPcpQqjHFHZQJkc/2k9bxL8KRJ5CbzcVb9ZcpAroCEw8Mw+JS+ODgifHbhApJ9l68+rQ8nOJKB7DLN3SnxVeT9N1p6Kvsi8Zjd4mBnMsXhJDonA3xA/0d3VVDFH4jYqPR/0jOmW6JtInn1Wl/9ZyaEju42uEhgndJRXJAJdpHQIzAd+W7ciWiWngBeStxqa9A3DN7jq1d4BBJ3awMMsEG9KodDh1IwzzLLdM9p0ns99SNeNNzbH3FQi5+ENnvjwUiG+1qvt81ITMhrvV2ryvJ4R0691ZNgWwuLo96ZU7+QIaq6a/23eYdCAsY0/+YcsaQYU8LqHOwxMvGi99X7PfVLSZkcTotHIXs5JR/y8HHiEsFRGKm35PQ7s1j2vvdp9WsJqjUgNoAuG2V8TY5LiLhEumKujfCjc+rXE3ybWR7XMRV0/FMJNtye7EP5tpz+a7Yadt4jVOQSbp/6nGdu8kNzK88JSL3I30KrmIiNuC7d6ku3/od3rAT0Z3NccnBfw4q0ViK4xFbSl1JE/p3+FEMRk59DwVfUC32xwpOdnZA5O4hENh/Jqf/gsYVSL15cgv6Up37PoWNvSNCf9RDz3pC9WAgtF/WunPp9+pG51aX5D3joDFs4nuNbPfUHjJyjHC7TjtxDPZRTf+pZzUR/jBIznoc0DtG2WJ2WDS+n5u+9OfyfqcVat2BF/YXXn2wT6SagneX9npz6S3hzL4PYs08amHFPf8a6MQXYHlpnpjrcssL5rFHGwmw2HW4REorUB3Pqb80ozAyaoXw0p/4TvvEe/lTyCYlv51YrRrlPRnyH+u8IBAXiaiqiIaZREfm3PxBN/G7P77F/7ZOlUO/RUq86ke+XKI/jgpGiXxOs9BYhqGV5Iar4r1nohPLkQLcba/JOQfDdGOnV7Aeo/E7dQTlHJtlugs2bzyCvNlqb9v3EgskXC6VzDrFoEOap2RJOKC6vcZStn+0tIG3CKkN8F8J+WkfGyKWI7A83cedWE2orjBy4MFPFYvPDqGGr2fyCbbfsdpW5Q4SH1DEWHIjlkQGW19hiQC/z1k6UNv0Fwvs8recLA0qOYHXRqED68i9eN2Wn+CmPD8DjWGlAEUx8OcfZq376c5ihEbuV2ANL8UFP+RtzGPXoWiWUhyfIWx1/6qXlg7RrLflKc/riykuRlXrZvp3y40dj8cutnH13ldbKW4R7pxW/6ZYPIGew9nnU4jwyfhq1NI9O3lAtb1TCSrEqymUfpJULbXl7sxK/YDuZvCc7lXyEV5oynegeH/PpeRrT+mVEZ1Ii248r87rqMrIrs7u62GiVQUiDiQivcUhXM8Ff6/CmxQR7ncPaBhL09eaza/V2Vz7FE7TalUDau8GKstToyEPNzCzdWKukTwZvkneBceZmKUkEeYsUJblHmEd8yQO/W002fhb4SJMz3WhXGnVp/rb0Bd6jYm2U3THZOlO9/3BG77MkAeUof6LeYFmQbFnJChBqUA8orwRktz8qZnh/FN5zZQEFwpR1OsPr2VNvzwk/tzjbwpUTM3af83F220pZfhyWD0sXQCTsh316lb5wvYy1+EiQZ9h+8jK2jiaAIGUZgcTweQWzgzZdA5BlWH0aVpeVBxSmbPZdgfTMklYINBiHRJ6dmedoqli13wR3zLLbddrY55LGMuUBhWljgiQEErcU02Hpxz3j0tgXmJ+BguMoVrnOjJl59WfENjmgskF+3lO5Q2IKJvMFT+X3DiK2Rcl90VMLlnU7Iff0TODqYHyBaDxW0xJsxBw83OIZjh6mPS2tJSzZAiY4BGXpXESnZm241SJIvXI2YpAEGURq9rFe234NTTu6bMRBx6/55+TvCC1DF4IQdjBR581aRoUzb1Fagx3l5cfIyJp3ut8f7NBX1sHzJ3tbw8Fqz/7kvG7F629nq9eTil9CpNmn5PnSlelULjW/Kmt+tfxkpVUps0N0Q/MV+i7doPOV+nrQqmAvKtWqtRK2wJ9rIX1UwxYXD8Etxn9BGVjmGybDJjdfsywiWLaiHNtBEp5Bor2RrUF1n608Gx7K7ZuZcNUrUjc/k6l7ga8WsmJY3J/K4yyOIYZXhHOrlrJ9WZ7ri0V7vsQ3LIyFkuOSzbxa299w2BwqPVe5LR2Qnz2ZDy0Z4ZLo+EdHCBIzXi8FXfklEIj52s1jHUVrWZTiypvsitZDd16SX9Q57It87VUy6Hkm8JhJn17sKzlIIrevQNwWSuVlX1gr+osvKN/qlv5q62YFcvrEQbBfxnSf2FTmF1mkWobdDcoojH2c7xXabF7rQRndgUQ+KRp27Z+gkGI8kQ5bm7TUyeLdY+H58K7y3XdRWZideqnQDgDtu1v3atez1VKzNPeTDQtvcLhGjQzKRWnrVu/8TZOT6SBmlcRsrWgWCyXZEGlEhYH4VG0zren8ltmynTh8g+yGQRWHwpQ67xooT1dFUs5rzTbGjR1HmclUDuLouYd3bAC6PkMj8UgB3RCz9aSTrKF9h3KjydYZQmGG8Qpf+cNtwzNnuUfqB3ydj0zTg37D4ChlGbXt8xjWwCKX/jsglzBGbGlctE722NiYEi0riH1+7gJCXdU+3wzCUqtivmWmSk2ZNO0+8eWVQjGE/tnCRiGhycmBnzR/NjQyXjAe672CWmyeb68b5NKaGNLl0KBPhJsV45SunGvIo22gk61OKJhTxYL5WN1pjjzy0VuzEM9UxPMnfBZkYr6YPfsaOy4sozVxIfsOibGbBYJS8jHeh30WymTtOyRysoZPVq3XxnpUCZ4IY+XlRoBoHty2DjiR23uj1/nMELsKfo1IP34vKG/nB/UDIi1TcrliWkHljPdoVorq1NOMTlx8Np1u1X5Tzrd9GNtThndiBGjYvBHDEMlBDQuaVyeu0AW2Tgk7JGdsDq4M8E2+Wu7Po96MXs2jRKIYirf4KtefPDhmW8R1SxrLo4MRshiMt49S7IKIBzFPZw0brMyrRXnePY1M/xs7VcrRuaWyPevND0zPd0D6pKXUjFXljTIgDuXEFYtHJwKMMZ7xlu7tNIyB8deDAsVAufBK0lDxF6lV1Xx6TrfMFxzxBebJPFusbDE+RbbYSQsLXbMfkoZEBfclcPo7X6GM45defih7n2a2qPxW1MgWROqXfT3/07KIicUFlU8R7UHsjCACziecA8PFWxymLbRBc0XN3pOg5u6iUdukIHMV7bPdtNO4Jc7eZWHLPOFkNEAqiD+Gu0S9hT2JZKwTGQdFfjHp24Y7JrSNU8lcM/D3sDmXJmNiLzDpjQqmF7Jz9hyEEDjxOwLZ7dOfZBcMifJuSbshThJLE3GmuDakagNfNsFkR8mVMDu0oblP5VIa6b0dUGaUoblYPHbzLj+tlatnyg2blvwwNcbYdwRLEk4ZXTG6vXx5lPxE2iD7O9fQxJW2pwT/aGzF9neV618pV8v6JOtn2rMEbsVtqVMzI+NY4kYkp+dxG2Le1Gtz6oyZMCfMd3vqKti55lu0PrOxrLjH3GdhIsed6agyrg8e5IgE6pp51uptvrp2HmVWN7N3nWksvDjcb09ExMj3+gRVPCrsmRPAsroBEdo5j6imb0yyqY683dc3HeuqlUKmrzcfI6jEqn44SDw3CVvfkihVSL/lPqppnhYQ6nEbMYHkzDP99NePeBxulZS5qN8eYKTOBefjnyph2M/V8Sc499cJ11Srxgbp+4qN+7q4aMBeM7ybxGcnbJfWJWZALncuXXsmZCX7c6TyGrU2WNfWO7EW63TaPnP1vAPzIy3zoJ0J92qMjj5ai0dT2b870Wie75Y7YptiF8wSi+2QynrP5gf9DhpY6cPXS1DFowTp7xCLPWc801xkG3q3z2kwJrWEFWR5RkyDw8YMLH4xYH+0NxHeKTeGaLrdMZA3G85QKVqaxR92swW5B+W+HF3J79r4LLZnIIzaSITyxYS+Im9z13uR/BZ6aYf1hjZlceJ1HaLlcvV1gkvLC0PUTPYl8isIPjPxJ00LG9byGgGcQmPcgwrPPzCjAivHWbQodIFLQXEYgDAdOyi/yryxxpMXHt7SgRmbjgctHkncNc5k2a7krji+/BXGtzBPuenkdlxAsRSXNuiOXGnh62z3xoe9SG6NBu7pJFvGPreGI9dtFo9n8uWBLDQTBbaV1qwW5mryt0/Y5rZtNPfJSttyw7Q62e6Z8WwpL4MO2fRYpfZzXv3jHC2ndfPMpYVBpPoip2UC8hc500PDEXzfrF+4hsdsgnmEAxd3xZmYTK/NxLO08J8PWVASqzefQQFy7erdyYxA/8xlvYgDmINjG5BUtrOZn9ico/pKDJhna4AqsYmajF1ZzlUrYrD3OU/OKn35qUo+aTNM7WzBVLStmx924giv4hSii+3J/t4E12ybyLpoJP3B1mVsNDgUbh5nOKF6U3dHFuMl1IdvTCgC5ZyE4piUuHK6YCt4eculDhVcaWkYNZEDvRB9STKhqBQYnxmVYIDsCAR1dK5nhiGPaM1GHMnKYVbxc7DiCKgfSotYvC08ETeisrTjBB6pj3CsbifGP3HUsILpRYhqBQRMzF2KRjrGYZaebRGrsaPBGk7Y8E1jH8cVHQ8eTDLeZdNSlmnxgeIJBMP0DaN1S1kZ1wcPHhsC89hPOvcJCX3Ex/uZyFnug4XrYiVFx6JGzJHkTCv6eLNx98I5PvQuivlk0DnzA1T1WSy32L2SWWDYs2h+HbqV6/TS/DpCptjlzRkljGsguiiGqc289vHkvmJ9yYdxnZYZ4hZmDqxQNaYlbrN7xJWIBO64OigawygNRiPitBXBLCQYTrcGszg/p00zVOXLV7UJkJszlyoQy7cgwYBardK2GW++KvuceSGCZPYNFwQmjysvMKfymJ29KlZWzGAok0P0VX6jx2qMTMdiietRL5rFSme5q0+iVJejQ9hw+fo5TmdZ9jnUHvuV8Pe35vUwXgoVToTyvUMvMvSJvfPjodmf4jJdlzctPbpCR8OkR46p60SkPs+RZa6TxgwT903NPDd/MbdVkaVlyTpYoFIir0j9na8XKSMOZD+5QSAMRcDkIHB2HjaVts17G3IyScNFclwQ73vQLxHqQAOosj7Aq9sa9GZMKes/kHiYCW2pIrcySU532JlpVDrk3RbRMn1GnItofsyUnnrOKSSQK/GT57LEZQO1vn5edkWze76f1bxHPwfqA75KF4N6QC9NtmjokHFi7Jb7A3bsQd3yPIEtwDyYzYybaV+vWBHHG1ikPuTLZ0md6W/YSebWxtenaGpKb1fUaTNnMc26NQSshDNz+OYVthyqPyAnAEcSsy+LZDGpV++TS5UmUl/w9TXbmVn6Ip7/4dx8/L2vrmPZb06JXyG76+Ujw6v43yGzjRJpdUPGJMWmLVKf8vWNMybYmaJP++omyYaJFD/jq5uTSSmYrSNkom7ZmWwfRI1xG2JXV6tH7Cbz/w++ujUZXphudAXDtSw9/qivH3k4vMK29jFf35bIihHIA4NgNBCv1lKxypM50L3xZHwk89+JUcb1AMLUYTA4fUSWL9toyKQTl+rt7957MJgepeHSeae93ib+wb0hV7Lmz3vpY/UwAxFbr7ieddqiJQ4u+1gc1v9WzPNLWBIptX2Okpny9NYIxTTBMmcmUHwrRNwsxozYObUbXbduqkjdXfAssavbyxJszwx8a7BnjbW9p0HVcKrBm6w/AxKpLKocDRXl/JDHkZM7nkViSOhpi4WAlPsh2DbUDGxv31RejEB15HN5+PO19JII05J2gQqikRDRuFQAYsl+Zc7s1eFsso+XDovE25jWJ3scCez4vTmzMIxKorpE9aQGsQlXw3ZonnaccnkRcQyWOKTF6aTX36ZTXL/NUW/Py/1fMLYz+jpVL8iJt+jaUS/OYWTjhdzMou2NnHphTi3UYIwslPdYoRK9yTblsZ4NYN41OK1Q7/K0UeY4/49EmIfCWzp0ReX/J1892miQerHWCwIVexHGxe4/t8nlUm/kzNxib3ubLqicWookdBjiLNqS5Tjflq4+W52I8yV2fxoz6OeoFfOiim7n1UkDOo0l9mGyq8mx9LRtuNk7GiFqEGeiuUUjt6b/7OurMoNPlsSXfXX1Dpw27IGPYVxjuFdQNFYZ+8tR42AWiSjG2yNMNKEZ2dTQhWsNoTxaZgt6QF2HphBOwgCO2AtHnXFfzMv2RfWynL7BoFqDDOrGrVgvIvXSnL5pOti2ti4cfNvBAI1zMeVFdbNppzhFDXfxpzmAr9JhO/RbTFlA5IRwuMjtbZ56xL4cAo7G2wXmERME2a3JJwC4AhyY44l8Z/eROKazI3lGWLF3eVW6xAgetT0a7m/Jj38Sa9waXODfSH0mpx9D75CksyCRnf6X59Rjgyvg7RnFSf2Y4Tlektwde6JaFpdQZ1TX4iL1ipzOyTc1C/JKO9M0R8ALjJA5iT8oBcvycGentHsgUZSVlBUmQWvr6S0kXxWrU8zqYPc3zmxFOOUs7FQ4b3MVBsl6QfcQ2sK2cI8K5refqEl7F4UQFE0sbhHUE41CvdeHrLDp9u4RTeil/ctxy1ciXmNAMmUn9q+MX5HxxSuAe36GEI8Qltbuy6pljE4OXCnltC/ZorQnZLktgZqmhfo8h/z+lbALrfhJqVE+5bm/x1bukpj9S8V/w1gnpGVZdx6xJuB1G7/Q07jQ8HllDp+vZ7dtoTZIdUIubYNCHWZqtdooyI6pw7b8ZTQgr1CtmD8Yb6/1AOTDeq0gdH/tOV8zl5IL2WvzRfOMxlyXk1uSO6j4pn05br81sOfitB9LX7kfSfO2wXy2wYW5BhezDS7FDRbG9saKO6CHueFeUd4O8+xynEO4nOhFEmnPGX/V4p+r8oNL+1NsMAvXol7PTrHn7qXVG3Nss+7BpsU8xJ3NDjY4FHtsUW/i8l0altFbDNfr8nVIxzcJU6tr5QlZcvfq/hqvzWpmQf7Qon2wZC++zH2w+9Pg5YooCVAuuLdTqMok5usN7qYlR2aB22j5W+NG5ItJpsvlbUyytNYK0LuWKSC/nM1nCU/Yv2y1YqboJK2QnLKTV1mV3pymVt3+OdYz9Nd886xbbTTOmev1q+qB+3ro1RV60eq014XymlQiaPYgySTieV1OyXt+hy5MLxzItmoi34mm1+KZMQFhZtleUEKTrgZocNAMPlJvyKXvuFbjeaM2ITYcYI4e1NS9aFV0ReCEi8wmjqRhIxcEug/CKPeroaKT8xr/GvyRuGrIvT02gNpDMYt6bA0i/tfc24+EXphsSDtc+WiGbDbjt2Y6nhIElOLfyvdXZNuH+WGGZm4A5hkvcyV/di4k0h2IzpjHHCYOby9XOefPvwj0zLu79Imdv2ZWaE64yMMZocmbD1qaLLmFcF3+hrXL2fXqMksoTcN8JXDZQt3YFpyw3/JL8isuHxuGk+lLvVMlxspWPetdanJxtCPv45S/Gch3ZBWa2mogCEYybEjfPHvv3xttsMPg5jtFwCPScjEvL/FVNb7mLLTalZIxM1r+RrZdiV69sEHiF9wneXPr8qd68ut38u/C+l38u7h+N/8urcuf51lev4d/T6zL6VkEtZLcsZ5cbXDtKtAplj3LOwQ8LTRn1gV7FYaX5Oq5K9przJObazvy73W1oN4hvb4qf6/shrLgbiy3+femsoz45tXKWsfwuAWoVGi6ATyixvGI9FZsBskjxXLeFtT491EyC8YCPzqsMaMAj5FePRZRC5/H3cs/jy+vSu0nFIpF6eYT3WOHr2pJy1/dkgF8jbPHT5I/gkv6tSUMAOmTMQYkXxcWzJ/Se8q5ovTz67F0JLeHRkB3yGDuFMRdMri73Z9le2rR/FW2e4plmZmnhU1jop5uuvCMTZM8s1kpte2AvyFsdFrmg3bPqtRkPN9IPENG+OxqoWj+PPo3VepN80d4n1PstNtGLgX7igWoKP13V+SsjHY8eWVgK8NA1LiAfQRebXTaltcaF1MYTTOT6zVopFvy19CrZfsF7LPVYM2+FjonZrwlP/VQz43VrW4vu+4uNO2Nk23qtmKhzhIEKhF0a1YDpp2mReZlt1Ar9VVhELhBrroJXkNT5UPNls86AR0LVcKg0DJ/xPBs9oHPqVTdH8U669Tqia4+jvM1R2rH6fHlirwfbpg+PLGcfr75q2JBPVlqsh0Afp2dgKc4cd4uKdok/bwDN0d6cSdbiLT6VDQ++1Xwp7UamyRPJ4kZPwNYeJtePbMtj6wAnt3Gmyga3Sok06lL60HpHHeIwJ58FbgUGI32q/ZZUo5Od1xP8jGcqbMQ48T2iXgXk9lfiufZtrkcU5wISy2uLy12xXyAUaDTYbNST/p1hl6TXE2CEhtlvEa0ybZ6bbsVBNIq8HXMd7Fh8dfLCEhvEPlZ1I3SQdKbJLVt3mx6EgvrFpoQcsBHCFvSWyV1rB4pUsOBACwWuHMVunPVhsxWtVZo3dsxNWr2xRoQelYz42kY6nKlYImbCXSvVSzbvZP2shboqjkT9ujUEj3GTcljy6w8h3tCUGuuY1ulxa9eDUyA+WuwX3ZhP4nlE7TMHwz92ko9pBu21tfHq+0u0WfzpIrMPWFsz74BG8Pk2CdYz8LScKMRZ7+RmiLub5LxkT4n9rtbomlocfcOMmGcuZNMO87cRaYTZ+4msxFnnkrGqKpk7iFzn2RMH88nlv9+2UPs1H1zusN8i6xft7TJfqtMY9B1snqADXjNGJNu7dgvjzzdj/ol+b2q+byf+bKmOQBaj2eAbyCew7vxHLJFAXh8huTTmzuCl+OeRIFqE043Q6JAx0/Ufknc5Kb7mZHy3JfbVfrldjK6TJxRvLR5Yh8zWCiJ9bjCB9/JeaUr/uyJgJy1kMr8xKCd/klsbQDBSAkIr4B5TX68lB4H8nPHgYhy9/AUf+vYgWA4dnCe4JshLEynPcdoRefnWhDvyvh58vH/5GSD+jH7ADr2Y7yKmVLflsTPsHKX8cKFmwm79+NYHpoW34frNkdmfq+WzuqHmNXLygMKmVqvFyMZpuP3Afit9wiwZH7+FpPHmrCbLZePj11WI9OBD9OBgCCK8SttZE8P4jwVJFL/sSyNwUEUmfTj2SL6YIb/CYY/cr999JLSthSphUp9g01a7ANea8iRMGgbs6c72AVSr1ntrJmN0A/Ph9ak5rDa7W6hKb5EPrR61cRZH+D49xCPTBC1OX1DoISReeJrsjqY+4QZ08E+HVDAxm028PhLt5ahFUGOgNFop9JXZ5SeDfb28VAl1HWGOKXL1a33LyFpOvBJIpWlh4kcwc1GEGRuxqxgCVp4rMpMTK1hgzVbyjdRrYpEIiQq9fAhuFx8IKj0Gxx7LSxXGvJLYLqa/paFDOdj9MdmMzTv1cr7P6sIAACFlgtwVNUZx79z9u7mRUIggSxCcEnlEUJ5DMuj0HsO4RHAgDxCW0YJkEKkYoigCVaL4ZFdEIgpFjCodYQAtkwFdQqRLokFpIARikkzA3agoxBNgrFjBRVIU/v9z4a7aaePTGa/397/9//Oueec+90VQpKLurxz9EgoPmHmj5cXzJo39XvLphZMnjE/Z9ryMf6nx66kJEom0YN6UypZliCSZAn35MeWFK/ILywij4heS0Qx1AWB/0xIpBpJJMiUp35kSffsvGX5vhH/Kz8J2FU8CaM0xjQYpxcW5T9emFfgm1VY8JRvUl7h6rwnyEP/v0y54AnMnoJKgqcQ756V/Xn5rtZXDvtad77law3sa/3drtaK1z+rWkc9Sol8PtFPDAoSbZPpZkyam7+suCDvcaLB4r9brY1Ea9g13C1EKXn9AW/uUrmR7gx1cc03Lf5YHMUfiW7yxPE/39rdLBdB9bFQsrouSELIAFVHdVYElJm8iqy8nt9ZkZ4SFXuRhIuV+653VlwdiiWD9MCYzorleYYDCTcr5dmdFXcnT+1znRVPh8fDSmxlZyWqwxPFSlZjZyW6Q4nmZchM6qzEdCgxrCz6lzWIDSsxQvzb0su1RXWjXMkNpVfP3HINeXjsB1N7lrR9ttvV1TPdIvduD3XhXZZ8ELgSRVE0UbxIWMvHtGscbaDjVaU0oSJA3tkB2tYQoMT2IJ2aECTrB0G+HqQ1H26ky/FJXIJPkFgnxHpBGwSVCgoICgraKGiToGcFbRa0n8epFfS+sM4L+iNnSKqQwiN4UJy4GIq7exLCZ5K/JZtjuYV2D4wPn8178D2V+tK9NEBwPf6GKy588FMlaOB/vJoh+HDwF94Lvs/1/Gnhg88HRieqENSHEkQvXOxN/WkIfdfUcZk6USKGYomCXMETe5AfhpbKkbpsaEi5AHu3liiidD0sNEi5vLl9dXHdfru4Lk7nFnWzXXu3fqlCzWnVx5pPmuiqn7LdgDd3gTIZZUO7K1jqp1ywO2oU2SiKaEYBZKV8pZDBD4I2ltyi/ho1slJGaFN0WOj7GqMgmmEBmIfJwMRgwUxNDUwdRRExConiulRDLsDerde5QA8danZr17BQPF/oyUZiz7240MjGgWY8RFdWyh4DLZVBnpHJmKdg8eb6+Xa5hjc3mS9c57tKVmYUQHHdZr7gZ8sc1WFJ4DpBHvqSbYp6c3fYGAWRMxoNYB4mIzyxBE7vwRPjGpg6iiJiFFrHLcybexgWkoCyoeM0g58n0QEtlceUzEqxwxBqluw0ku8u7ONRzykGH5aAONkdhmGhZ3nuByH51cKiVWFgJTwWR6JrksTbN2xdU5Sj5a7CuRF48p1XayQkByCRuJ1zTR05+7WSSxK92oEnflKnJCQHIJG4PqCb/rJ+ppYTF/ePwNs32qslJAcgkXjk+RV25ZTRmi/9TTkw/Mp9WkJyABKJ8+dm2DVFSUrGXfyOXZ/2kLJ+ecqnAI9WH1b54xepaR/fUe0HVimefrvyjxyprG0nj6jZz6Wo5rZ0Be/dGtyFM6JUvMzQ8mb7vAj0ODRVSUgOQCIRd3GvIRk4XhsBkwTJAUi0lRf50Wq/zqritW1umx6BE7V7aiQkByCR4DVXJ2oztZX6YKOBwPFY/aeZaSY2zLyqLMDl2yUKCf09QsGBaJ3JHmOgue2AjQRE4wCgBBJQEg7E8GjlFUO1NXFxvoF51/qrjE09TTRegIqtUEg4cDrbjIZofTTrvIHJW1tNAqJxAFACCSgJByIJauImJTM2qadasrS1w3vKwB98X/DZGWHirsLu2gIse/hThYQVTXz22YFosWoABwEJiHxNWwCU4C+mJByI4dGi1o/S1tjNmQZmjIlhaYCJnK4twIqmNoWEnKN/MaMhWj9KOGhgUeg9k4BoHACUQAJKwoFI4qGl47V/JO/wb1+ZFYF4+RslITkAiYSKTdETRvXVMvfnEyNw/lwXLSE5AInEolCMTvnwAc0nOjUCP0s+pCQkByCR2JK5mOe0U8mDfV6KwL6VtpJ1aeO1A0bCJB3gu6mRsDsAiQT8WVU3bFPose6u8cbvgCMB6A3e6PU7XXpRKF3LnKMqAmgZEpIDkEhsOznKtBkZL7Mj0DrnqJKQHIBEYknifLUlc7cySQ588avTNq9YhXKA+0ONRF9w4NMP0pTsZY3WDvzi8zXoZPOVAyhIAtncJ7mt4sHkPwNmVSA5wAqhJZWpY9NnYMffiMCQTaO1Bfj16Tj9bcNP+QDVq3XLq+0jZ6uUHHd4ml28/ZKysB049Shysz2Zt77MWCUAxUhc+Ga7IVk5pSoCSLIArXO8eviVRvVtwy114ZskvrurSr77VbQeu/mEslwZZ9TXgy6zsl2lL+iqEWGVABSj97lR3Wz3m+WVq+z7I8CPbw03RH8EIJF46cUX1drlfbTEE+nAuMPR2gKUVxziBzjATShdlRU02a+9fMrmLrrJ5p1QFjdfdTtniUKRpNLjJsIqAShGgvuiIblh57sRQJIFQHNonXPLNPm5R/vqZ/QoJfu92V1PXPyJbf3+1T/jLcJdbo/6+4G3TIRVAlCMxOiFIfuFSdy+j5ztqR042OceLSE5ACl8t4MX8NOBcR04UdsvPGUHIFETL2ZzWwufDJ+W0z4ex6enA9w/TED7b1EOQApnP/I8v7CR5MAqe4sySQ5Awkbt4BH5HbEk8ZKBHV7LvCMQTQ8G4BWABLwS4EC0cOoB2AkkIBoHACWQgJJwIIZHQ/+28j6ZbQBvTTR4ROMF4GlDAl4JcCBy0z1hYEvmRyYB0TgAKIEElIQDkQTvGvcSPnsvTMqOAG9bDR/40RGARFf4VxQeItjle6sXmjoGUh9cGn6+HIBE4urTDeq1lwNI+kcEzNGG5AAkEo37e/Pa36/lpb0rI3CnZLCWmK0DRtqwc1IEjk3nH2awOwCJBPzd5vcKFyqv+KsyfgccCUD0Tw==(/figma)--&gt;&quot;&gt;&lt;/span&gt;&lt;span style=&quot;&quot;&gt;&lt;font style=&quot;font-size: 16px;&quot;&gt;OK페이 앱&lt;br&gt;설치&lt;/font&gt;&lt;/span&gt;" style="rhombus;whiteSpace=wrap;html=1;fontSize=16;fillColor=#b1ddf0;strokeColor=#10739e;fontStyle=1" parent="WIyWlLk6GJQsqaUBKTNV-1" vertex="1">
          <mxGeometry x="240" y="-625" width="80" height="80" as="geometry" />
        </mxCell>
        <mxCell id="GBO3RVmkL8M1SUxiBIiZ-92" value="&lt;font style=&quot;font-size: 16px;&quot;&gt;N&lt;/font&gt;" style="text;strokeColor=none;fillColor=none;html=1;align=center;verticalAlign=middle;whiteSpace=wrap;rounded=0;fontSize=16;fontColor=#FF0000;fontStyle=1" parent="WIyWlLk6GJQsqaUBKTNV-1" vertex="1">
          <mxGeometry x="40" y="-816" width="60" height="30" as="geometry" />
        </mxCell>
        <mxCell id="GBO3RVmkL8M1SUxiBIiZ-95" value="&lt;b&gt;읏맨 키우기&lt;br&gt;진입 프로세스&lt;/b&gt;" style="rounded=0;whiteSpace=wrap;html=1;fontSize=16;" parent="WIyWlLk6GJQsqaUBKTNV-1" vertex="1">
          <mxGeometry y="-1169" width="140" height="40" as="geometry" />
        </mxCell>
        <mxCell id="GBO3RVmkL8M1SUxiBIiZ-72" value="&lt;b&gt;주요기능 프로세스&lt;/b&gt;" style="rounded=0;whiteSpace=wrap;html=1;fontSize=16;" parent="WIyWlLk6GJQsqaUBKTNV-1" vertex="1">
          <mxGeometry x="1810" y="-2.5" width="150" height="40" as="geometry" />
        </mxCell>
        <mxCell id="GBO3RVmkL8M1SUxiBIiZ-104" value="" style="edgeStyle=none;curved=1;rounded=0;orthogonalLoop=1;jettySize=auto;html=1;fontSize=12;startSize=8;endSize=8;entryX=0.5;entryY=1;entryDx=0;entryDy=0;" parent="WIyWlLk6GJQsqaUBKTNV-1" source="GBO3RVmkL8M1SUxiBIiZ-97" target="GBO3RVmkL8M1SUxiBIiZ-101" edge="1">
          <mxGeometry relative="1" as="geometry">
            <mxPoint x="2080" y="52.5" as="targetPoint" />
          </mxGeometry>
        </mxCell>
        <mxCell id="GBO3RVmkL8M1SUxiBIiZ-97" value="&lt;span style=&quot;font-size: 12px;&quot;&gt;친구 초대&lt;/span&gt;" style="rounded=0;whiteSpace=wrap;html=1;fontSize=16;fillColor=#d5e8d4;strokeColor=#82b366;fontStyle=1" parent="WIyWlLk6GJQsqaUBKTNV-1" vertex="1">
          <mxGeometry x="2020" y="72.5" width="120" height="40" as="geometry" />
        </mxCell>
        <mxCell id="GBO3RVmkL8M1SUxiBIiZ-106" value="" style="edgeStyle=none;curved=0;rounded=0;orthogonalLoop=1;jettySize=auto;html=1;fontSize=12;startSize=8;endSize=8;exitX=0.863;exitY=0.995;exitDx=0;exitDy=0;exitPerimeter=0;startArrow=classic;startFill=1;" parent="WIyWlLk6GJQsqaUBKTNV-1" source="GBO3RVmkL8M1SUxiBIiZ-99" target="GBO3RVmkL8M1SUxiBIiZ-105" edge="1">
          <mxGeometry relative="1" as="geometry">
            <Array as="points">
              <mxPoint x="1974" y="142.5" />
            </Array>
          </mxGeometry>
        </mxCell>
        <mxCell id="GBO3RVmkL8M1SUxiBIiZ-126" style="edgeStyle=none;curved=0;rounded=0;orthogonalLoop=1;jettySize=auto;html=1;entryX=0.42;entryY=0.015;entryDx=0;entryDy=0;fontSize=12;startSize=8;endSize=8;exitX=0.337;exitY=1.075;exitDx=0;exitDy=0;exitPerimeter=0;entryPerimeter=0;startArrow=classic;startFill=1;" parent="WIyWlLk6GJQsqaUBKTNV-1" source="GBO3RVmkL8M1SUxiBIiZ-99" target="GBO3RVmkL8M1SUxiBIiZ-124" edge="1">
          <mxGeometry relative="1" as="geometry">
            <Array as="points">
              <mxPoint x="1910" y="167.5" />
            </Array>
          </mxGeometry>
        </mxCell>
        <mxCell id="qNMKc5YfHU3eDxenYZe_-21" style="edgeStyle=orthogonalEdgeStyle;rounded=0;orthogonalLoop=1;jettySize=auto;html=1;exitX=1;exitY=0.25;exitDx=0;exitDy=0;startArrow=classic;startFill=1;" parent="WIyWlLk6GJQsqaUBKTNV-1" source="GBO3RVmkL8M1SUxiBIiZ-99" target="GBO3RVmkL8M1SUxiBIiZ-97" edge="1">
          <mxGeometry relative="1" as="geometry" />
        </mxCell>
        <mxCell id="qNMKc5YfHU3eDxenYZe_-22" style="edgeStyle=orthogonalEdgeStyle;rounded=0;orthogonalLoop=1;jettySize=auto;html=1;exitX=0.5;exitY=1;exitDx=0;exitDy=0;entryX=0;entryY=0.5;entryDx=0;entryDy=0;endSize=8;startSize=8;jumpSize=8;startArrow=classic;startFill=1;" parent="WIyWlLk6GJQsqaUBKTNV-1" source="GBO3RVmkL8M1SUxiBIiZ-99" target="GBO3RVmkL8M1SUxiBIiZ-122" edge="1">
          <mxGeometry relative="1" as="geometry" />
        </mxCell>
        <mxCell id="GBO3RVmkL8M1SUxiBIiZ-99" value="&lt;span data-buffer=&quot;&lt;!--(figma)ZmlnLWtpd2kwAAAAsEMAALWdeZhsSVXgI+7NrOXVW3rfaJodFRF7o1lEJJdbVflebp03s6pfq51kVWa9Sl5WZpk3q/oV4ziICIiIGyIiIjKIiA4iKiIqtoiIiIiIiIiIiIzDMIzjOA7jMM78TkTcJeu9Zuaf6e/rFydOnDgRceLEiRMnIm/9klcbRFHvwqB9tD9Q6oazjUq9G7YLrbbiv3qjHHRL64X6WhCS1Z0waGXynqEO6mVgP6ys1QtVoFzYPl8NAPIG6IaB8FowtIZzNzxXaXZbQbVRkJqL9Ua7snq+G643OtVyt9NcaxXKUn/Jgd1yoy755TjfClZbQbgO6kRYCupBF3RzvXtvJ2idB7mSRbaCZlWQJ8uV1VXSU6VqJai3u8UWrZcKofTtdKZvZxudFuMIpGdnwnYrKNRsCfmrXN6O+OpKvR20CqV2ZYNBVit0zIqGsmtaQalRrwclBpvpTNzDa69cHPf1OtMfWulW6qVWUKO/hSqlrg4U1xcuDSMm4D5gJVV0YXubiQRFD8vdRt0wUiaz2aq0pVO6PukPmru9aAAZfAttM0qIao0NA+rN4bg/HF9oHYyEpt6o3x+0GhSoRtmUCwerKU+gMAClyo1SR3oIqEuF+kYhBPLWWo1OE8BfbRVqQpcrNhrVoFDvNpoIrV1p1EHmNxhOowW0IDImXaxWDNuloFqtNEMBlxl4G7kanTrRCtY61UKr22xUz68ZJis0VS8HZRFQQneyHdwnXTrFxJQEcTo8Xys2RD/PVOo0VjdYZrRSOieiujpcLzSD7malvd51da9x8jYdvLYka6FYbZTOkbtus1JeM3p9PbxqMtIbakG5UgC4cb2ytl7lfym+KYSBHezNDuwi7Fa1II3eslkI1yvdNi2Te8RGoVUpFE3/b2074JEG6JaQB7nbYhK3qh7F8MxaeXQhDCshE9qFc6MjZY+5XD+DqlEmCh+bMJLetCgE+bhao9wxrT4+3O3tDzaHs9324NLMzvht4b2dQiugVNEZNzmaMdcaZj14bTiK+FnCZP0kW25syvhzV5qnfLPQKlSr2AKWQK3bcmJbmEdXg1XBLgb1tW65gEQKpvElybOmOpJZlsxqxXA9YeBGtRzI1K20WV3B/Y2K9PJksxWUg1W0rNxtthqlIBR9PcU0BFUpPx3rczesuD6eSVC1TrVdaRrkVbVCvcOqrNSbRtpXrwf3FaxCXlNaDzZaBry2STWHvq7BsC0oSiM9u6FZ7UjzNxZarcZmPMybbC6Wxc1hp1ajL92znTqTaRjcYnTyEWEzCErr3WKnyEyCuNVMOeYLk9VoFYwpemRxNBj3ayxc6Q5q0m2vMxNrYj4x8K2aMdq6XGidC4S15wYp+unLamSxFbGJZHOlRrWR5PJGx02dhRBzYiCzfqlRbrA+yC/ZKnF2WbQNDQU8ETZW213Dg9zKeqGF7rqcMdZBK7CL9FRwXwk52ZGfXjezfSYstDuJHbnKtAJwdbWDqBphpS1NXNPsDcdOe5fCBksApEKjyhWmhdakq2B0gpLUyAMDBigoNFUMDjg/wUHklD5XqVkx5zGiZysACxssJrGZi5U99tVwuzcaWOmzMbaCdskIfrUi49Toq2mtbfXWD3Z2Btuux7kK1qfFtlhgAVGoyq1GM83q1Qa2kJlkmyhWO9JBr1gonZtH+bJ+S8bkLzTQqArKAVp1mphhUl1tbBqALrRtH0I0ototFZqimbk0x4Jqlcw2kRem5cH2ZNqbDSdj6sSbAS0zv8gVWDPcyrkg1TavOujJ7tKeDvfIxXXg3V0P3Mzr+sHe1mDaGQ9nEXxbBRmqalbuC6ohgKbXbJhC6ZUm42g2TWd4kZkHr6TcDEnXCrI/evTDid0PS2ztALlVOJa7tkbeZQz1QjibTi4OCqPhhTEVEmaKXYOJBdCYVwd6lrjU20cj4/EwXKMaOrGXnl3QIhcZhG+zwb2dSpU9GEMHMud0SkyY9T7yiA/lw4AmqIXs1rKYbh7dO8gvZfJ3kl/O5O8ifyKTv5v8Sib/VPInM/l7yJ8qVVqlbOun7WjPToYimRpORQusKgYbgYxAxwP3ipPJaNAbN/YHsYLkOnW7UhEj1WQnBNZhp4htNrB3n1nARl+N8Ncn0+HzJ+NZb0R1Zxkzc4suGyl4Zzvs4asV08O09sZgOhuy9ATXaFKUqVpstNuNGpBXmxxEg9LBNJpMkQ/bQgHbR4EqtRohK63SAtbB+UCWHqpHzsPFM001CwwFW1hCxcnnsPQkeZJSpQq0UBOLKlUWmWIcZ6ClZP5MdnmDxT6Z1obTqXQgWUVm1km1AbBAWEZ2tLaosFfuRbvWnngldmFQKlVwbWyOXQ+5Zn0NlDrbDCTV4YYkXrMsbrAfXNqfTGfH15CPy4NJZ/NzC0XFCBwe076OEcmS9aq9o8nBbG067FsmObusMhJPO+jZVeandZq92WwwHVMEVaVpVgg22thqbebzYDZpDaLh82GdiMh0x0gm6YdOIE+qtacH422nfl65EoqzIzwVfjW7KYAOZ0ejQThwY2fqWmHD2cc2fj6JLqFdVlc4cuBq1EuysfjtoNZkgzXOfC5mgzBng0SSl+03gDreLTAcve2LdhqTMa1joO9HuqYHmo0S39TAltroNc1dJl0rUq+IkomJAfZNhdLkgA5NXb2Fh6uH2N3k+IVOW3auXIZV3rA6exDNhjtHZB+WS7NQwsHcCOzJw7f5YtDetI4BUoJPaGfRGFyQHD3Cyv1Bt93AyhgBzSFQOia5Umviw5OTEmisNJqTaCiTy34CynVcFYqIvWNPO4Zscyq2mb2GU1ChCVq51BZnReSmD+qY2/ExaEjGLFmatZO8FE8dpsD6XXJiJq87LTNxRTZkUr9UbRiPNYfb3o1db/L5ThN/Nuias0O31am3K+a0tMAqK1fEuzEKsFiha9NepuWrOEew/A13VVil9a5UZWsir2sNTuq4psCehW2BT611ccGAc7YAZ0LI8jZnPPcFqPCSjWPM4dyMcKmMO0m6TNm54Hxc7QTZjYY9Ya0A23Gsm7k8meRZceRP2SZixTlts5wJN6T2mfa0N7ZTakd4Cxsux4R2lx2CrVdkAZliJTPFpopeJRhA6tnDzWqrkZwU/Awq3ilyGZzdE/IZTLIpLDQ74brFOWaLKSbmtZSiLKvlFJFwOiHHaotznFZSTMzpZIqynBBTjEg4nbYdZRIhipmdmUPG/K6aw1qWV8/hEq7XmJYc1jG9NouLeV6XRVqW12dRCccbMG+VUlfKyN2I70hEpVDH6pkleRPHhAbeZIq5OehFrGA746cJepQ6xUqJAiWs44zGpc9kPTFN1iOnhiyxpCgndHOYvK07h1uwVj3JL4bNlt0SltZQT7bcBLHsSBPECQuZBcJatqtjZR7Z3hTzcfIYcp0jEuhT4fZ0MhqVh1NrSei0W2NfYQNAwsZA27qYoZlYg0EfIzYbUB7c12QvtDa1BAdxqkxOr3XYhbQXERyiMeBFpUcTPCMDeqXJCNdD56ZqWekL/ONt8Y/f45+c9U6ofImcPuIfrwUK6hTxIP/4u/yTM5zC2WSfCtsCq+cqve+sNARerTebDi8pvbB3++3k9d7td5B4e7ffSeLv3SHI3N4dgszv3SHIhWZvikWujPsD6nkXDoZ99UCG6Yry7HGBwsPe6GBAHX1gjg63Km8VKdV7ewOl/Z3e3nB0BL2OZK8G8GAyi7anw/0ZOV9oN3rTYY8qB3uD6XB7dXjhYIpo2Z3dEVmhdswngCayYGKbwKaZ+arhfm8bpZ6rS6gBh0GMmMlrYhjuVHkFBqsyuTLALAcMKcEDA+NPoc5mfrO1S739CGVOq7D+zPFSk3TjjNcMOOpJ130Q3SQnLjrxUAHzoBjsGuBChn8zlnu2W7jw/Isnj/cEYPoTGiEzOQlVBZ02S02Hgz1YDbc3B8MLu7M5IsJzMqSEpILvP9yeI0n5cLgwG8XqoDczE/W3uslJkiJVurNpSNxovFIzFLwvoyI1AyXNu9jmAoEecYkXG61ynXSpsNqS8uVy3Ri1E/VOTYa2guMu8b2T7LsimlNlm54Wj570DAdfSa8qFMwh4uqSTa/hFCXptaHNX9faMPGT62WBk94QbppY9o2lcFPSm5hkwd9cKpnA4i2h9c4esU6Aj/RW5wc9stGqS/9uE6GQPop9UuT36HLbnJUfs1otyDgeW1triZvwuBCdJX08pxJp/wmrONGkT1y36Vet23a/um3zX3OvTZ/UtOnXykmL9MnV1aLkv67RNOlTWm2Tfn3T1r+9ea4ucrqjihkivZNU+nlXq12V/N2kkn9qodjaIL2nUNyQ/NNIpd9P37B8nrFBh0ifWaxuyvx8A6nQPYtU6L6xcG5dxvHs0llzgvym0qpZUM8pNU2+UOq0hK6IyyD5EkZS0vKq5R8QBJT+rJLeSbpGehfpOs1KexVS4X923Y6H1takP9X1xlnRGzxh4+fUKzgkpI2zzac9nbR5tvl04XPv2eYzbidtnW3efjdpWD1bk3ptYshC32F3lHnZECeJdJNU+nFf7VxN8OfrVePe3V/vnGuTfjMbifTrW0hD0m/dQOCkDzTDtuC7pIJ/butcS/K9VnNd0q1Wpyjzvh3iSJP227Yfg3bdnHF2mCaZvwsbhNRIdzds+XDDjvt5G+eMvlzcaLVbpCPSO0n3whALrtSYVPIT0rtI90nvJv020qeSTknvIY1In0Y6IxU5HZA+g/QwDLH9Sj1IKvwukQq/I1Lh93xS4fevSIXft5MKv39NKvy+g1T4/RtS4fcCHYZ3CsPv1KUN08MXCiAsv0sA4fkiAYTpdwsgXF8sgLB9iQDC96UCCOPvEUA4vwzAdPV7BRDOLxdAOH+fAML5FQII5+8XQDj/gADC+QcFEM4/JIBw/mEBhPMrAUyff0QA4fwqAYTzjwognF8tgHD+MQGE82sEEM4/LoBwfq0AwvknBBDOrwO4Szj/pADC+fUCCOefEkA4v0EA4fxvBRDObxRAOP+0AML5TQII558RQDi/GeBu4fyzAgjntwggnH9OAOH88wII538ngHB+qwDC+RcEEM5vE0A4/6IAwvntAE8Vzr8kgHD+ZQGE868IIJzfIYBw/lUBhPM7BRDOvyaAcH6XAML51wUQzr8BcI9w/k0BhPO7BRDOvyWAcH5IAOH82wII5/cIIJx/RwDh/F4BhPPvCiCc3wfwNOH8ewII5/cLIJx/XwDh/AEBhPMfCCCcPyiAcP5DAYTzhwQQzn8kgHD+MMDThfMfCyCcPyKAcP4TAYTzRwUQzn8qgHD+mADC+c8EEM4fF0A4/7kAwvkTAMZE/YUAwvmTAgjnvxRAOH9KAOH8VwII508LIJz/WgDh/BkBhPPfCCCcP6uPx5dw0WZs1+pupWNXzRPftNbb3xdnSXs708meuHezCf96xdFkS2m9dTQbRMrXNrClPJ/ry13Jj8Wzw4/r92Y9Q7uo/I1hfzBRnhfTRHd1piMhavai2SCcHEy3YeFFU7w7HBRxB6fbdQnC0CAoztgl8VwL/ecR71B6aSYdx6eMdnv9yYMRoLeL20K0YBcfE6+1P5j1hiOg3IDxRuKI4L0eEk0YENUCXpgN9kwY1BYtHg63OOfSjWXOkCIX26y7hFfeif+/TW7jnU0RBvDy1lR4jmmZ3AnTGeXdYCbpKqW3RRDqucqbiDc7E2ffPxxGwy0Ep1WOxF0qnVb5CK8/Ujt6Ad7jaGcy3VO7anFoZuylWi0ZqL2Lqz6WroNa7o1BcoCpSJFgrrIY3Eu8X6Z2UV1NPnt/co06YTG7k4NRvyT9q/XGIOjPDdMJJyEq082VSKoAnNwxsjWUbkpfodWpfRnpqinCNqvTg73J84YlWmgS2EbGi/rMoVGkl2l1DUHoC8MxpyVpeXPYnzEwde0cdt16sovqum1pCWdZvTmnrhdHuMZclVFQ5eUvDo7UWOkdsNXhOK7E7AqmPLwwoHc+JxVy1n1+vspJxvnJeW4pyMF8aMfp+b1Lw6jdu0DDWsC6SA1dj1eXiYXbxq/d3u3JkWIwjaDQSc40VCnLkL1I4MbhYEpIdtDuMb/qXZ72RyZOa8J2W8w6F0kjeh+xiej8hdHR/m7E7qEX+sllUMTeoRe3OGJe/LaDiSzeN2l9lWWzQQcgocdLOwwmkc4rtV7e6Y1GW0TkVimI1Fif2EURpzR2sTi5BJfXar1CDuj1vj45S4K7nICn7oSYV6ccftBP5Ht6NLkgFwGGpD0pxWNv7OxEgxnWRy3rM3vDOPqX1Lt6jxz8beuv0/qaPkezw0G/ajrxBl9fW7aIVM4n7TCdtPSctLxUWizhOWmxmOakld+hL1nhLFwui0U3UnjMSWDJ4TMSWP5/kMCJ46Nd6dvBVU3/Ge3J9UwflJfbInLaj1SfA7e1se507u/GdBwa8kQZE8YsgrRSlHaaKAS2JIb9YbTBsQ8SggG27jmWzqLKF504lbeE3bMnUaT8oFmULCQpOw/gC5CMPie5QrQNK3KLmMnJdFDNXERiFXeG02iWyEXaokPZ/MKaTJ7yFrcne3s9hlC0O04aithSdgUxaMYgE2i0gPYvZ97rHzp7vHC57VksJ8rBVjUl3oK8NPKKmcvO6LQFI3Do7rmKWB1kZtC13pRJcpLOdssGdIxWSU3J1AezByeQu/EgnD2k/3wiS/yTjOpyuyBbNzc3yETLxEfqAa3Do72tycixj0yGdtnRLRwziYSBR5hGNoqQvg9WEQ2bDVMXs0UrjVfgeWgCHPbB4V4SCkBWa4OxbG9IyLU1yXLWB9FglTlfE7eDcRyNTTBG4yoMd3Ya49FRC6kf9kaG2i9bPa/s7R3MZHRm97F8vXm+ZJz18goRK6fSp5eMH82aDqF5h9baFQSgjmDQk6yoL1bXwJU+Tqmr3xrsQHLRlsbMWUimEEJvUSQro+8JRsjfSV1WzozBTQ72K338WeWbGQJ+NyvGSprMQxqfQDYLhkT2PVotxNnQcH+fJuyZZeXFK3i+udBxf7jiuMGHKd9wjaII/xeKBiIQYVf6/zfKkAGUH44IV+GA5voPV97eHex9hd6EmB5cFWicDswEhv4Dem6SUrrmVJwfb2EmmY2EAi837a0Rtzdjo3DijJgtjalrgyqJ11DrjQ/YAY/CwYh1OWApq9wwKk6mfefAXIEgHx1sSQhziz1IGndjWEj7Nq+gH0FB58oCCkRNZ5KnkzJGA9sxfYg+hxguWUQyy/AfEI/FcnnLOzjQ56zqRqYQEeFEH9rxr/dwwAmrioibvWQ5R5z+2O2cS58fDXFMp0ey5tuT0I0FMkFwQtcLWNv9yXgwdkto8WC8M5LbYrn0y7JcGkaduMhIZtl2uxTXr/Xw/2PDtx1jLVe9f7A1Gka7MJOGpbvtSXvQ26um3ZNGvOON+BXONmLIY80NZzLs1BwJq8ZO+CA9xcA4YrFiONdzXZg3NFfmu3Hn/xNn9obeKMzMSFzFsrbvi5R3yrj510lP0C3j5htvAIvvT9kbD+RMkEv9/TxJ4u8vRPvTQa8PxWK0O3kQWXNSKQ6QYF/MM+RLlscGmxKu8LJpxGVO2Mout3LJASePHHCqLWcIs6lWxjtymjNd3VC6f2CNPu16KOhsIgXlweFwO37wEN+jSIDMPMrQJUKWJojrGRxXKxKCJ4/dl4qt+NjAzuIql0qbXXMo1scawemRjPo0Yo7c7shYkFqlz1QOd4Zs7yg9tSzPz7CGG4gfr7Dp/IS2MFBLye254jYtvnrTAiclnuTiCzif+x/GEVPmXDYhzjtETL9gHycCLboOFHGtL2DpxdFiKbDh0htaSUYtF9TcZtlLZbnYc0+c9GUM7BiSmgQ/K+Vu/ADvcvICOorzIwrqeVsJ2nD5PKJMUSVRE9HFeo/jrJGhoVL5emGD2Lu5plDcLbbsC0IdbpqAvydplzsRQ+C7S0ZzhZ8LOCNLGALOTKdYLSji95wQqLC1Zi4wCBI3Ydtt3tXduBuEZ2uGHKqxDBj4E9HBzg73V1iMoRz7TNdYlNt48TPxNWbEGZUfHV4QO2NOY8w/2UrZrJt/ZBWRaxzMxCMVw085Jo7pwPMTv4T8IhSrE8IUoXlqhd26GIFewqcpbEWT0cFs4Dw7jNx2dlR/r9UJ1+WNNdek8iqr3XoQuIvBQnWzcD4E0FVzTpHXN7EpuId9kEOk8rDhyar3xwd7IfaCiYgUvryzEYQbIosNZRngxl44wCpOXQ4nmX4xj0v7YiynY/V0tZzh5Bb6CcvN5VYiWyo8HOpkytVhTq2xn6BG5uhLV7VlQZvxZu43sYwQPIgtYtrMO/YlhZWbc9vxoWQXNj5xKGBbRCA3Z1al5cUbCddsrcY5wXjuRbgfrK7ap2s5LhMaLYHy7q3SAnaQPcfwy+yUti1r52MHwm2P8eYqBMw0YxXNofeRYFyViBmNrQd5TybbFrnLYAwvywWBgzCaLzPMEO4Lyt3N9YAVvV6plruN1a4t5l6vGz/KZ4Ss9vOuRCp6hel20guOaAixML6AFAlJsQNkst5wjBveMoaerG83nSoHP+oeTIf0UPeH0f6od2QWw4o44CZrdJ/+N0cHRFFca/smgySphnNOCIMKF+1Am6asNRj1ONvu2gq5fYO0FfYGNnxGFTfVgLhXZZwl6yvlagej2VBaH0xXh4NRf8NOBRO0zYJC9iiDzt6SczXOAOVgUutJbE2p5LWPex8kBpvEc1bZt0YYKBfb4XxioRekTnfugn8xaSAY9/fl/IcYBg6UjZRu4J7ux5O/xV257ckrPOUnlQGwFaOm1GI0GXK7oqkGiaUVyYdAUo6rXCmXq+atFbbT6DJ3WjHKvtmJXzzZqrWh7RzNRCCFyyu97CpMqFEDTBhajFiCarGxaS0QC6rgRMPW3LI/Oklr2WXoJZuXufNGVYF0YTx2+yoWjwjD7MhS3+QWq/C2i1VzXWleS3jJg0Cfu7pujM5JJinK1wr3JUXsm/elRYuWZVK6VOLGNWh1uS6rdGSxLCfm4IQYCMRo3wSsmBw31Ws0lJ3yk6tA3dVCrWIeyZ0yWXede9pkNuPGz7BQg7QvV1WDNprUlSdprGAwVzNp7NQp4hqLaBbK7n3jtRZRs0/SrrM50yu3+V3fkMrmUviGUqPWRL0N/sbLha08PRN5v5b5TktRhFFvayDxH71vKeWg8TrO9ylRbdCTKLUEc0SrQzHhKmfXjkrWjHaryIvXjn9FDpyKjaHXclsg7IC92cRBfow1jbzBU7nZJOzt2Sz7rzFZDaOuYk1mnPxR2wX2whi9OryEvWATc95/bXI4cH7oZNQ/Z+wR0QiM9WpiiL0M7fqQYPj0qEIMniqRuXKQDlVMp22+dMz7x70cjER4pk8m5nYRAze21WhvJ21qRJkzpxLnutgxwbfc5rB/YcA+weLEknnEcUxdmgz6Q+JsMoDcbIidnPX29ivR5On3cDMKaxyLKYTCmUEJ8aBfkGC2v42bHmdyUhCvT78cyG/9mCK1uV5pB8VGoSXrWJtXZrIuPHazi464UG2uyy2yPOgSlQbS5kca7hdY7sDuqOuoIEgVosHYofg1pflJSpzzQowFWhGiHGw9uIuuUrHDRkeq5wjs4HVkMuod6G8d4RCQG7NheC8xZ1QRlKQ2nP7U/d1eNFALyjOARd6zz14dv0V6nvIzWUvwtJkM4QQqR2pRTx/bmcpLalHPGEZNe96U2AA6+VbN2YyD7770GNp3e6NUm0zf3+SpF2SRTsXUmz39Y26H/C3jFhQkkCGxhV/W6n9bv4MtZFHd4UDbg8EwCic7M7c1hlJEN96muUGYjDv7fSbdde0Xwa0OR6OY5ifIW780xvwUmMahPWBKKptEXPYl24M20lBf1lwtm2x5brC/FXtEwD+nkckV3KEXeNwiZ4pS3+pfNNfKx/yjh7zJ8zg/hgcsJ9RgOjA2x+z4wunP2bgOa5PJeDTkGmZ0FLfwSbyZXSKBrH83XiT3AIFwh84M2xS8IS5IRmzQPxOjnSeeFLw5KTAH8LTgZ+MCccZT9FtidKY/nAtsNyj/NR0ZZB+kkBBOUh+0Ajc4SxiX/GGmRDosuA9lcLZTgv2jDFZ6JLgPZ05tzR4WJlI/pPVv6yv2sJiQ0sv3oB4h687GGNGJv6bbcbZp9wvO/Th7DYlzReo1vv5iPNfGnUwn+6NaPR9uBju/gv4VUFIhGxb69mzBBvytinyHRSdWOKNrH9Pq1S6eNa+oP6AP4tgP3LONvJErPWx652GKPxuHlxCTmIKPxXkzzX8mJxPbi3NmIX8ciZXuZFB/HtMNEk91hft6e/FYmq/05ZSLCLU82InUlz39MjzbDBpRRuqfPP29nhugDPjntfq2NGsNhEwFG6OTm+AldPSvJ4dmnRPqsAVmAN8/3zQWiAsW2acj9c+efjnxEQKJhemgeLDFZIkj/otJRCqUsBYj1l/ScygiXZ/Q+p+NQTbHubdoNYkztov7cYWqbJ0qr37b20u3kV/21L+Ya1U5OrKXXx/DtnIF0927MO3t74r1xqVYVjccQ1nCswk2ftG5rG48jrOk52YsqwKX9NmfLX21evQV0LZCOynZYBHIDY56knrMZUhL3BF8ia1I3aAeG8O2aEOymSujm9Tj5jGWbBNfIb4To2NpzhZ/i0iozibFFfXXxLAt+lbDTpTg1Vo9Kc7YsgecprQdVr1Gq39vJM+BfdgbE3fZ25uMqxLMwX+ToMW/mSvFW7k0O+hxakwpXsCCSkjKQ1bhQMbB5pel+s4sld0RRV5ZkhdmSTAwcmEP+ruy6BCvhyV2/2A6oehF2aL6gX2La98B76vvvkKh0wE1VS++QilXScYPUTP1kmxxSd7pHqqXZnHJFnZJfY9mZ8YixcxH6qctZWIHPgBFj/HYC8xb1Hs88WbINzkfI0/DSKs/jtFV5EP+Tzg/Xqoy9RLM+St2QtM71pxzjD49jzLOxzs99TeezFIHR7FqwkZxPxbVH+jZ5ALRgH5j3Giv4i4iqYgJ1H+YFHDjNlfyIZ3cD6vf8NVfaTEWwu0hX300VR1BRepVWr/INF4c9odpsz9qcG170S2oZ6lXM9RovddvtattyhjsG72B3K1WODLLFYz6VE69JPOAZcGBVpGfSdj8ojFPixay6G9I374sOdAWPIuaSTh8OcnYwm+MMDUcu1cktahvIkCYPIw5mWRs4XP66CC2jSkfcxV/KpO1BIU93Gn6dpWkFlUWsBI1bDCRsmvmEJZoVXDGIr7dU7+Z2cUbdiwM69rLkLbqGuaDo1IS3bkum7ck65HxMdz7lGV1SzZvSeoWZSyaerR6ZCZrCe61GBaEeqy6LcnYwpbNm5+bPl49Ks3Z4nAHxyP1R56YZm35/baCRQnFV2URluabB8bzidQntf5aB9uSbiqYkgtn3nkMZQl3pN21wWRvIHdp/6z1XVmEpblgW46RQnX3PMrS7cp1P0sWtZzsVwc7WMhU6oj4B3WWoCWCPkbxQylFcTKbTfauwOWHj9NcidErU6K0ZCi74z7KzppF537kOE17gltAaUryKhMWwBVmmUbYe0aN+M1K+1E5exa2jgW1X+htTcQBYXzrxtkA95MOZ3uboF/v0DLEBPlTDmnGlGDf4LBMLl48ii5L5k0OSVNWaRn2zzicbSpBv9mhpakE+bMOaZpKsG9x2NDMr0VjSrNC+Tlvl93KegOJTGbqNnXrlfBWNZqR/FxRjIwqKsy5y9jC55m8jAtjTx8uZvOWZGRQzV5ftg1I9rJ5S0KDoErMBKbHLFK1qi4Z5NkD+/PPdXVk8ra0rD6sTXY96bZjSAN/bIuw2saRSQs+YguIWODanVV/YrPWGyH/UZtvsrOx5YfD50uts+pv59Cm/Qoxlogufc4WZTtui8rq37ui3eGo76quTSfym6W/syWuW2YKwf6HOaxVAtCft2jDxvDnEn4H4XzB4uO9myqqqr6PIxTIFp7pNBrcL1N/iUn/fos2v0etq9+xOddnN1O09F5vbzhm0DixOfW7sl/HmffN1TC9QEc4cMxUU/0Zl9PhGN1e6+2xlnpTWWAf91Agd5Uqh2DjsH+vLEh7qxlKfD8peHlaUKSdC6mdw/R9n05ZGbfgU1r9WAbXphZXtK/JoMrpbe2Pa+J3jM9Q3adem6Fq4hYMpoeD0Fxl0Olf4UBBkM64IYa+pd6RQcnPalfUr6Z9JXYmV7Of1eqdmsUS32y2KVJt9euZptpEvyYHMsu/kaWs9cjwv7FJv6nJxCWZEbxbgjTchZg8uyxTO+rJfd1DmQZC8y41RMlmBfOWVYzMH6VdraSsI/Xzvv5MWmSmAgmZAJ56h6/+h7bXG8arfqmnP+jyEiHE7bF3IC/z9F/EspEjPzzUD3jqH1JcwDEczH9NMVVGak7ruExcSSZ4U5utl334v6VY6lvcP6W4ElrHZJmusq96+n+lZeJ7JZcEr/LU/84UMUz1Gk/9N6+XxHUjbLj+L94e6oF/KJ5ghN+mX+BzQj/29aGT6r9og+2gL85YLKv/zryYE8gVnm+9XRMgetjiDRYnPVAv99RHvDGL4NijsrdpblS3wXNluH2xyiZ3gCOpXumr7/JGOK8o7uFw8KChfZ/PWE3nnE+Kq6sZq/OmSwhMhpbsRj/OFWt/MGmiQlssNfUbRLhkde/tG3bv9dW/i+vSTERMT5bcp3PqH7wHTZxX3rRxPkeIAyyG+sEMumQ/ZrHIxFhk2UogPNiaTQfxty7e46kfduWl3jYHoAIMI2aJjnClY0sq4/2DWXK7+DJf/YQrkG2euzQW4uscZn1yiBUzavWQp/4t1mjT4ENs/0WRO6P+aUQkCwQxuG5w6W3JTHVI/s6xqw1mvb6I4uW+erHDBYciQ/VSX7/EYZp4FuwuR7XB+MAa/B/y9fd4Zp5bkwdjqxypj3mEBAwae3awN54r+RVbQgWrVZH6hMdhyCAt+absVAb9q0QJ3RrGZMlLKuZ2Z2gu/GUi/utl5U1W1XB7uM8JLyb6Ry+SknB/gL2e1ieiLSvqu33z8ApT/AGt/qclaQvGVPugVv8rgyPAxNarXuz3hxKL2KMVhFPpY8b/I3F8OaS1JpMZ2c+7bDxkWvoC17CmVtWUyBW5WWF/76kvxkWOodm6/sFT/znG2yrN3kGEufxHjzqEs1kX5aFotEzhl60IOGoH44O9VdY9eqVe5av/aU0rBTKiuODVvvpOwlTsaajsCQNYZ+TZPfPVjzHLFa6n05wtLsrCsXtUMJapEut95jKkJS4NTDSWuTLrsGGfWlx9OdaSBxG2sILZmprHqZiZm+Yxlqy6N2Q81SEJJDeTuJwtrs3EdKELF7HrEDwim7ckjS0W0tx3cp6oHn8cZ0nvY4GgSFm/EH/xCZdjLfl5Dv59oujmwzK0p56innwMZQmfa4UQEnAAF7F36K+bR1k6LA2RKTMJkTgkz1RPmcdYsq2RURCJHBNr1PrrM3lLsW2fHYsOEBRXt6dZW97fQc1Q8OgioR8zh0xVdBnSEmPRTNuTVeZAK/aQJGsJDu1Yikjd6kVcH+oHJaTI2vuS1i/TSM7opmgBZa/QkXFI0h/p369+ku1ADjnhHktrF9Ewqa93dIQ5ImIMW+pN2rbYFuFE4caaADD8BUfIRDFP2+biBZmqb2Gb2k5x9B4mv8SFH7eQxt2cDsbx4lrhXsdySYzyCz31Lt1zLzZe5KnfiTc8G6IVdNXMwIbb7vLqvXpMXaJkZM26/6JWv2sCsKNjz9Q+p9X74gLxO8SoxQT08vfislS6FZEiIxGCv9Pq/ZdTFNLHYF/Q6vcNAcphbjcfUH9qZNHDRZlygSNydPdPcpQqjHFHZQJkc/2k9bxL8KRJ5CbzcVb9ZcpAroCEw8Mw+JS+ODgifHbhApJ9l68+rQ8nOJKB7DLN3SnxVeT9N1p6Kvsi8Zjd4mBnMsXhJDonA3xA/0d3VVDFH4jYqPR/0jOmW6JtInn1Wl/9ZyaEju42uEhgndJRXJAJdpHQIzAd+W7ciWiWngBeStxqa9A3DN7jq1d4BBJ3awMMsEG9KodDh1IwzzLLdM9p0ns99SNeNNzbH3FQi5+ENnvjwUiG+1qvt81ITMhrvV2ryvJ4R0691ZNgWwuLo96ZU7+QIaq6a/23eYdCAsY0/+YcsaQYU8LqHOwxMvGi99X7PfVLSZkcTotHIXs5JR/y8HHiEsFRGKm35PQ7s1j2vvdp9WsJqjUgNoAuG2V8TY5LiLhEumKujfCjc+rXE3ybWR7XMRV0/FMJNtye7EP5tpz+a7Yadt4jVOQSbp/6nGdu8kNzK88JSL3I30KrmIiNuC7d6ku3/od3rAT0Z3NccnBfw4q0ViK4xFbSl1JE/p3+FEMRk59DwVfUC32xwpOdnZA5O4hENh/Jqf/gsYVSL15cgv6Up37PoWNvSNCf9RDz3pC9WAgtF/WunPp9+pG51aX5D3joDFs4nuNbPfUHjJyjHC7TjtxDPZRTf+pZzUR/jBIznoc0DtG2WJ2WDS+n5u+9OfyfqcVat2BF/YXXn2wT6SagneX9npz6S3hzL4PYs08amHFPf8a6MQXYHlpnpjrcssL5rFHGwmw2HW4REorUB3Pqb80ozAyaoXw0p/4TvvEe/lTyCYlv51YrRrlPRnyH+u8IBAXiaiqiIaZREfm3PxBN/G7P77F/7ZOlUO/RUq86ke+XKI/jgpGiXxOs9BYhqGV5Iar4r1nohPLkQLcba/JOQfDdGOnV7Aeo/E7dQTlHJtlugs2bzyCvNlqb9v3EgskXC6VzDrFoEOap2RJOKC6vcZStn+0tIG3CKkN8F8J+WkfGyKWI7A83cedWE2orjBy4MFPFYvPDqGGr2fyCbbfsdpW5Q4SH1DEWHIjlkQGW19hiQC/z1k6UNv0Fwvs8recLA0qOYHXRqED68i9eN2Wn+CmPD8DjWGlAEUx8OcfZq376c5ihEbuV2ANL8UFP+RtzGPXoWiWUhyfIWx1/6qXlg7RrLflKc/riykuRlXrZvp3y40dj8cutnH13ldbKW4R7pxW/6ZYPIGew9nnU4jwyfhq1NI9O3lAtb1TCSrEqymUfpJULbXl7sxK/YDuZvCc7lXyEV5oynegeH/PpeRrT+mVEZ1Ii248r87rqMrIrs7u62GiVQUiDiQivcUhXM8Ff6/CmxQR7ncPaBhL09eaza/V2Vz7FE7TalUDau8GKstToyEPNzCzdWKukTwZvkneBceZmKUkEeYsUJblHmEd8yQO/W002fhb4SJMz3WhXGnVp/rb0Bd6jYm2U3THZOlO9/3BG77MkAeUof6LeYFmQbFnJChBqUA8orwRktz8qZnh/FN5zZQEFwpR1OsPr2VNvzwk/tzjbwpUTM3af83F220pZfhyWD0sXQCTsh316lb5wvYy1+EiQZ9h+8jK2jiaAIGUZgcTweQWzgzZdA5BlWH0aVpeVBxSmbPZdgfTMklYINBiHRJ6dmedoqli13wR3zLLbddrY55LGMuUBhWljgiQEErcU02Hpxz3j0tgXmJ+BguMoVrnOjJl59WfENjmgskF+3lO5Q2IKJvMFT+X3DiK2Rcl90VMLlnU7Iff0TODqYHyBaDxW0xJsxBw83OIZjh6mPS2tJSzZAiY4BGXpXESnZm241SJIvXI2YpAEGURq9rFe234NTTu6bMRBx6/55+TvCC1DF4IQdjBR581aRoUzb1Fagx3l5cfIyJp3ut8f7NBX1sHzJ3tbw8Fqz/7kvG7F629nq9eTil9CpNmn5PnSlelULjW/Kmt+tfxkpVUps0N0Q/MV+i7doPOV+nrQqmAvKtWqtRK2wJ9rIX1UwxYXD8Etxn9BGVjmGybDJjdfsywiWLaiHNtBEp5Bor2RrUF1n608Gx7K7ZuZcNUrUjc/k6l7ga8WsmJY3J/K4yyOIYZXhHOrlrJ9WZ7ri0V7vsQ3LIyFkuOSzbxa299w2BwqPVe5LR2Qnz2ZDy0Z4ZLo+EdHCBIzXi8FXfklEIj52s1jHUVrWZTiypvsitZDd16SX9Q57It87VUy6Hkm8JhJn17sKzlIIrevQNwWSuVlX1gr+osvKN/qlv5q62YFcvrEQbBfxnSf2FTmF1mkWobdDcoojH2c7xXabF7rQRndgUQ+KRp27Z+gkGI8kQ5bm7TUyeLdY+H58K7y3XdRWZideqnQDgDtu1v3atez1VKzNPeTDQtvcLhGjQzKRWnrVu/8TZOT6SBmlcRsrWgWCyXZEGlEhYH4VG0zren8ltmynTh8g+yGQRWHwpQ67xooT1dFUs5rzTbGjR1HmclUDuLouYd3bAC6PkMj8UgB3RCz9aSTrKF9h3KjydYZQmGG8Qpf+cNtwzNnuUfqB3ydj0zTg37D4ChlGbXt8xjWwCKX/jsglzBGbGlctE722NiYEi0riH1+7gJCXdU+3wzCUqtivmWmSk2ZNO0+8eWVQjGE/tnCRiGhycmBnzR/NjQyXjAe672CWmyeb68b5NKaGNLl0KBPhJsV45SunGvIo22gk61OKJhTxYL5WN1pjjzy0VuzEM9UxPMnfBZkYr6YPfsaOy4sozVxIfsOibGbBYJS8jHeh30WymTtOyRysoZPVq3XxnpUCZ4IY+XlRoBoHty2DjiR23uj1/nMELsKfo1IP34vKG/nB/UDIi1TcrliWkHljPdoVorq1NOMTlx8Np1u1X5Tzrd9GNtThndiBGjYvBHDEMlBDQuaVyeu0AW2Tgk7JGdsDq4M8E2+Wu7Po96MXs2jRKIYirf4KtefPDhmW8R1SxrLo4MRshiMt49S7IKIBzFPZw0brMyrRXnePY1M/xs7VcrRuaWyPevND0zPd0D6pKXUjFXljTIgDuXEFYtHJwKMMZ7xlu7tNIyB8deDAsVAufBK0lDxF6lV1Xx6TrfMFxzxBebJPFusbDE+RbbYSQsLXbMfkoZEBfclcPo7X6GM45defih7n2a2qPxW1MgWROqXfT3/07KIicUFlU8R7UHsjCACziecA8PFWxymLbRBc0XN3pOg5u6iUdukIHMV7bPdtNO4Jc7eZWHLPOFkNEAqiD+Gu0S9hT2JZKwTGQdFfjHp24Y7JrSNU8lcM/D3sDmXJmNiLzDpjQqmF7Jz9hyEEDjxOwLZ7dOfZBcMifJuSbshThJLE3GmuDakagNfNsFkR8mVMDu0oblP5VIa6b0dUGaUoblYPHbzLj+tlatnyg2blvwwNcbYdwRLEk4ZXTG6vXx5lPxE2iD7O9fQxJW2pwT/aGzF9neV618pV8v6JOtn2rMEbsVtqVMzI+NY4kYkp+dxG2Le1Gtz6oyZMCfMd3vqKti55lu0PrOxrLjH3GdhIsed6agyrg8e5IgE6pp51uptvrp2HmVWN7N3nWksvDjcb09ExMj3+gRVPCrsmRPAsroBEdo5j6imb0yyqY683dc3HeuqlUKmrzcfI6jEqn44SDw3CVvfkihVSL/lPqppnhYQ6nEbMYHkzDP99NePeBxulZS5qN8eYKTOBefjnyph2M/V8Sc499cJ11Srxgbp+4qN+7q4aMBeM7ybxGcnbJfWJWZALncuXXsmZCX7c6TyGrU2WNfWO7EW63TaPnP1vAPzIy3zoJ0J92qMjj5ai0dT2b870Wie75Y7YptiF8wSi+2QynrP5gf9DhpY6cPXS1DFowTp7xCLPWc801xkG3q3z2kwJrWEFWR5RkyDw8YMLH4xYH+0NxHeKTeGaLrdMZA3G85QKVqaxR92swW5B+W+HF3J79r4LLZnIIzaSITyxYS+Im9z13uR/BZ6aYf1hjZlceJ1HaLlcvV1gkvLC0PUTPYl8isIPjPxJ00LG9byGgGcQmPcgwrPPzCjAivHWbQodIFLQXEYgDAdOyi/yryxxpMXHt7SgRmbjgctHkncNc5k2a7krji+/BXGtzBPuenkdlxAsRSXNuiOXGnh62z3xoe9SG6NBu7pJFvGPreGI9dtFo9n8uWBLDQTBbaV1qwW5mryt0/Y5rZtNPfJSttyw7Q62e6Z8WwpL4MO2fRYpfZzXv3jHC2ndfPMpYVBpPoip2UC8hc500PDEXzfrF+4hsdsgnmEAxd3xZmYTK/NxLO08J8PWVASqzefQQFy7erdyYxA/8xlvYgDmINjG5BUtrOZn9ico/pKDJhna4AqsYmajF1ZzlUrYrD3OU/OKn35qUo+aTNM7WzBVLStmx924giv4hSii+3J/t4E12ybyLpoJP3B1mVsNDgUbh5nOKF6U3dHFuMl1IdvTCgC5ZyE4piUuHK6YCt4eculDhVcaWkYNZEDvRB9STKhqBQYnxmVYIDsCAR1dK5nhiGPaM1GHMnKYVbxc7DiCKgfSotYvC08ETeisrTjBB6pj3CsbifGP3HUsILpRYhqBQRMzF2KRjrGYZaebRGrsaPBGk7Y8E1jH8cVHQ8eTDLeZdNSlmnxgeIJBMP0DaN1S1kZ1wcPHhsC89hPOvcJCX3Ex/uZyFnug4XrYiVFx6JGzJHkTCv6eLNx98I5PvQuivlk0DnzA1T1WSy32L2SWWDYs2h+HbqV6/TS/DpCptjlzRkljGsguiiGqc289vHkvmJ9yYdxnZYZ4hZmDqxQNaYlbrN7xJWIBO64OigawygNRiPitBXBLCQYTrcGszg/p00zVOXLV7UJkJszlyoQy7cgwYBardK2GW++KvuceSGCZPYNFwQmjysvMKfymJ29KlZWzGAok0P0VX6jx2qMTMdiietRL5rFSme5q0+iVJejQ9hw+fo5TmdZ9jnUHvuV8Pe35vUwXgoVToTyvUMvMvSJvfPjodmf4jJdlzctPbpCR8OkR46p60SkPs+RZa6TxgwT903NPDd/MbdVkaVlyTpYoFIir0j9na8XKSMOZD+5QSAMRcDkIHB2HjaVts17G3IyScNFclwQ73vQLxHqQAOosj7Aq9sa9GZMKes/kHiYCW2pIrcySU532JlpVDrk3RbRMn1GnItofsyUnnrOKSSQK/GT57LEZQO1vn5edkWze76f1bxHPwfqA75KF4N6QC9NtmjokHFi7Jb7A3bsQd3yPIEtwDyYzYybaV+vWBHHG1ikPuTLZ0md6W/YSebWxtenaGpKb1fUaTNnMc26NQSshDNz+OYVthyqPyAnAEcSsy+LZDGpV++TS5UmUl/w9TXbmVn6Ip7/4dx8/L2vrmPZb06JXyG76+Ujw6v43yGzjRJpdUPGJMWmLVKf8vWNMybYmaJP++omyYaJFD/jq5uTSSmYrSNkom7ZmWwfRI1xG2JXV6tH7Cbz/w++ujUZXphudAXDtSw9/qivH3k4vMK29jFf35bIihHIA4NgNBCv1lKxypM50L3xZHwk89+JUcb1AMLUYTA4fUSWL9toyKQTl+rt7957MJgepeHSeae93ib+wb0hV7Lmz3vpY/UwAxFbr7ieddqiJQ4u+1gc1v9WzPNLWBIptX2Okpny9NYIxTTBMmcmUHwrRNwsxozYObUbXbduqkjdXfAssavbyxJszwx8a7BnjbW9p0HVcKrBm6w/AxKpLKocDRXl/JDHkZM7nkViSOhpi4WAlPsh2DbUDGxv31RejEB15HN5+PO19JII05J2gQqikRDRuFQAYsl+Zc7s1eFsso+XDovE25jWJ3scCez4vTmzMIxKorpE9aQGsQlXw3ZonnaccnkRcQyWOKTF6aTX36ZTXL/NUW/Py/1fMLYz+jpVL8iJt+jaUS/OYWTjhdzMou2NnHphTi3UYIwslPdYoRK9yTblsZ4NYN41OK1Q7/K0UeY4/49EmIfCWzp0ReX/J1892miQerHWCwIVexHGxe4/t8nlUm/kzNxib3ubLqicWookdBjiLNqS5Tjflq4+W52I8yV2fxoz6OeoFfOiim7n1UkDOo0l9mGyq8mx9LRtuNk7GiFqEGeiuUUjt6b/7OurMoNPlsSXfXX1Dpw27IGPYVxjuFdQNFYZ+8tR42AWiSjG2yNMNKEZ2dTQhWsNoTxaZgt6QF2HphBOwgCO2AtHnXFfzMv2RfWynL7BoFqDDOrGrVgvIvXSnL5pOti2ti4cfNvBAI1zMeVFdbNppzhFDXfxpzmAr9JhO/RbTFlA5IRwuMjtbZ56xL4cAo7G2wXmERME2a3JJwC4AhyY44l8Z/eROKazI3lGWLF3eVW6xAgetT0a7m/Jj38Sa9waXODfSH0mpx9D75CksyCRnf6X59Rjgyvg7RnFSf2Y4Tlektwde6JaFpdQZ1TX4iL1ipzOyTc1C/JKO9M0R8ALjJA5iT8oBcvycGentHsgUZSVlBUmQWvr6S0kXxWrU8zqYPc3zmxFOOUs7FQ4b3MVBsl6QfcQ2sK2cI8K5refqEl7F4UQFE0sbhHUE41CvdeHrLDp9u4RTeil/ctxy1ciXmNAMmUn9q+MX5HxxSuAe36GEI8Qltbuy6pljE4OXCnltC/ZorQnZLktgZqmhfo8h/z+lbALrfhJqVE+5bm/x1bukpj9S8V/w1gnpGVZdx6xJuB1G7/Q07jQ8HllDp+vZ7dtoTZIdUIubYNCHWZqtdooyI6pw7b8ZTQgr1CtmD8Yb6/1AOTDeq0gdH/tOV8zl5IL2WvzRfOMxlyXk1uSO6j4pn05br81sOfitB9LX7kfSfO2wXy2wYW5BhezDS7FDRbG9saKO6CHueFeUd4O8+xynEO4nOhFEmnPGX/V4p+r8oNL+1NsMAvXol7PTrHn7qXVG3Nss+7BpsU8xJ3NDjY4FHtsUW/i8l0altFbDNfr8nVIxzcJU6tr5QlZcvfq/hqvzWpmQf7Qon2wZC++zH2w+9Pg5YooCVAuuLdTqMok5usN7qYlR2aB22j5W+NG5ItJpsvlbUyytNYK0LuWKSC/nM1nCU/Yv2y1YqboJK2QnLKTV1mV3pymVt3+OdYz9Nd886xbbTTOmev1q+qB+3ro1RV60eq014XymlQiaPYgySTieV1OyXt+hy5MLxzItmoi34mm1+KZMQFhZtleUEKTrgZocNAMPlJvyKXvuFbjeaM2ITYcYI4e1NS9aFV0ReCEi8wmjqRhIxcEug/CKPeroaKT8xr/GvyRuGrIvT02gNpDMYt6bA0i/tfc24+EXphsSDtc+WiGbDbjt2Y6nhIElOLfyvdXZNuH+WGGZm4A5hkvcyV/di4k0h2IzpjHHCYOby9XOefPvwj0zLu79Imdv2ZWaE64yMMZocmbD1qaLLmFcF3+hrXL2fXqMksoTcN8JXDZQt3YFpyw3/JL8isuHxuGk+lLvVMlxspWPetdanJxtCPv45S/Gch3ZBWa2mogCEYybEjfPHvv3xttsMPg5jtFwCPScjEvL/FVNb7mLLTalZIxM1r+RrZdiV69sEHiF9wneXPr8qd68ut38u/C+l38u7h+N/8urcuf51lev4d/T6zL6VkEtZLcsZ5cbXDtKtAplj3LOwQ8LTRn1gV7FYaX5Oq5K9przJObazvy73W1oN4hvb4qf6/shrLgbiy3+femsoz45tXKWsfwuAWoVGi6ATyixvGI9FZsBskjxXLeFtT491EyC8YCPzqsMaMAj5FePRZRC5/H3cs/jy+vSu0nFIpF6eYT3WOHr2pJy1/dkgF8jbPHT5I/gkv6tSUMAOmTMQYkXxcWzJ/Se8q5ovTz67F0JLeHRkB3yGDuFMRdMri73Z9le2rR/FW2e4plmZmnhU1jop5uuvCMTZM8s1kpte2AvyFsdFrmg3bPqtRkPN9IPENG+OxqoWj+PPo3VepN80d4n1PstNtGLgX7igWoKP13V+SsjHY8eWVgK8NA1LiAfQRebXTaltcaF1MYTTOT6zVopFvy19CrZfsF7LPVYM2+FjonZrwlP/VQz43VrW4vu+4uNO2Nk23qtmKhzhIEKhF0a1YDpp2mReZlt1Ar9VVhELhBrroJXkNT5UPNls86AR0LVcKg0DJ/xPBs9oHPqVTdH8U669Tqia4+jvM1R2rH6fHlirwfbpg+PLGcfr75q2JBPVlqsh0Afp2dgKc4cd4uKdok/bwDN0d6cSdbiLT6VDQ++1Xwp7UamyRPJ4kZPwNYeJtePbMtj6wAnt3Gmyga3Sok06lL60HpHHeIwJ58FbgUGI32q/ZZUo5Od1xP8jGcqbMQ48T2iXgXk9lfiufZtrkcU5wISy2uLy12xXyAUaDTYbNST/p1hl6TXE2CEhtlvEa0ybZ6bbsVBNIq8HXMd7Fh8dfLCEhvEPlZ1I3SQdKbJLVt3mx6EgvrFpoQcsBHCFvSWyV1rB4pUsOBACwWuHMVunPVhsxWtVZo3dsxNWr2xRoQelYz42kY6nKlYImbCXSvVSzbvZP2shboqjkT9ujUEj3GTcljy6w8h3tCUGuuY1ulxa9eDUyA+WuwX3ZhP4nlE7TMHwz92ko9pBu21tfHq+0u0WfzpIrMPWFsz74BG8Pk2CdYz8LScKMRZ7+RmiLub5LxkT4n9rtbomlocfcOMmGcuZNMO87cRaYTZ+4msxFnnkrGqKpk7iFzn2RMH88nlv9+2UPs1H1zusN8i6xft7TJfqtMY9B1snqADXjNGJNu7dgvjzzdj/ol+b2q+byf+bKmOQBaj2eAbyCew7vxHLJFAXh8huTTmzuCl+OeRIFqE043Q6JAx0/Ufknc5Kb7mZHy3JfbVfrldjK6TJxRvLR5Yh8zWCiJ9bjCB9/JeaUr/uyJgJy1kMr8xKCd/klsbQDBSAkIr4B5TX68lB4H8nPHgYhy9/AUf+vYgWA4dnCe4JshLEynPcdoRefnWhDvyvh58vH/5GSD+jH7ADr2Y7yKmVLflsTPsHKX8cKFmwm79+NYHpoW34frNkdmfq+WzuqHmNXLygMKmVqvFyMZpuP3Afit9wiwZH7+FpPHmrCbLZePj11WI9OBD9OBgCCK8SttZE8P4jwVJFL/sSyNwUEUmfTj2SL6YIb/CYY/cr999JLSthSphUp9g01a7ANea8iRMGgbs6c72AVSr1ntrJmN0A/Ph9ak5rDa7W6hKb5EPrR61cRZH+D49xCPTBC1OX1DoISReeJrsjqY+4QZ08E+HVDAxm028PhLt5ahFUGOgNFop9JXZ5SeDfb28VAl1HWGOKXL1a33LyFpOvBJIpWlh4kcwc1GEGRuxqxgCVp4rMpMTK1hgzVbyjdRrYpEIiQq9fAhuFx8IKj0Gxx7LSxXGvJLYLqa/paFDOdj9MdmMzTv1cr7P2UIAACFlgtwlcUVx8/u3XtvEgJBeShQ4CISwqMICBIk3y7yEHlJaCilIwgBkhQMQd5CNRDyABzCw9GJbXmkCgQ6DEWkLY+ElygCU0SaFgZqpSCkkFBUHgYzaM9/b7I3pZ2WGXJ+9/ufc3a/3bNnPyEk+Sh2z2eHtzRoNHLy9MxRY4b0zRiSOWjEuJTnpvfptSjxZWpCTUk0o1bUmpQSRJKU8A+aOWXejLSsuRQQUYuJKJpiYfifNY2pTBIJsumpHSnpT07NSAv1+F/+TYBxYgECpQ18DIFDs+amzc5KzQyNyspcGBqYmjU/dQ4F6P+nWSV4Asl9kUnwFBr6q9avrizZGrqxdFPVL3de37MzVLntzar1e0I3fvFm5bbd1CyXqH9ItBMJ+URrZCc7MP0oLWNeZupsos7iwfiYf49XBUSvcmh3vxR5tHxW3spuMTKfXinwLZV0SOWeGZwb5CG6+ykQJPYI7WePE+xxMcmXx8/reQQDsRRowMtQl8dHioX+HJqtY86SEBw2XtZXRK0iWbk9vL4iA68RhUj4WJk7ub7iq41RrMRur6+oWsXPyqY79RV/rRLguYXfoE4J1ipBjknoWF+JqlUwt0Mv11eia+cWxUr/ZfWVmNqYaFbOna6vNAgr0UI8sENy8dxPe/ualudeOlbt65qeeHpI8+yaymJfXGCoIn9xgGIlLykXDWeiIEURPfCzoWi0mCs8LpZyaVJ8Xvh/Sh6tuYpNwlb+h9CEU3IaLkCxRIgcQUsF5QrKE5QvqEDQMkHLBa0QtJnHOiHopFB/FHSKPSQVSREQPDAKNpoa1JVPuKQ5aqqt6tfpUHzDcGm3xO/W1IbaUrzgfPwLT3z4w4dSUMf/+rSL4HrhH7zU/K45/FfhD5cMRicqEvQDaiRa4GEr6kBd6Yc2j8/mCYpoiiHqRvmcIxBzkk/T07uf87b86qiW3XZNMA7+NPIdLSE5gETi9v1ynbgiR8uHxt2LwIBJaVoBOgRyvPdmb9UfhrqXlc1topMLi8rkgElXPP5Rqr4+U6jXHJmXhCS86x4sQiUAyUh8sfmCJZ4eGQdwUgBEVae0N8gybe1Ig7Scf7DBQKqFam4wMpJgJrAIlQAkI1GTfV0jUPm6dDSAL0ueNW/cSLL2t0PaGQUYMMlv4PCXV65pRMCqvz1eYKHT+DjO6jewNgKAFHBASkTAhkeL3p5k1LqjxRYy0tP121k9rbWxgKTP4wwcTv7ab2NhVfsLLQwg9Up3AwdYGwFACjggJSJg6QNJomr0Hu9uQpKR645e1A4y0rdoCckBJBLfl+/RWz/qYmRD2SUCCT0+1hKSA0gkXpjaz/R6MsXI99ePisAXm1tpCckBJBLvDG6OFTLy8IlnIvDC1BotITmARGLivmhT3HKUkX+41ToCS6YnaQnJASQS91Km6AZn2yfJ33081jiYtnZGmYTkAFLY+/31M7W8m7AuAlzOpdbJASQSdIkvmoz0qxqvIpvtCPJU+xkFuB7/lX79mYtcEdO5AK54F0cVenJEnxXeiD7RWr1UulvvH7qSF/uqfvb3t6xd3ryvkQDkIDFt7Q0PJGdU1NhHFmZ5nY2E5AASCQw1LFYaCbiXclnLnzfd4b2ddUbLOT9b650/9Y22EnxIvGZ682ngTfk2e1gEFhzYWCYhOYBEe7lUcKa77Vqv5fH5LxoHfLDCx90BJBKXFpXrjj2Ww+m7CNiskBxAIvGPmmv8WsOMGjCpgwH8+PJg03XZU9YmFz5iFADrCYeJ+45rRMCqiftWWHh+cmMNB1gbAUAKOCAlImDDo2GlVXXKuxZwqHpGdbXWxgJmPuwzcOgZVWVHg1VVox81AO4aBg6wNgKAFHBASkTA0m4uj7p1tEvswK4BJAeQSFw9fUkf3Pg0CiFgADydAFfyTX6301wqc2wvxKmUj19Y6K07GtKq+2ebdOqVNRqxvZ68Za2O6WMkADlIpF457YFktrljH1kY0aeTkZAcQKIKnvWGmyXe9+WJRh7ceF472HCzo5aQHEAi0W7nLmhG8iGKQNv8l7SE5AASCbQ/vC1X5ugI2IWA5AASib1tPuQJVGt5/tQjxkEw589aQnIAiURxyzizquh5I9H4HcguwTIJyQEkquDKvn2/l21CdlccfHAnARdNrwhAIqFjfmIbhZ2xA9tDIDmAFPZeVZSlZTDnrQjcvj+m1Do5gMTfO9vX6eqUgUYdPvF3C99mxxh0U9hZXoxRgILKTzUccNUiAlYVt3zCQqfxqz04wNoIAFLAASkRARseDbeDSus30cLBjS35HmxnrY0FrMys0HBotuOYHQ2WT91xCzgLcIC1EQCkgANSIgKW1ioS3Ib0b756Q3Mb2x8B7ui2Q0UAEo5pJ7v/Mq2fiYAtDUgOIOEmSzTlIy9pOfPhKRE4Pv8ALrDECEDCYUj2muQe8uSCA229hdfiNX9rjNSAKY3Paez4jIpW/HUzCF83rc3eNn6tRhee1RNWH/FaqLEasXU5SLR6YoKXXMinDaffQUZ6vJGQHEDCZbFFf1f+qFGLrl21gItqw82gtXcT/orVxYMSDYcvSwr4athirdr20XALvOR8/kqstREApIADUiICNjzae7OjjOJeYWHpWwP55Wo0rI0FLJlequGwMrPEjgarkj7/xELb/ErrAGsjAEgBB6REBGx4h3FM7MY6QGO0G+sAkv0AOTb8G513iO8xvrKNg4fGtTASkgNIYe/Hdn6tbW9w0Hn8J9o6OYBE4qkX93n/fNUY2SEgjIMxlzdrCckBJBLYeP/YbkZyK4+A/aaB5AASiTVHett+wF9AwyOAwpGQHEAisbz5T20/kOfeTQ73DIBtFZAcQAp74wbixlAUgZ5R20utkwNIRP8C(/figma)--&gt;&quot;&gt;&lt;/span&gt;&lt;span style=&quot;&quot;&gt;읏맨 키우기&lt;br&gt;메인 화면&lt;/span&gt;" style="rounded=1;whiteSpace=wrap;html=1;fontSize=12;glass=0;strokeWidth=1;shadow=0;fillColor=#FF8000;strokeColor=#d79b00;fontStyle=1" parent="WIyWlLk6GJQsqaUBKTNV-1" vertex="1">
          <mxGeometry x="1870" y="82.5" width="120" height="40" as="geometry" />
        </mxCell>
        <mxCell id="GBO3RVmkL8M1SUxiBIiZ-101" value="&lt;span style=&quot;font-size: 12px;&quot;&gt;URL 복사&lt;/span&gt;" style="rounded=0;whiteSpace=wrap;html=1;fontSize=16;fillColor=#d5e8d4;strokeColor=#82b366;fontStyle=1" parent="WIyWlLk6GJQsqaUBKTNV-1" vertex="1">
          <mxGeometry x="2020" y="12.5" width="120" height="40" as="geometry" />
        </mxCell>
        <mxCell id="GBO3RVmkL8M1SUxiBIiZ-105" value="&lt;span style=&quot;font-size: 12px;&quot;&gt;룰렛&lt;/span&gt;" style="rounded=0;whiteSpace=wrap;html=1;fontSize=16;fillColor=#d5e8d4;strokeColor=#82b366;fontStyle=1" parent="WIyWlLk6GJQsqaUBKTNV-1" vertex="1">
          <mxGeometry x="2020" y="122.5" width="120" height="40" as="geometry" />
        </mxCell>
        <mxCell id="GBO3RVmkL8M1SUxiBIiZ-110" value="읏맨 키우기&lt;br&gt;메인 화면" style="rounded=1;whiteSpace=wrap;html=1;fontSize=12;glass=0;strokeWidth=1;shadow=0;fillColor=#FF8000;strokeColor=#d79b00;fontStyle=1" parent="WIyWlLk6GJQsqaUBKTNV-1" vertex="1">
          <mxGeometry x="2340" y="915" width="120" height="40" as="geometry" />
        </mxCell>
        <mxCell id="GBO3RVmkL8M1SUxiBIiZ-113" value="&lt;font style=&quot;font-size: 10px;&quot;&gt;Y&lt;/font&gt;" style="text;strokeColor=none;fillColor=none;html=1;align=center;verticalAlign=middle;whiteSpace=wrap;rounded=0;fontSize=16;fontStyle=1" parent="WIyWlLk6GJQsqaUBKTNV-1" vertex="1">
          <mxGeometry x="2240" y="895" width="60" height="30" as="geometry" />
        </mxCell>
        <mxCell id="GBO3RVmkL8M1SUxiBIiZ-114" value="&lt;font style=&quot;font-size: 10px;&quot;&gt;N&lt;/font&gt;" style="text;strokeColor=none;fillColor=none;html=1;align=center;verticalAlign=middle;whiteSpace=wrap;rounded=0;fontSize=16;fontColor=#FF0000;fontStyle=1" parent="WIyWlLk6GJQsqaUBKTNV-1" vertex="1">
          <mxGeometry x="2020" y="945" width="60" height="30" as="geometry" />
        </mxCell>
        <mxCell id="qNMKc5YfHU3eDxenYZe_-15" style="edgeStyle=orthogonalEdgeStyle;rounded=0;orthogonalLoop=1;jettySize=auto;html=1;exitX=0.5;exitY=0;exitDx=0;exitDy=0;entryX=0;entryY=0.5;entryDx=0;entryDy=0;endSize=8;startSize=8;jumpSize=8;" parent="WIyWlLk6GJQsqaUBKTNV-1" source="GBO3RVmkL8M1SUxiBIiZ-117" target="GBO3RVmkL8M1SUxiBIiZ-119" edge="1">
          <mxGeometry relative="1" as="geometry" />
        </mxCell>
        <mxCell id="GBO3RVmkL8M1SUxiBIiZ-117" value="&lt;span style=&quot;font-size: 12px;&quot;&gt;룰렛 돌리기&lt;/span&gt;" style="rounded=0;whiteSpace=wrap;html=1;fontSize=16;fillColor=#d5e8d4;strokeColor=#82b366;fontStyle=1" parent="WIyWlLk6GJQsqaUBKTNV-1" vertex="1">
          <mxGeometry x="2240" y="62.5" width="120" height="40" as="geometry" />
        </mxCell>
        <mxCell id="GBO3RVmkL8M1SUxiBIiZ-119" value="&lt;span style=&quot;font-size: 12px;&quot;&gt;경품 추첨&lt;/span&gt;" style="rounded=0;whiteSpace=wrap;html=1;fontSize=16;fillColor=#d5e8d4;strokeColor=#82b366;fontStyle=1" parent="WIyWlLk6GJQsqaUBKTNV-1" vertex="1">
          <mxGeometry x="2330" y="12.5" width="120" height="40" as="geometry" />
        </mxCell>
        <mxCell id="GBO3RVmkL8M1SUxiBIiZ-128" value="" style="edgeStyle=none;curved=1;rounded=0;orthogonalLoop=1;jettySize=auto;html=1;fontSize=12;startSize=8;endSize=8;entryX=0.21;entryY=0.35;entryDx=0;entryDy=0;entryPerimeter=0;" parent="WIyWlLk6GJQsqaUBKTNV-1" source="GBO3RVmkL8M1SUxiBIiZ-122" target="GBO3RVmkL8M1SUxiBIiZ-131" edge="1">
          <mxGeometry relative="1" as="geometry">
            <mxPoint x="2160" y="192.5" as="targetPoint" />
          </mxGeometry>
        </mxCell>
        <mxCell id="GBO3RVmkL8M1SUxiBIiZ-122" value="&lt;span style=&quot;font-size: 12px;&quot;&gt;미션&lt;/span&gt;" style="rounded=0;whiteSpace=wrap;html=1;fontSize=16;fillColor=#d5e8d4;strokeColor=#82b366;fontStyle=1" parent="WIyWlLk6GJQsqaUBKTNV-1" vertex="1">
          <mxGeometry x="2020" y="177.5" width="120" height="40" as="geometry" />
        </mxCell>
        <mxCell id="GBO3RVmkL8M1SUxiBIiZ-130" value="" style="edgeStyle=none;curved=1;rounded=0;orthogonalLoop=1;jettySize=auto;html=1;fontSize=12;startSize=8;endSize=8;entryX=0.5;entryY=0;entryDx=0;entryDy=0;" parent="WIyWlLk6GJQsqaUBKTNV-1" source="GBO3RVmkL8M1SUxiBIiZ-124" target="5hDC0-uaafTOUl5YEbo5-37" edge="1">
          <mxGeometry relative="1" as="geometry">
            <mxPoint x="1920" y="302.5" as="targetPoint" />
          </mxGeometry>
        </mxCell>
        <mxCell id="GBO3RVmkL8M1SUxiBIiZ-124" value="&lt;span style=&quot;font-size: 12px;&quot;&gt;미니게임&lt;/span&gt;" style="rounded=0;whiteSpace=wrap;html=1;fontSize=16;fillColor=#d5e8d4;strokeColor=#82b366;fontStyle=1" parent="WIyWlLk6GJQsqaUBKTNV-1" vertex="1">
          <mxGeometry x="1860" y="217.5" width="120" height="40" as="geometry" />
        </mxCell>
        <mxCell id="GBO3RVmkL8M1SUxiBIiZ-133" style="edgeStyle=none;curved=1;rounded=0;orthogonalLoop=1;jettySize=auto;html=1;entryX=0;entryY=0.5;entryDx=0;entryDy=0;fontSize=12;startSize=8;endSize=8;" parent="WIyWlLk6GJQsqaUBKTNV-1" source="GBO3RVmkL8M1SUxiBIiZ-131" target="GBO3RVmkL8M1SUxiBIiZ-132" edge="1">
          <mxGeometry relative="1" as="geometry" />
        </mxCell>
        <mxCell id="GBO3RVmkL8M1SUxiBIiZ-135" style="edgeStyle=none;curved=1;rounded=0;orthogonalLoop=1;jettySize=auto;html=1;entryX=0;entryY=0.5;entryDx=0;entryDy=0;fontSize=12;startSize=8;endSize=8;" parent="WIyWlLk6GJQsqaUBKTNV-1" source="GBO3RVmkL8M1SUxiBIiZ-131" target="GBO3RVmkL8M1SUxiBIiZ-134" edge="1">
          <mxGeometry relative="1" as="geometry" />
        </mxCell>
        <mxCell id="GBO3RVmkL8M1SUxiBIiZ-131" value="해당 앱&lt;br&gt;설치 여부" style="rhombus;whiteSpace=wrap;html=1;shadow=0;fontFamily=Helvetica;fontSize=12;align=center;strokeWidth=1;spacing=6;spacingTop=-4;fillColor=#b1ddfc;strokeColor=#10739e;fontStyle=1" parent="WIyWlLk6GJQsqaUBKTNV-1" vertex="1">
          <mxGeometry x="2080" y="237.5" width="100" height="80" as="geometry" />
        </mxCell>
        <mxCell id="GBO3RVmkL8M1SUxiBIiZ-132" value="&lt;span style=&quot;font-size: 12px;&quot;&gt;해당 앱 실행&lt;/span&gt;" style="rounded=0;whiteSpace=wrap;html=1;fontSize=16;fillColor=#d5e8d4;strokeColor=#82b366;fontStyle=1" parent="WIyWlLk6GJQsqaUBKTNV-1" vertex="1">
          <mxGeometry x="2210" y="222.5" width="120" height="40" as="geometry" />
        </mxCell>
        <mxCell id="qNMKc5YfHU3eDxenYZe_-13" style="edgeStyle=orthogonalEdgeStyle;rounded=0;orthogonalLoop=1;jettySize=auto;html=1;exitX=1;exitY=0.5;exitDx=0;exitDy=0;entryX=0;entryY=0.5;entryDx=0;entryDy=0;endSize=8;startSize=8;jumpSize=8;" parent="WIyWlLk6GJQsqaUBKTNV-1" source="GBO3RVmkL8M1SUxiBIiZ-134" target="5hDC0-uaafTOUl5YEbo5-28" edge="1">
          <mxGeometry relative="1" as="geometry" />
        </mxCell>
        <mxCell id="GBO3RVmkL8M1SUxiBIiZ-134" value="&lt;font style=&quot;font-size: 12px;&quot;&gt;&lt;b&gt;해당 앱 설치&lt;br&gt;안내 팝업&lt;/b&gt;&lt;/font&gt;" style="shape=document;whiteSpace=wrap;html=1;boundedLbl=1;fontSize=16;fillColor=#e1d5e7;strokeColor=#9673a6;" parent="WIyWlLk6GJQsqaUBKTNV-1" vertex="1">
          <mxGeometry x="2210" y="272.5" width="120" height="60" as="geometry" />
        </mxCell>
        <mxCell id="GBO3RVmkL8M1SUxiBIiZ-136" value="&lt;font style=&quot;font-size: 10px;&quot;&gt;N&lt;/font&gt;" style="text;strokeColor=none;fillColor=none;html=1;align=center;verticalAlign=middle;whiteSpace=wrap;rounded=0;fontSize=16;fontColor=#FF0000;fontStyle=1" parent="WIyWlLk6GJQsqaUBKTNV-1" vertex="1">
          <mxGeometry x="2160" y="262.5" width="60" height="30" as="geometry" />
        </mxCell>
        <mxCell id="GBO3RVmkL8M1SUxiBIiZ-137" value="&lt;font style=&quot;font-size: 10px;&quot;&gt;Y&lt;/font&gt;" style="text;strokeColor=none;fillColor=none;html=1;align=center;verticalAlign=middle;whiteSpace=wrap;rounded=0;fontSize=16;fontStyle=1" parent="WIyWlLk6GJQsqaUBKTNV-1" vertex="1">
          <mxGeometry x="2145" y="222.5" width="60" height="30" as="geometry" />
        </mxCell>
        <mxCell id="5hDC0-uaafTOUl5YEbo5-18" style="edgeStyle=orthogonalEdgeStyle;rounded=0;orthogonalLoop=1;jettySize=auto;html=1;entryX=0;entryY=0.5;entryDx=0;entryDy=0;endSize=8;startSize=8;jumpSize=8;" parent="WIyWlLk6GJQsqaUBKTNV-1" source="5hDC0-uaafTOUl5YEbo5-14" target="GBO3RVmkL8M1SUxiBIiZ-117" edge="1">
          <mxGeometry relative="1" as="geometry" />
        </mxCell>
        <mxCell id="5hDC0-uaafTOUl5YEbo5-20" value="" style="edgeStyle=orthogonalEdgeStyle;rounded=0;orthogonalLoop=1;jettySize=auto;html=1;" parent="WIyWlLk6GJQsqaUBKTNV-1" source="5hDC0-uaafTOUl5YEbo5-14" target="5hDC0-uaafTOUl5YEbo5-19" edge="1">
          <mxGeometry relative="1" as="geometry" />
        </mxCell>
        <mxCell id="5hDC0-uaafTOUl5YEbo5-14" value="룰렛 기회&amp;gt;0" style="rhombus;whiteSpace=wrap;html=1;shadow=0;fontFamily=Helvetica;fontSize=12;align=center;strokeWidth=1;spacing=6;spacingTop=-4;fillColor=#b1ddfc;strokeColor=#10739e;fontStyle=1" parent="WIyWlLk6GJQsqaUBKTNV-1" vertex="1">
          <mxGeometry x="2160" y="112.5" width="100" height="80" as="geometry" />
        </mxCell>
        <mxCell id="5hDC0-uaafTOUl5YEbo5-16" style="edgeStyle=orthogonalEdgeStyle;rounded=0;orthogonalLoop=1;jettySize=auto;html=1;entryX=0.33;entryY=0.225;entryDx=0;entryDy=0;entryPerimeter=0;endSize=8;startSize=8;jumpSize=8;" parent="WIyWlLk6GJQsqaUBKTNV-1" source="GBO3RVmkL8M1SUxiBIiZ-105" target="5hDC0-uaafTOUl5YEbo5-14" edge="1">
          <mxGeometry relative="1" as="geometry" />
        </mxCell>
        <mxCell id="5hDC0-uaafTOUl5YEbo5-19" value="&lt;span style=&quot;font-size: 12px;&quot;&gt;&lt;b&gt;보유하신 기회가 없습니다.&lt;/b&gt;&lt;/span&gt;" style="shape=document;whiteSpace=wrap;html=1;boundedLbl=1;fontSize=16;fillColor=#e1d5e7;strokeColor=#9673a6;" parent="WIyWlLk6GJQsqaUBKTNV-1" vertex="1">
          <mxGeometry x="2300" y="122.5" width="120" height="60" as="geometry" />
        </mxCell>
        <mxCell id="5hDC0-uaafTOUl5YEbo5-21" value="&lt;font style=&quot;font-size: 10px;&quot;&gt;N&lt;/font&gt;" style="text;strokeColor=none;fillColor=none;html=1;align=center;verticalAlign=middle;whiteSpace=wrap;rounded=0;fontSize=16;fontColor=#FF0000;fontStyle=1" parent="WIyWlLk6GJQsqaUBKTNV-1" vertex="1">
          <mxGeometry x="2240" y="122.5" width="60" height="30" as="geometry" />
        </mxCell>
        <mxCell id="5hDC0-uaafTOUl5YEbo5-22" value="&lt;font style=&quot;font-size: 10px;&quot;&gt;Y&lt;/font&gt;" style="text;strokeColor=none;fillColor=none;html=1;align=center;verticalAlign=middle;whiteSpace=wrap;rounded=0;fontSize=16;fontStyle=1" parent="WIyWlLk6GJQsqaUBKTNV-1" vertex="1">
          <mxGeometry x="2195" y="82.5" width="60" height="30" as="geometry" />
        </mxCell>
        <mxCell id="5hDC0-uaafTOUl5YEbo5-36" style="edgeStyle=orthogonalEdgeStyle;rounded=0;orthogonalLoop=1;jettySize=auto;html=1;entryX=1;entryY=0.5;entryDx=0;entryDy=0;exitX=0.5;exitY=0;exitDx=0;exitDy=0;endSize=8;startSize=8;jumpSize=8;" parent="WIyWlLk6GJQsqaUBKTNV-1" source="5hDC0-uaafTOUl5YEbo5-28" target="GBO3RVmkL8M1SUxiBIiZ-132" edge="1">
          <mxGeometry relative="1" as="geometry">
            <Array as="points">
              <mxPoint x="2380" y="242.5" />
              <mxPoint x="2380" y="242.5" />
            </Array>
          </mxGeometry>
        </mxCell>
        <mxCell id="5hDC0-uaafTOUl5YEbo5-28" value="해당 앱&lt;br&gt;설치" style="rhombus;whiteSpace=wrap;html=1;shadow=0;fontFamily=Helvetica;fontSize=12;align=center;strokeWidth=1;spacing=6;spacingTop=-4;fillColor=#b1ddfc;strokeColor=#10739e;fontStyle=1" parent="WIyWlLk6GJQsqaUBKTNV-1" vertex="1">
          <mxGeometry x="2370" y="237.5" width="100" height="80" as="geometry" />
        </mxCell>
        <mxCell id="5hDC0-uaafTOUl5YEbo5-33" value="&lt;font style=&quot;font-size: 10px;&quot;&gt;Y&lt;/font&gt;" style="text;strokeColor=none;fillColor=none;html=1;align=center;verticalAlign=middle;whiteSpace=wrap;rounded=0;fontSize=16;fontStyle=1" parent="WIyWlLk6GJQsqaUBKTNV-1" vertex="1">
          <mxGeometry x="2340" y="212.5" width="60" height="30" as="geometry" />
        </mxCell>
        <mxCell id="5hDC0-uaafTOUl5YEbo5-34" value="&lt;font style=&quot;font-size: 10px;&quot;&gt;N&lt;/font&gt;" style="text;strokeColor=none;fillColor=none;html=1;align=center;verticalAlign=middle;whiteSpace=wrap;rounded=0;fontSize=16;fontColor=#FF0000;fontStyle=1" parent="WIyWlLk6GJQsqaUBKTNV-1" vertex="1">
          <mxGeometry x="2370" y="302.5" width="60" height="30" as="geometry" />
        </mxCell>
        <mxCell id="qNMKc5YfHU3eDxenYZe_-16" style="edgeStyle=orthogonalEdgeStyle;rounded=0;orthogonalLoop=1;jettySize=auto;html=1;exitX=1;exitY=0.5;exitDx=0;exitDy=0;entryX=0;entryY=0.75;entryDx=0;entryDy=0;endSize=8;startSize=8;jumpSize=8;" parent="WIyWlLk6GJQsqaUBKTNV-1" source="5hDC0-uaafTOUl5YEbo5-37" target="GBO3RVmkL8M1SUxiBIiZ-97" edge="1">
          <mxGeometry relative="1" as="geometry" />
        </mxCell>
        <mxCell id="5hDC0-uaafTOUl5YEbo5-37" value="친구 숫자&amp;gt;0" style="rhombus;whiteSpace=wrap;html=1;shadow=0;fontFamily=Helvetica;fontSize=12;align=center;strokeWidth=1;spacing=6;spacingTop=-4;fillColor=#b1ddfc;strokeColor=#10739e;fontStyle=1" parent="WIyWlLk6GJQsqaUBKTNV-1" vertex="1">
          <mxGeometry x="1870" y="297.5" width="100" height="80" as="geometry" />
        </mxCell>
        <mxCell id="qNMKc5YfHU3eDxenYZe_-19" style="edgeStyle=orthogonalEdgeStyle;rounded=0;orthogonalLoop=1;jettySize=auto;html=1;exitX=1;exitY=0.5;exitDx=0;exitDy=0;entryX=0;entryY=0.5;entryDx=0;entryDy=0;endSize=8;startSize=8;jumpSize=8;" parent="WIyWlLk6GJQsqaUBKTNV-1" source="5hDC0-uaafTOUl5YEbo5-38" target="qNMKc5YfHU3eDxenYZe_-18" edge="1">
          <mxGeometry relative="1" as="geometry" />
        </mxCell>
        <mxCell id="5hDC0-uaafTOUl5YEbo5-38" value="&lt;span style=&quot;font-size: 12px;&quot;&gt;친구 게임 초대&lt;/span&gt;" style="rounded=0;whiteSpace=wrap;html=1;fontSize=16;fillColor=#d5e8d4;strokeColor=#82b366;fontStyle=1" parent="WIyWlLk6GJQsqaUBKTNV-1" vertex="1">
          <mxGeometry x="1860" y="392.5" width="120" height="40" as="geometry" />
        </mxCell>
        <mxCell id="5hDC0-uaafTOUl5YEbo5-44" value="&lt;font style=&quot;font-size: 10px;&quot;&gt;N&lt;/font&gt;" style="text;strokeColor=none;fillColor=none;html=1;align=center;verticalAlign=middle;whiteSpace=wrap;rounded=0;fontSize=16;fontColor=#FF0000;fontStyle=1" parent="WIyWlLk6GJQsqaUBKTNV-1" vertex="1">
          <mxGeometry x="1950" y="302.5" width="60" height="30" as="geometry" />
        </mxCell>
        <mxCell id="qNMKc5YfHU3eDxenYZe_-0" value="&lt;font style=&quot;font-size: 16px;&quot;&gt;시작/끝&lt;/font&gt;" style="rounded=1;whiteSpace=wrap;html=1;fontSize=12;glass=0;strokeWidth=1;shadow=0;fillColor=#FF8000;strokeColor=#d79b00;fontStyle=1" parent="WIyWlLk6GJQsqaUBKTNV-1" vertex="1">
          <mxGeometry x="390" y="-1169" width="120" height="40" as="geometry" />
        </mxCell>
        <mxCell id="qNMKc5YfHU3eDxenYZe_-1" value="&lt;font style=&quot;font-size: 16px;&quot;&gt;판단&lt;/font&gt;" style="rhombus;whiteSpace=wrap;html=1;fontSize=16;fillColor=#b1ddf0;strokeColor=#10739e;fontStyle=1" parent="WIyWlLk6GJQsqaUBKTNV-1" vertex="1">
          <mxGeometry x="410" y="-1119" width="80" height="80" as="geometry" />
        </mxCell>
        <mxCell id="qNMKc5YfHU3eDxenYZe_-2" value="&lt;b style=&quot;&quot;&gt;&lt;font style=&quot;font-size: 16px;&quot;&gt;출력&lt;/font&gt;&lt;/b&gt;" style="shape=document;whiteSpace=wrap;html=1;boundedLbl=1;fontSize=16;fillColor=#e1d5e7;strokeColor=#9673a6;" parent="WIyWlLk6GJQsqaUBKTNV-1" vertex="1">
          <mxGeometry x="390" y="-1019" width="120" height="60" as="geometry" />
        </mxCell>
        <mxCell id="qNMKc5YfHU3eDxenYZe_-3" value="&lt;font style=&quot;font-size: 16px;&quot;&gt;처리 프로세스&lt;/font&gt;" style="rounded=0;whiteSpace=wrap;html=1;fontSize=16;fillColor=#d5e8d4;strokeColor=#82b366;fontStyle=1" parent="WIyWlLk6GJQsqaUBKTNV-1" vertex="1">
          <mxGeometry x="390" y="-944" width="120" height="40" as="geometry" />
        </mxCell>
        <mxCell id="qNMKc5YfHU3eDxenYZe_-6" style="edgeStyle=orthogonalEdgeStyle;rounded=0;orthogonalLoop=1;jettySize=auto;html=1;entryX=1;entryY=0.75;entryDx=0;entryDy=0;exitX=0.258;exitY=1.033;exitDx=0;exitDy=0;exitPerimeter=0;endSize=8;startSize=8;jumpSize=8;" parent="WIyWlLk6GJQsqaUBKTNV-1" source="5hDC0-uaafTOUl5YEbo5-19" target="GBO3RVmkL8M1SUxiBIiZ-105" edge="1">
          <mxGeometry relative="1" as="geometry">
            <Array as="points">
              <mxPoint x="2331" y="212.5" />
              <mxPoint x="2147" y="212.5" />
              <mxPoint x="2147" y="152.5" />
            </Array>
          </mxGeometry>
        </mxCell>
        <mxCell id="qNMKc5YfHU3eDxenYZe_-14" style="edgeStyle=orthogonalEdgeStyle;rounded=0;orthogonalLoop=1;jettySize=auto;html=1;exitX=0.5;exitY=1;exitDx=0;exitDy=0;entryX=0.392;entryY=0.975;entryDx=0;entryDy=0;entryPerimeter=0;endSize=8;startSize=8;jumpSize=8;" parent="WIyWlLk6GJQsqaUBKTNV-1" source="5hDC0-uaafTOUl5YEbo5-28" target="GBO3RVmkL8M1SUxiBIiZ-122" edge="1">
          <mxGeometry relative="1" as="geometry" />
        </mxCell>
        <mxCell id="qNMKc5YfHU3eDxenYZe_-18" value="&lt;span style=&quot;font-size: 12px;&quot;&gt;미니게임 실행&lt;/span&gt;" style="rounded=0;whiteSpace=wrap;html=1;fontSize=16;fillColor=#d5e8d4;strokeColor=#82b366;fontStyle=1" parent="WIyWlLk6GJQsqaUBKTNV-1" vertex="1">
          <mxGeometry x="2020" y="392.5" width="120" height="40" as="geometry" />
        </mxCell>
        <mxCell id="ct-ov6YF5Ax_w1VTzETM-5" style="edgeStyle=orthogonalEdgeStyle;rounded=0;orthogonalLoop=1;jettySize=auto;html=1;exitX=1;exitY=0.5;exitDx=0;exitDy=0;entryX=0;entryY=0.5;entryDx=0;entryDy=0;endSize=8;startSize=8;jumpSize=8;" parent="WIyWlLk6GJQsqaUBKTNV-1" source="qNMKc5YfHU3eDxenYZe_-31" target="GBO3RVmkL8M1SUxiBIiZ-10" edge="1">
          <mxGeometry relative="1" as="geometry" />
        </mxCell>
        <mxCell id="qNMKc5YfHU3eDxenYZe_-31" value="&lt;span style=&quot;font-size: 12px;&quot;&gt;읏맨 키우기 서비스&lt;/span&gt;" style="rounded=0;whiteSpace=wrap;html=1;fontSize=16;fillColor=#d5e8d4;strokeColor=#82b366;fontStyle=1" parent="WIyWlLk6GJQsqaUBKTNV-1" vertex="1">
          <mxGeometry x="1850" y="1105" width="120" height="40" as="geometry" />
        </mxCell>
        <mxCell id="ct-ov6YF5Ax_w1VTzETM-25" style="edgeStyle=orthogonalEdgeStyle;rounded=0;orthogonalLoop=1;jettySize=auto;html=1;exitX=1;exitY=0.5;exitDx=0;exitDy=0;entryX=0;entryY=0.5;entryDx=0;entryDy=0;endSize=8;startSize=8;jumpSize=8;" parent="WIyWlLk6GJQsqaUBKTNV-1" target="GBO3RVmkL8M1SUxiBIiZ-109" edge="1">
          <mxGeometry relative="1" as="geometry">
            <mxPoint x="2285" y="1125" as="sourcePoint" />
          </mxGeometry>
        </mxCell>
        <mxCell id="ct-ov6YF5Ax_w1VTzETM-23" style="edgeStyle=orthogonalEdgeStyle;rounded=0;orthogonalLoop=1;jettySize=auto;html=1;exitX=0.5;exitY=0;exitDx=0;exitDy=0;entryX=0.5;entryY=1;entryDx=0;entryDy=0;" parent="WIyWlLk6GJQsqaUBKTNV-1" source="ct-ov6YF5Ax_w1VTzETM-1" target="GBO3RVmkL8M1SUxiBIiZ-23" edge="1">
          <mxGeometry relative="1" as="geometry" />
        </mxCell>
        <mxCell id="ct-ov6YF5Ax_w1VTzETM-1" value="&lt;span style=&quot;font-size: 12px;&quot;&gt;본인 인증&lt;/span&gt;" style="rounded=0;whiteSpace=wrap;html=1;fontSize=16;fillColor=#d5e8d4;strokeColor=#82b366;fontStyle=1" parent="WIyWlLk6GJQsqaUBKTNV-1" vertex="1">
          <mxGeometry x="2160" y="995" width="120" height="40" as="geometry" />
        </mxCell>
        <mxCell id="ct-ov6YF5Ax_w1VTzETM-8" value="" style="edgeStyle=none;curved=0;rounded=1;orthogonalLoop=1;jettySize=auto;html=1;entryX=0.5;entryY=0;entryDx=0;entryDy=0;fontSize=12;startSize=8;endSize=8;strokeColor=none;" parent="WIyWlLk6GJQsqaUBKTNV-1" target="GBO3RVmkL8M1SUxiBIiZ-109" edge="1">
          <mxGeometry relative="1" as="geometry">
            <mxPoint x="2347.894736842105" y="1055" as="sourcePoint" />
            <mxPoint x="1910" y="1325" as="targetPoint" />
          </mxGeometry>
        </mxCell>
        <mxCell id="ct-ov6YF5Ax_w1VTzETM-26" style="edgeStyle=orthogonalEdgeStyle;rounded=0;orthogonalLoop=1;jettySize=auto;html=1;exitX=0.5;exitY=0;exitDx=0;exitDy=0;endSize=8;startSize=8;jumpSize=8;" parent="WIyWlLk6GJQsqaUBKTNV-1" source="GBO3RVmkL8M1SUxiBIiZ-109" target="GBO3RVmkL8M1SUxiBIiZ-110" edge="1">
          <mxGeometry relative="1" as="geometry" />
        </mxCell>
        <mxCell id="ct-ov6YF5Ax_w1VTzETM-27" style="edgeStyle=orthogonalEdgeStyle;rounded=0;orthogonalLoop=1;jettySize=auto;html=1;exitX=1;exitY=0.5;exitDx=0;exitDy=0;entryX=0.5;entryY=0;entryDx=0;entryDy=0;endSize=8;startSize=8;jumpSize=8;" parent="WIyWlLk6GJQsqaUBKTNV-1" source="GBO3RVmkL8M1SUxiBIiZ-109" target="WIyWlLk6GJQsqaUBKTNV-3" edge="1">
          <mxGeometry relative="1" as="geometry">
            <Array as="points">
              <mxPoint x="2470" y="1125" />
              <mxPoint x="2470" y="875" />
              <mxPoint x="1910" y="875" />
            </Array>
          </mxGeometry>
        </mxCell>
        <mxCell id="GBO3RVmkL8M1SUxiBIiZ-109" value="&lt;font style=&quot;font-size: 12px;&quot;&gt;마케팅/약관 동의 여부&lt;br&gt;&lt;/font&gt;" style="rhombus;whiteSpace=wrap;html=1;fontSize=16;fillColor=#b1ddf0;strokeColor=#10739e;fontStyle=1" parent="WIyWlLk6GJQsqaUBKTNV-1" vertex="1">
          <mxGeometry x="2360" y="1085" width="80" height="80" as="geometry" />
        </mxCell>
        <mxCell id="ct-ov6YF5Ax_w1VTzETM-18" style="edgeStyle=orthogonalEdgeStyle;rounded=0;orthogonalLoop=1;jettySize=auto;html=1;exitX=0.5;exitY=1;exitDx=0;exitDy=0;" parent="WIyWlLk6GJQsqaUBKTNV-1" source="GBO3RVmkL8M1SUxiBIiZ-42" target="GBO3RVmkL8M1SUxiBIiZ-42" edge="1">
          <mxGeometry relative="1" as="geometry" />
        </mxCell>
        <mxCell id="ct-ov6YF5Ax_w1VTzETM-29" value="&lt;font style=&quot;font-size: 10px;&quot;&gt;N&lt;/font&gt;" style="text;strokeColor=none;fillColor=none;html=1;align=center;verticalAlign=middle;whiteSpace=wrap;rounded=0;fontSize=16;fontColor=#FF0000;fontStyle=1" parent="WIyWlLk6GJQsqaUBKTNV-1" vertex="1">
          <mxGeometry x="2420" y="1095" width="60" height="30" as="geometry" />
        </mxCell>
        <mxCell id="ct-ov6YF5Ax_w1VTzETM-30" value="&lt;font style=&quot;font-size: 16px;&quot;&gt;끝&lt;/font&gt;" style="rounded=1;whiteSpace=wrap;html=1;fontSize=12;glass=0;strokeWidth=1;shadow=0;fillColor=#FF8000;strokeColor=#d79b00;fontStyle=1" parent="WIyWlLk6GJQsqaUBKTNV-1" vertex="1">
          <mxGeometry x="70" y="-453.5" width="120" height="40" as="geometry" />
        </mxCell>
        <mxCell id="5AfnH72zM3IzFM1ALZ0G-0" value="&lt;span style=&quot;font-size: 12px;&quot;&gt;&lt;b&gt;마케팅/약관 동의 안내 팝업&lt;/b&gt;&lt;/span&gt;" style="shape=document;whiteSpace=wrap;html=1;boundedLbl=1;fontSize=16;fillColor=#e1d5e7;strokeColor=#9673a6;" parent="WIyWlLk6GJQsqaUBKTNV-1" vertex="1">
          <mxGeometry x="2165" y="1105" width="120" height="60" as="geometry" />
        </mxCell>
        <mxCell id="NaQv06OIT9rLutypHk87-2" value="&lt;font style=&quot;font-size: 16px;&quot;&gt;배너 광고 터치&lt;/font&gt;" style="rounded=0;whiteSpace=wrap;html=1;fontSize=16;fillColor=#d5e8d4;strokeColor=#82b366;fontStyle=1" vertex="1" parent="WIyWlLk6GJQsqaUBKTNV-1">
          <mxGeometry x="70" y="-1035" width="120" height="40" as="geometry" />
        </mxCell>
        <mxCell id="NaQv06OIT9rLutypHk87-4" value="&lt;span style=&quot;&quot;&gt;읏맨 키우기&lt;br&gt;메인화면&lt;br&gt;&lt;/span&gt;" style="rounded=0;whiteSpace=wrap;html=1;fontSize=16;fillColor=#d5e8d4;strokeColor=#82b366;fontStyle=1" vertex="1" parent="WIyWlLk6GJQsqaUBKTNV-1">
          <mxGeometry x="70" y="-970" width="120" height="40" as="geometry" />
        </mxCell>
        <mxCell id="NaQv06OIT9rLutypHk87-7" value="" style="endArrow=classic;html=1;rounded=0;fontSize=12;startSize=8;endSize=8;curved=1;fontStyle=1;entryX=0.5;entryY=0;entryDx=0;entryDy=0;exitX=0.5;exitY=1;exitDx=0;exitDy=0;" edge="1" parent="WIyWlLk6GJQsqaUBKTNV-1" source="NaQv06OIT9rLutypHk87-2" target="NaQv06OIT9rLutypHk87-4">
          <mxGeometry width="50" height="50" relative="1" as="geometry">
            <mxPoint x="129.5" y="-960" as="sourcePoint" />
            <mxPoint x="130" y="-925" as="targetPoint" />
            <Array as="points" />
          </mxGeometry>
        </mxCell>
        <mxCell id="NaQv06OIT9rLutypHk87-26" value="" style="edgeStyle=orthogonalEdgeStyle;rounded=0;orthogonalLoop=1;jettySize=auto;html=1;endSize=8;startSize=8;" edge="1" parent="WIyWlLk6GJQsqaUBKTNV-1" source="NaQv06OIT9rLutypHk87-10" target="GBO3RVmkL8M1SUxiBIiZ-53">
          <mxGeometry relative="1" as="geometry" />
        </mxCell>
        <mxCell id="NaQv06OIT9rLutypHk87-10" value="&lt;span style=&quot;&quot;&gt;&lt;b&gt;OK페이 포인트&lt;br&gt;당첨 안내 팝업&lt;br&gt;&lt;/b&gt;&lt;/span&gt;" style="shape=document;whiteSpace=wrap;html=1;boundedLbl=1;fontSize=16;fillColor=#e1d5e7;strokeColor=#9673a6;" vertex="1" parent="WIyWlLk6GJQsqaUBKTNV-1">
          <mxGeometry x="70" y="-900" width="120" height="60" as="geometry" />
        </mxCell>
        <mxCell id="NaQv06OIT9rLutypHk87-22" value="" style="endArrow=classic;html=1;rounded=0;fontSize=12;startSize=8;endSize=8;curved=0;fontStyle=1;entryX=0;entryY=0.5;entryDx=0;entryDy=0;exitX=1;exitY=0.5;exitDx=0;exitDy=0;" edge="1" parent="WIyWlLk6GJQsqaUBKTNV-1" source="GBO3RVmkL8M1SUxiBIiZ-60" target="GBO3RVmkL8M1SUxiBIiZ-81">
          <mxGeometry width="50" height="50" relative="1" as="geometry">
            <mxPoint x="560" y="-720" as="sourcePoint" />
            <mxPoint x="960" y="-1035" as="targetPoint" />
            <Array as="points" />
          </mxGeometry>
        </mxCell>
        <mxCell id="NaQv06OIT9rLutypHk87-27" value="&lt;font style=&quot;font-size: 16px;&quot;&gt;N&lt;/font&gt;" style="text;strokeColor=none;fillColor=none;html=1;align=center;verticalAlign=middle;whiteSpace=wrap;rounded=0;fontSize=16;fontColor=#FF0000;fontStyle=1" vertex="1" parent="WIyWlLk6GJQsqaUBKTNV-1">
          <mxGeometry x="160" y="-700" width="60" height="30" as="geometry" />
        </mxCell>
        <mxCell id="NaQv06OIT9rLutypHk87-31" value="&lt;font style=&quot;font-size: 16px;&quot;&gt;Y&lt;/font&gt;" style="text;strokeColor=none;fillColor=none;html=1;align=center;verticalAlign=middle;whiteSpace=wrap;rounded=0;fontSize=16;fontStyle=1" vertex="1" parent="WIyWlLk6GJQsqaUBKTNV-1">
          <mxGeometry x="195" y="-615" width="60" height="30" as="geometry" />
        </mxCell>
        <mxCell id="NaQv06OIT9rLutypHk87-35" value="&lt;font style=&quot;font-size: 16px;&quot;&gt;N&lt;/font&gt;" style="text;strokeColor=none;fillColor=none;html=1;align=center;verticalAlign=middle;whiteSpace=wrap;rounded=0;fontSize=16;fontColor=#FF0000;fontStyle=1" vertex="1" parent="WIyWlLk6GJQsqaUBKTNV-1">
          <mxGeometry x="234" y="-550" width="60" height="30" as="geometry" />
        </mxCell>
        <mxCell id="NaQv06OIT9rLutypHk87-39" value="" style="rounded=0;whiteSpace=wrap;html=1;fontSize=16;fontStyle=1;fillColor=#fff2cc;strokeColor=#d6b656;" vertex="1" parent="WIyWlLk6GJQsqaUBKTNV-1">
          <mxGeometry x="540" y="-1169" width="140" height="317.5" as="geometry" />
        </mxCell>
        <mxCell id="NaQv06OIT9rLutypHk87-40" value="&lt;font style=&quot;font-size: 16px;&quot;&gt;시작&lt;/font&gt;" style="rounded=1;whiteSpace=wrap;html=1;fontSize=12;glass=0;strokeWidth=1;shadow=0;fillColor=#FF8000;strokeColor=#d79b00;fontStyle=1" vertex="1" parent="WIyWlLk6GJQsqaUBKTNV-1">
          <mxGeometry x="550" y="-1106.5" width="120" height="40" as="geometry" />
        </mxCell>
        <mxCell id="NaQv06OIT9rLutypHk87-43" style="edgeStyle=none;curved=1;rounded=0;orthogonalLoop=1;jettySize=auto;html=1;exitX=0.5;exitY=1;exitDx=0;exitDy=0;fontSize=12;startSize=8;endSize=8;fontStyle=1;entryX=0.5;entryY=0;entryDx=0;entryDy=0;" edge="1" parent="WIyWlLk6GJQsqaUBKTNV-1" source="NaQv06OIT9rLutypHk87-62" target="NaQv06OIT9rLutypHk87-70">
          <mxGeometry relative="1" as="geometry">
            <mxPoint x="660" y="-896.5" as="sourcePoint" />
            <mxPoint x="740" y="-881.5" as="targetPoint" />
          </mxGeometry>
        </mxCell>
        <mxCell id="NaQv06OIT9rLutypHk87-44" value="" style="endArrow=classic;html=1;rounded=0;fontSize=12;startSize=8;endSize=8;curved=1;fontStyle=1;entryX=0.5;entryY=0;entryDx=0;entryDy=0;exitX=0.5;exitY=1;exitDx=0;exitDy=0;" edge="1" parent="WIyWlLk6GJQsqaUBKTNV-1" source="NaQv06OIT9rLutypHk87-40" target="NaQv06OIT9rLutypHk87-61">
          <mxGeometry width="50" height="50" relative="1" as="geometry">
            <mxPoint x="609.5" y="-1036.5" as="sourcePoint" />
            <mxPoint x="610" y="-986.5" as="targetPoint" />
            <Array as="points" />
          </mxGeometry>
        </mxCell>
        <mxCell id="NaQv06OIT9rLutypHk87-59" value="&lt;b&gt;친구 초대 프로세스&lt;/b&gt;" style="rounded=0;whiteSpace=wrap;html=1;fontSize=16;" vertex="1" parent="WIyWlLk6GJQsqaUBKTNV-1">
          <mxGeometry x="540" y="-1169" width="140" height="40" as="geometry" />
        </mxCell>
        <mxCell id="NaQv06OIT9rLutypHk87-61" value="&lt;font style=&quot;font-size: 16px;&quot;&gt;친구 초대&lt;br&gt;버튼 터치&lt;/font&gt;" style="rounded=0;whiteSpace=wrap;html=1;fontSize=16;fillColor=#d5e8d4;strokeColor=#82b366;fontStyle=1" vertex="1" parent="WIyWlLk6GJQsqaUBKTNV-1">
          <mxGeometry x="550" y="-1036.5" width="120" height="40" as="geometry" />
        </mxCell>
        <mxCell id="NaQv06OIT9rLutypHk87-62" value="&lt;span style=&quot;&quot;&gt;초대 링크&lt;br&gt;복사하기&lt;br&gt;&lt;/span&gt;" style="rounded=0;whiteSpace=wrap;html=1;fontSize=16;fillColor=#d5e8d4;strokeColor=#82b366;fontStyle=1" vertex="1" parent="WIyWlLk6GJQsqaUBKTNV-1">
          <mxGeometry x="550" y="-971.5" width="120" height="40" as="geometry" />
        </mxCell>
        <mxCell id="NaQv06OIT9rLutypHk87-63" value="" style="endArrow=classic;html=1;rounded=0;fontSize=12;startSize=8;endSize=8;curved=1;fontStyle=1;entryX=0.5;entryY=0;entryDx=0;entryDy=0;exitX=0.5;exitY=1;exitDx=0;exitDy=0;" edge="1" parent="WIyWlLk6GJQsqaUBKTNV-1" source="NaQv06OIT9rLutypHk87-61" target="NaQv06OIT9rLutypHk87-62">
          <mxGeometry width="50" height="50" relative="1" as="geometry">
            <mxPoint x="609.5" y="-961.5" as="sourcePoint" />
            <mxPoint x="610" y="-926.5" as="targetPoint" />
            <Array as="points" />
          </mxGeometry>
        </mxCell>
        <mxCell id="NaQv06OIT9rLutypHk87-70" value="&lt;font style=&quot;font-size: 16px;&quot;&gt;끝&lt;/font&gt;" style="rounded=1;whiteSpace=wrap;html=1;fontSize=12;glass=0;strokeWidth=1;shadow=0;fillColor=#FF8000;strokeColor=#d79b00;fontStyle=1" vertex="1" parent="WIyWlLk6GJQsqaUBKTNV-1">
          <mxGeometry x="550" y="-901.5" width="120" height="40" as="geometry" />
        </mxCell>
        <mxCell id="NaQv06OIT9rLutypHk87-71" value="" style="rounded=0;whiteSpace=wrap;html=1;fontSize=16;fontStyle=1;fillColor=#fff2cc;strokeColor=#d6b656;" vertex="1" parent="WIyWlLk6GJQsqaUBKTNV-1">
          <mxGeometry x="860" y="-1167.5" width="440" height="587.5" as="geometry" />
        </mxCell>
        <mxCell id="NaQv06OIT9rLutypHk87-72" value="&lt;font style=&quot;font-size: 16px;&quot;&gt;시작&lt;/font&gt;" style="rounded=1;whiteSpace=wrap;html=1;fontSize=12;glass=0;strokeWidth=1;shadow=0;fillColor=#FF8000;strokeColor=#d79b00;fontStyle=1" vertex="1" parent="WIyWlLk6GJQsqaUBKTNV-1">
          <mxGeometry x="870" y="-1105" width="120" height="40" as="geometry" />
        </mxCell>
        <mxCell id="NaQv06OIT9rLutypHk87-73" style="edgeStyle=none;curved=1;rounded=0;orthogonalLoop=1;jettySize=auto;html=1;exitX=0.5;exitY=1;exitDx=0;exitDy=0;fontSize=12;startSize=8;endSize=8;fontStyle=1;entryX=0.5;entryY=0;entryDx=0;entryDy=0;" edge="1" parent="WIyWlLk6GJQsqaUBKTNV-1" source="NaQv06OIT9rLutypHk87-77" target="NaQv06OIT9rLutypHk87-79">
          <mxGeometry relative="1" as="geometry">
            <mxPoint x="980" y="-785" as="sourcePoint" />
            <mxPoint x="1060" y="-770" as="targetPoint" />
          </mxGeometry>
        </mxCell>
        <mxCell id="NaQv06OIT9rLutypHk87-74" value="" style="endArrow=classic;html=1;rounded=0;fontSize=12;startSize=8;endSize=8;curved=1;fontStyle=1;entryX=0.5;entryY=0;entryDx=0;entryDy=0;exitX=0.5;exitY=1;exitDx=0;exitDy=0;" edge="1" parent="WIyWlLk6GJQsqaUBKTNV-1" source="NaQv06OIT9rLutypHk87-72" target="NaQv06OIT9rLutypHk87-76">
          <mxGeometry width="50" height="50" relative="1" as="geometry">
            <mxPoint x="929.5" y="-1035" as="sourcePoint" />
            <mxPoint x="930" y="-985" as="targetPoint" />
            <Array as="points" />
          </mxGeometry>
        </mxCell>
        <mxCell id="NaQv06OIT9rLutypHk87-75" value="&lt;b&gt;미션하기 프로세스&lt;/b&gt;" style="rounded=0;whiteSpace=wrap;html=1;fontSize=16;" vertex="1" parent="WIyWlLk6GJQsqaUBKTNV-1">
          <mxGeometry x="860" y="-1167.5" width="140" height="40" as="geometry" />
        </mxCell>
        <mxCell id="NaQv06OIT9rLutypHk87-76" value="&lt;font style=&quot;font-size: 16px;&quot;&gt;미션하기 터치&lt;/font&gt;" style="rounded=0;whiteSpace=wrap;html=1;fontSize=16;fillColor=#d5e8d4;strokeColor=#82b366;fontStyle=1" vertex="1" parent="WIyWlLk6GJQsqaUBKTNV-1">
          <mxGeometry x="870" y="-1035" width="120" height="40" as="geometry" />
        </mxCell>
        <mxCell id="NaQv06OIT9rLutypHk87-77" value="&lt;span style=&quot;&quot;&gt;해당 앱 실행&lt;br&gt;&lt;/span&gt;" style="rounded=0;whiteSpace=wrap;html=1;fontSize=16;fillColor=#d5e8d4;strokeColor=#82b366;fontStyle=1" vertex="1" parent="WIyWlLk6GJQsqaUBKTNV-1">
          <mxGeometry x="870" y="-860" width="120" height="40" as="geometry" />
        </mxCell>
        <mxCell id="NaQv06OIT9rLutypHk87-78" value="" style="endArrow=classic;html=1;rounded=0;fontSize=12;startSize=8;endSize=8;curved=1;fontStyle=1;entryX=0.5;entryY=0;entryDx=0;entryDy=0;exitX=0.5;exitY=1;exitDx=0;exitDy=0;" edge="1" parent="WIyWlLk6GJQsqaUBKTNV-1" source="NaQv06OIT9rLutypHk87-76">
          <mxGeometry width="50" height="50" relative="1" as="geometry">
            <mxPoint x="929.5" y="-960" as="sourcePoint" />
            <mxPoint x="930" y="-965" as="targetPoint" />
            <Array as="points" />
          </mxGeometry>
        </mxCell>
        <mxCell id="NaQv06OIT9rLutypHk87-79" value="&lt;font style=&quot;font-size: 16px;&quot;&gt;끝&lt;/font&gt;" style="rounded=1;whiteSpace=wrap;html=1;fontSize=12;glass=0;strokeWidth=1;shadow=0;fillColor=#FF8000;strokeColor=#d79b00;fontStyle=1" vertex="1" parent="WIyWlLk6GJQsqaUBKTNV-1">
          <mxGeometry x="870" y="-790" width="120" height="40" as="geometry" />
        </mxCell>
        <mxCell id="NaQv06OIT9rLutypHk87-86" style="edgeStyle=orthogonalEdgeStyle;rounded=0;orthogonalLoop=1;jettySize=auto;html=1;exitX=0.5;exitY=1;exitDx=0;exitDy=0;entryX=0.5;entryY=0;entryDx=0;entryDy=0;startSize=8;endSize=8;" edge="1" parent="WIyWlLk6GJQsqaUBKTNV-1" target="NaQv06OIT9rLutypHk87-77">
          <mxGeometry relative="1" as="geometry">
            <mxPoint x="930" y="-885" as="sourcePoint" />
          </mxGeometry>
        </mxCell>
        <mxCell id="NaQv06OIT9rLutypHk87-81" style="edgeStyle=none;curved=1;rounded=0;orthogonalLoop=1;jettySize=auto;html=1;entryX=0.5;entryY=0;entryDx=0;entryDy=0;fontSize=12;startSize=8;endSize=8;fontStyle=1" edge="1" parent="WIyWlLk6GJQsqaUBKTNV-1">
          <mxGeometry relative="1" as="geometry">
            <mxPoint x="930" y="-965" as="sourcePoint" />
            <mxPoint x="930" y="-965" as="targetPoint" />
          </mxGeometry>
        </mxCell>
        <mxCell id="NaQv06OIT9rLutypHk87-82" value="&lt;font style=&quot;font-size: 16px;&quot;&gt;Y&lt;/font&gt;" style="text;strokeColor=none;fillColor=none;html=1;align=center;verticalAlign=middle;whiteSpace=wrap;rounded=0;fontSize=16;fontStyle=1" vertex="1" parent="WIyWlLk6GJQsqaUBKTNV-1">
          <mxGeometry x="720" y="-1060" width="60" height="30" as="geometry" />
        </mxCell>
        <mxCell id="NaQv06OIT9rLutypHk87-83" value="&lt;font style=&quot;font-size: 16px;&quot;&gt;N&lt;/font&gt;" style="text;strokeColor=none;fillColor=none;html=1;align=center;verticalAlign=middle;whiteSpace=wrap;rounded=0;fontSize=16;fontColor=#FF0000;fontStyle=1" vertex="1" parent="WIyWlLk6GJQsqaUBKTNV-1">
          <mxGeometry x="730" y="-1114" width="60" height="30" as="geometry" />
        </mxCell>
        <mxCell id="NaQv06OIT9rLutypHk87-87" value="" style="rounded=0;whiteSpace=wrap;html=1;fontSize=16;fontStyle=1;fillColor=#fff2cc;strokeColor=#d6b656;" vertex="1" parent="WIyWlLk6GJQsqaUBKTNV-1">
          <mxGeometry x="390" y="-830" width="320" height="540" as="geometry" />
        </mxCell>
        <mxCell id="NaQv06OIT9rLutypHk87-88" value="&lt;font style=&quot;font-size: 16px;&quot;&gt;시작&lt;/font&gt;" style="rounded=1;whiteSpace=wrap;html=1;fontSize=12;glass=0;strokeWidth=1;shadow=0;fillColor=#FF8000;strokeColor=#d79b00;fontStyle=1" vertex="1" parent="WIyWlLk6GJQsqaUBKTNV-1">
          <mxGeometry x="419" y="-770" width="120" height="40" as="geometry" />
        </mxCell>
        <mxCell id="NaQv06OIT9rLutypHk87-89" style="edgeStyle=none;curved=1;rounded=0;orthogonalLoop=1;jettySize=auto;html=1;exitX=0.5;exitY=1;exitDx=0;exitDy=0;fontSize=12;startSize=8;endSize=8;fontStyle=1;entryX=0.5;entryY=0;entryDx=0;entryDy=0;" edge="1" parent="WIyWlLk6GJQsqaUBKTNV-1" source="NaQv06OIT9rLutypHk87-93" target="NaQv06OIT9rLutypHk87-98">
          <mxGeometry relative="1" as="geometry">
            <mxPoint x="529" y="-300" as="sourcePoint" />
            <mxPoint x="609" y="-285" as="targetPoint" />
          </mxGeometry>
        </mxCell>
        <mxCell id="NaQv06OIT9rLutypHk87-90" value="" style="endArrow=classic;html=1;rounded=0;fontSize=12;startSize=8;endSize=8;curved=1;fontStyle=1;entryX=0.5;entryY=0;entryDx=0;entryDy=0;exitX=0.5;exitY=1;exitDx=0;exitDy=0;" edge="1" parent="WIyWlLk6GJQsqaUBKTNV-1" source="NaQv06OIT9rLutypHk87-88" target="NaQv06OIT9rLutypHk87-92">
          <mxGeometry width="50" height="50" relative="1" as="geometry">
            <mxPoint x="478.5" y="-700" as="sourcePoint" />
            <mxPoint x="479" y="-650" as="targetPoint" />
            <Array as="points" />
          </mxGeometry>
        </mxCell>
        <mxCell id="NaQv06OIT9rLutypHk87-91" value="&lt;b&gt;룰렛 프로세스&lt;/b&gt;" style="rounded=0;whiteSpace=wrap;html=1;fontSize=16;" vertex="1" parent="WIyWlLk6GJQsqaUBKTNV-1">
          <mxGeometry x="390" y="-830" width="140" height="40" as="geometry" />
        </mxCell>
        <mxCell id="NaQv06OIT9rLutypHk87-92" value="&lt;font style=&quot;font-size: 16px;&quot;&gt;룰렛 돌리러 가기 버튼 터치&lt;/font&gt;" style="rounded=0;whiteSpace=wrap;html=1;fontSize=16;fillColor=#d5e8d4;strokeColor=#82b366;fontStyle=1" vertex="1" parent="WIyWlLk6GJQsqaUBKTNV-1">
          <mxGeometry x="414" y="-697.5" width="130" height="40" as="geometry" />
        </mxCell>
        <mxCell id="NaQv06OIT9rLutypHk87-93" value="&lt;span style=&quot;&quot;&gt;룰렛 돌리기&lt;br&gt;버튼 터치&lt;br&gt;&lt;/span&gt;" style="rounded=0;whiteSpace=wrap;html=1;fontSize=16;fillColor=#d5e8d4;strokeColor=#82b366;fontStyle=1" vertex="1" parent="WIyWlLk6GJQsqaUBKTNV-1">
          <mxGeometry x="419" y="-515" width="120" height="40" as="geometry" />
        </mxCell>
        <mxCell id="NaQv06OIT9rLutypHk87-94" value="" style="endArrow=classic;html=1;rounded=0;fontSize=12;startSize=8;endSize=8;curved=1;fontStyle=1;entryX=0.5;entryY=0;entryDx=0;entryDy=0;exitX=0.5;exitY=1;exitDx=0;exitDy=0;" edge="1" parent="WIyWlLk6GJQsqaUBKTNV-1" source="NaQv06OIT9rLutypHk87-92" target="NaQv06OIT9rLutypHk87-96">
          <mxGeometry width="50" height="50" relative="1" as="geometry">
            <mxPoint x="478.5" y="-625" as="sourcePoint" />
            <mxPoint x="479" y="-590" as="targetPoint" />
            <Array as="points" />
          </mxGeometry>
        </mxCell>
        <mxCell id="NaQv06OIT9rLutypHk87-95" value="&lt;font style=&quot;font-size: 16px;&quot;&gt;끝&lt;/font&gt;" style="rounded=1;whiteSpace=wrap;html=1;fontSize=12;glass=0;strokeWidth=1;shadow=0;fillColor=#FF8000;strokeColor=#d79b00;fontStyle=1" vertex="1" parent="WIyWlLk6GJQsqaUBKTNV-1">
          <mxGeometry x="419" y="-352.5" width="120" height="40" as="geometry" />
        </mxCell>
        <mxCell id="NaQv06OIT9rLutypHk87-96" value="&lt;span style=&quot;font-size: 16px;&quot;&gt;룰렛 보유&lt;br&gt;여부&lt;/span&gt;" style="rhombus;whiteSpace=wrap;html=1;shadow=0;fontFamily=Helvetica;fontSize=12;align=center;strokeWidth=1;spacing=6;spacingTop=-4;fillColor=#b1ddf0;strokeColor=#10739e;fontStyle=1" vertex="1" parent="WIyWlLk6GJQsqaUBKTNV-1">
          <mxGeometry x="429" y="-622.5" width="100" height="80" as="geometry" />
        </mxCell>
        <mxCell id="NaQv06OIT9rLutypHk87-97" value="" style="endArrow=classic;html=1;rounded=0;fontSize=12;startSize=8;endSize=8;curved=1;fontStyle=1;entryX=0.5;entryY=0;entryDx=0;entryDy=0;exitX=0.5;exitY=1;exitDx=0;exitDy=0;" edge="1" parent="WIyWlLk6GJQsqaUBKTNV-1" source="NaQv06OIT9rLutypHk87-96" target="NaQv06OIT9rLutypHk87-93">
          <mxGeometry width="50" height="50" relative="1" as="geometry">
            <mxPoint x="469" y="-525" as="sourcePoint" />
            <mxPoint x="469" y="-495" as="targetPoint" />
          </mxGeometry>
        </mxCell>
        <mxCell id="NaQv06OIT9rLutypHk87-98" value="&lt;span style=&quot;&quot;&gt;&lt;b&gt;경품 당첨&lt;br&gt;안내 팝업&lt;br&gt;&lt;/b&gt;&lt;/span&gt;" style="shape=document;whiteSpace=wrap;html=1;boundedLbl=1;fontSize=16;fillColor=#e1d5e7;strokeColor=#9673a6;" vertex="1" parent="WIyWlLk6GJQsqaUBKTNV-1">
          <mxGeometry x="419" y="-447.5" width="120" height="60" as="geometry" />
        </mxCell>
        <mxCell id="NaQv06OIT9rLutypHk87-100" style="edgeStyle=none;curved=1;rounded=0;orthogonalLoop=1;jettySize=auto;html=1;exitX=0.508;exitY=0.95;exitDx=0;exitDy=0;fontSize=12;startSize=8;endSize=8;fontStyle=1;entryX=0.5;entryY=0;entryDx=0;entryDy=0;exitPerimeter=0;" edge="1" parent="WIyWlLk6GJQsqaUBKTNV-1" source="NaQv06OIT9rLutypHk87-98" target="NaQv06OIT9rLutypHk87-95">
          <mxGeometry relative="1" as="geometry">
            <mxPoint x="489" y="-455" as="sourcePoint" />
            <mxPoint x="479" y="-352.5" as="targetPoint" />
          </mxGeometry>
        </mxCell>
        <mxCell id="NaQv06OIT9rLutypHk87-102" value="&lt;font style=&quot;font-size: 16px;&quot;&gt;Y&lt;/font&gt;" style="text;strokeColor=none;fillColor=none;html=1;align=center;verticalAlign=middle;whiteSpace=wrap;rounded=0;fontSize=16;fontStyle=1" vertex="1" parent="WIyWlLk6GJQsqaUBKTNV-1">
          <mxGeometry x="439" y="-545" width="60" height="30" as="geometry" />
        </mxCell>
        <mxCell id="NaQv06OIT9rLutypHk87-110" style="edgeStyle=orthogonalEdgeStyle;rounded=0;orthogonalLoop=1;jettySize=auto;html=1;endSize=8;startSize=8;entryX=1;entryY=0.5;entryDx=0;entryDy=0;" edge="1" parent="WIyWlLk6GJQsqaUBKTNV-1" source="NaQv06OIT9rLutypHk87-103" target="NaQv06OIT9rLutypHk87-95">
          <mxGeometry relative="1" as="geometry">
            <mxPoint x="539" y="-332.5" as="targetPoint" />
            <Array as="points">
              <mxPoint x="634" y="-332.5" />
            </Array>
          </mxGeometry>
        </mxCell>
        <mxCell id="NaQv06OIT9rLutypHk87-103" value="&lt;span style=&quot;&quot;&gt;&lt;b&gt;지금은 룰렛을 돌릴 수 없어요.&lt;br&gt;안내 팝업&lt;br&gt;&lt;/b&gt;&lt;/span&gt;" style="shape=document;whiteSpace=wrap;html=1;boundedLbl=1;fontSize=16;fillColor=#e1d5e7;strokeColor=#9673a6;" vertex="1" parent="WIyWlLk6GJQsqaUBKTNV-1">
          <mxGeometry x="574" y="-622.5" width="120" height="80" as="geometry" />
        </mxCell>
        <mxCell id="NaQv06OIT9rLutypHk87-104" style="edgeStyle=none;curved=1;rounded=0;orthogonalLoop=1;jettySize=auto;html=1;exitX=1;exitY=0.5;exitDx=0;exitDy=0;fontSize=12;startSize=8;endSize=8;fontStyle=1;entryX=0;entryY=0.5;entryDx=0;entryDy=0;" edge="1" parent="WIyWlLk6GJQsqaUBKTNV-1" source="NaQv06OIT9rLutypHk87-96" target="NaQv06OIT9rLutypHk87-103">
          <mxGeometry relative="1" as="geometry">
            <mxPoint x="633.5" y="-535" as="sourcePoint" />
            <mxPoint x="633.5" y="-507" as="targetPoint" />
          </mxGeometry>
        </mxCell>
        <mxCell id="NaQv06OIT9rLutypHk87-105" value="&lt;font style=&quot;font-size: 16px;&quot;&gt;N&lt;/font&gt;" style="text;strokeColor=none;fillColor=none;html=1;align=center;verticalAlign=middle;whiteSpace=wrap;rounded=0;fontSize=16;fontColor=#FF0000;fontStyle=1" vertex="1" parent="WIyWlLk6GJQsqaUBKTNV-1">
          <mxGeometry x="514" y="-612.5" width="60" height="30" as="geometry" />
        </mxCell>
        <mxCell id="NaQv06OIT9rLutypHk87-109" value="" style="edgeStyle=orthogonalEdgeStyle;rounded=0;orthogonalLoop=1;jettySize=auto;html=1;endSize=8;startSize=8;" edge="1" parent="WIyWlLk6GJQsqaUBKTNV-1" source="NaQv06OIT9rLutypHk87-107" target="ct-ov6YF5Ax_w1VTzETM-30">
          <mxGeometry relative="1" as="geometry" />
        </mxCell>
        <mxCell id="NaQv06OIT9rLutypHk87-107" value="&lt;b&gt;500 포인트&lt;br&gt;당첨 안내 팝업&lt;/b&gt;" style="shape=document;whiteSpace=wrap;html=1;boundedLbl=1;fontSize=16;fillColor=#e1d5e7;strokeColor=#9673a6;" vertex="1" parent="WIyWlLk6GJQsqaUBKTNV-1">
          <mxGeometry x="70" y="-536" width="120" height="60" as="geometry" />
        </mxCell>
      </root>
    </mxGraphModel>
  </diagram>
</mxfile>
